<ttFont>
          <CharString index="0">
            -101 callsubr
            -44 12 return
          </CharString>
          <CharString index="1">
            -4 -2 -105 callgsubr
            return
          </CharString>
          <CharString index="2">
            -68 callsubr
            41 vhcurveto
            return
          </CharString>
          <CharString index="3">
            -55 callsubr
            -2 hlineto
            50 -12 -18 47 -46 hhcurveto
            -34 -20 -29 -30 -55 43 -40 50 -18 hvcurveto
            -93 callsubr
            return
          </CharString>
          <CharString index="4">
            -16 callsubr
            160 -100 callsubr
          </CharString>
          <CharString index="5">
            -75 callsubr
            162 -100 callgsubr
          </CharString>
          <CharString index="6">
            -32 callsubr
            -99 callgsubr
            return
          </CharString>
          <CharString index="7">
            -98 callgsubr
            endchar
          </CharString>
          <CharString index="8">
            hhcurveto
            -86 -66 -57 -105 -137 130 -138 55 -91 callgsubr
            return
          </CharString>
          <CharString index="9">
            -99 callsubr
            22 -4 return
          </CharString>
          <CharString index="10">
            -98 callsubr
            20 -7 20 vhcurveto
            return
          </CharString>
          <CharString index="11">
            82 callsubr
            13 47 31 return
          </CharString>
          <CharString index="12">
            149 callgsubr
            49 44 -35 -56 -52 -37 269 callgsubr
            -1 -16 1 -17 3 rrcurveto
            -2 -5 0 336 callgsubr
            37 -27 42 88 56 66 74 107 -96 98 -98 31 callgsubr
            -6 32 -20 -5 callgsubr
          </CharString>
          <CharString index="13">
            rmoveto
            -104 callgsubr
            return
          </CharString>
          <CharString index="14">
            -83 callgsubr
            -90 -34 1 callsubr
            return
          </CharString>
          <CharString index="15">
            128 -40 callsubr
            return
          </CharString>
          <CharString index="16">
            5 callsubr
            33 53 65 32 27 -48 callsubr
            25 -42 return
          </CharString>
          <CharString index="17">
            -1 -4 -2 -9 -7 vvcurveto
            -48 44 -12 42 372 callsubr
            -71 271 callgsubr
            -41 200 callsubr
            -59 96 -234 163 418 callgsubr
            250 callsubr
            return
          </CharString>
          <CharString index="18">
            42 35 134 4 -103 callsubr
          </CharString>
          <CharString index="19">
            1 4 10 vhcurveto
            -9 15 -3 -82 callsubr
            return
          </CharString>
          <CharString index="20">
            656 -94 callgsubr
            return
          </CharString>
          <CharString index="21">
            rmoveto
            -39 -30 -39 -20 -43 hhcurveto
            -43 -30 18 46 54 51 47 134 7 hvcurveto
            105 117 rmoveto
            111 -75 56 -111 -105 -90 -45 -71 -35 26 -24 43 21 22 8 14 16 vhcurveto
            -10 10 -4 13 15 vvcurveto
            37 32 25 49 48 33 -30 -62 vhcurveto
            -89 vlineto
            -200 -5 -98 -68 -96 vvcurveto
            -83 62 -45 82 67 53 30 45 35 vhcurveto
            -51 7 27 -24 43 hhcurveto
            35 28 19 25 14 hvcurveto
            -30 6 -20 18 42 vvcurveto
            endchar
          </CharString>
          <CharString index="22">
            -89 callgsubr
            hvcurveto
            return
          </CharString>
          <CharString index="23">
            656 -94 callsubr
            return
          </CharString>
          <CharString index="24">
            10 -53 callsubr
            42 46 65 -29 callgsubr
            return
          </CharString>
          <CharString index="25">
            42 35 134 4 15 callsubr
            return
          </CharString>
          <CharString index="26">
            rmoveto
            24 18 19 2 21 -9 18 46 -21 39 -44 3 -35 2 -24 -16 -33 -45 -86 -112 rcurveline
            9 -21 26 -7 28 23 rrcurveto
            return
          </CharString>
          <CharString index="27">
            7 11 -51 callgsubr
            return
          </CharString>
          <CharString index="28">
            vvcurveto
            -47 15 -48 55 5 16 1 4 7 -67 callgsubr
          </CharString>
          <CharString index="29">
            vvcurveto
            -46 13 -70 callsubr
            vvcurveto
            return
          </CharString>
          <CharString index="30">
            9 8 vvcurveto
            return
          </CharString>
          <CharString index="31">
            -105 callsubr
            94 hlineto
            -13 callgsubr
            -19 vhcurveto
            -39 -2 -47 277 callsubr
            156 callsubr
            vhcurveto
            return
          </CharString>
          <CharString index="32">
            7 11 -71 callsubr
            return
          </CharString>
          <CharString index="33">
            -80 callsubr
            34 return
          </CharString>
          <CharString index="34">
            -26 -17 -19 390 callgsubr
            24 202 callsubr
            hvcurveto
            return
          </CharString>
          <CharString index="35">
            rmoveto
            -27 callsubr
            -273 vlineto
            -118 66 -56 108 71 54 37 54 32 vhcurveto
            -7 80 callsubr
            endchar
          </CharString>
          <CharString index="36">
            -60 callsubr
            -9 15 -3 42 35 134 4 -16 callsubr
            return
          </CharString>
          <CharString index="37">
            -48 -57 callsubr
            return
          </CharString>
          <CharString index="38">
            rmoveto
            11 -4 -11 6 -16 hhcurveto
            -10 -12 -4 -12 -13 hvcurveto
            -83 -81 -84 81 rlineto
            12 -12 -12 4 -11 hhcurveto
            -14 -12 -6 -11 -4 hvcurveto
            69 -105 rlineto
            -36 23 19 -20 38 hhcurveto
            38 19 20 36 23 hvcurveto
            return
          </CharString>
          <CharString index="39">
            -2 -4 -1 -103 callgsubr
            return
          </CharString>
          <CharString index="40">
            4 13 -60 callgsubr
            -89 -74 -61 -88 return
          </CharString>
          <CharString index="41">
            -70 callgsubr
            8 hlineto
            393 callgsubr
            -44 0 -39 -36 vvcurveto
            -13 -19 -30 -12 -39 hhcurveto
            -49 -33 17 21 -29 hvcurveto
            24 21 25 33 49 vvcurveto
            100 -87 80 -104 -56 -49 -26 -41 -20 11 -18 19 -12 vhcurveto
            25 29 46 16 39 hhcurveto
            46 39 -22 -47 -28 -17 -32 -38 -26 hvcurveto
            11 -19 -23 7 -28 hhcurveto
            -35 -30 -19 -34 -47 51 -20 38 28 26 6 12 24 hvcurveto
            10 -7 29 -27 -45 vvcurveto
            -62 -48 -33 -57 -94 -71 81 77 -38 vhcurveto
            -11 -4 -16 -7 -22 vvcurveto
            -48 107 -158 152 94 57 57 80 20 -4 20 -8 20 vhcurveto
            -13 28 31 -6 32 hhcurveto
            15 19 3 4 17 hvcurveto
            -5 -54 -3 -58 -60 vvcurveto
            -59 15 -51 94 callsubr
            -3 -87 callgsubr
            return
          </CharString>
          <CharString index="42">
            -26 callgsubr
            -363 vlineto
            -56 21 -28 47 56 callsubr
            return
          </CharString>
          <CharString index="43">
            -1 -106 callsubr
            return
          </CharString>
          <CharString index="44">
            -6 -33 -3 -36 -20 callsubr
            -13 hvcurveto
            -76 callgsubr
          </CharString>
          <CharString index="45">
            -73 callgsubr
            64 hlineto
            2 return
          </CharString>
          <CharString index="46">
            rmoveto
            103 11 51 54 60 hhcurveto
            48 32 -43 -53 -34 -15 -10 -24 -2 hvcurveto
            36 -61 rmoveto
            79 2 31 29 65 vvcurveto
            85 -68 87 -108 -128 -115 -119 -169 -155 99 -88 141 96 75 56 47 14 -7 12 -10 5 vhcurveto
            -32 -32 -46 -24 -58 hhcurveto
            -88 -61 51 127 -2 hvcurveto
            endchar
          </CharString>
          <CharString index="47">
            1 4 10 vhcurveto
            return
          </CharString>
          <CharString index="48">
            rmoveto
            -57 callgsubr
            return
          </CharString>
          <CharString index="49">
            -75 callsubr
            160 -106 callgsubr
            return
          </CharString>
          <CharString index="50">
            55 1 callgsubr
            return
          </CharString>
          <CharString index="51">
            576 -35 callgsubr
            -66 -1 -59 -1 -56 vhcurveto
            -55 -40 -74 -22 -55 hhcurveto
            -69 -50 108 callgsubr
            return
          </CharString>
          <CharString index="52">
            hlineto
            37 -29 23 -51 -56 vvcurveto
            -60 -39 -55 -76 -1 vhcurveto
            return
          </CharString>
          <CharString index="53">
            22 callsubr
            -44 12 -42 vhcurveto
            endchar
          </CharString>
          <CharString index="54">
            89 callsubr
            -55 -1 -53 vhcurveto
            -65 -30 -57 53 callsubr
            return
          </CharString>
          <CharString index="55">
            rmoveto
            -160 83 -108 192 193 81 108 160 vhcurveto
            389 vlineto
            56 -22 27 153 callgsubr
            9 -14 -25 vvcurveto
            -404 vlineto
            -114 -59 -56 -111 -114 -57 59 111 vhcurveto
            403 279 callgsubr
            -21 -15 -20 -15 vhcurveto
            366 callgsubr
            return
          </CharString>
          <CharString index="56">
            -83 callsubr
            42 -43 25 -58 return
          </CharString>
          <CharString index="57">
            vvcurveto
            -113 134 -90 104 147 callsubr
            vhcurveto
            -72 -13 -68 -46 -70 hhcurveto
            -65 -55 41 callgsubr
            -21 19 vhcurveto
            186 -100 callgsubr
          </CharString>
          <CharString index="58">
            vhcurveto
            -326 80 rmoveto
            -85 callgsubr
            return
          </CharString>
          <CharString index="59">
            203 callgsubr
            -14 -24 -12 -29 -37 vvcurveto
            -44 return
          </CharString>
          <CharString index="60">
            -86 callgsubr
            176 -100 callgsubr
          </CharString>
          <CharString index="61">
            hhcurveto
            -94 -71 -49 -101 -45 callgsubr
            69 42 return
          </CharString>
          <CharString index="62">
            rmoveto
            148 -7 53 56 79 hhcurveto
            78 57 -56 -148 7 hvcurveto
            -146 7 -52 -58 -78 hhcurveto
            -78 -59 58 146 -7 hvcurveto
            377 hmoveto
            176 -113 90 -130 -130 -114 -88 -178 -176 114 -89 130 130 113 89 176 vhcurveto
            return
          </CharString>
          <CharString index="63">
            -9 -6 vvcurveto
            return
          </CharString>
          <CharString index="64">
            vhcurveto
            -9 15 -3 42 35 134 4 -16 callsubr
            160 142 callgsubr
            return
          </CharString>
          <CharString index="65">
            33 vlineto
            -65 callsubr
            219 vlineto
            91 22 63 50 57 hhcurveto
            60 25 -38 -59 hvcurveto
            -262 80 callsubr
            return
          </CharString>
          <CharString index="66">
            58 -39 callgsubr
            return
          </CharString>
          <CharString index="67">
            125 vvcurveto
            return
          </CharString>
          <CharString index="68">
            -16 callsubr
            160 -101 callgsubr
            return
          </CharString>
          <CharString index="69">
            -72 69 -31 callgsubr
            return
          </CharString>
          <CharString index="70">
            245 callsubr
            8 -13 3 -25 1 -33 rrcurveto
            -144 vlineto
            -81 96 -111 107 return
          </CharString>
          <CharString index="71">
            11 hvcurveto
            -4 -10 -12 -2 -11 hhcurveto
            return
          </CharString>
          <CharString index="72">
            rmoveto
            83 -81 rlineto
            -12 13 12 -4 10 hhcurveto
            16 11 7 11 4 hvcurveto
            -69 104 rlineto
            35 -23 -19 21 -38 hhcurveto
            -38 -19 -21 -35 -23 hvcurveto
            -69 -104 rlineto
            396 callgsubr
            14 hhcurveto
            11 12 4 12 12 hvcurveto
            return
          </CharString>
          <CharString index="73">
            34 vvcurveto
            42 -32 45 -43 -34 -24 -27 -33 -18 7 -16 9 -14 vhcurveto
            -11 -22 -25 -5 -27 hhcurveto
            -67 -68 36 72 hvcurveto
            156 279 423 callsubr
            142 -106 callgsubr
            return
          </CharString>
          <CharString index="74">
            55 31 14 22 19 14 hvcurveto
            -6 276 callgsubr
            17 35 38 -41 21 368 callsubr
            -25 hvcurveto
            -10 18 -6 19 21 vvcurveto
            49 24 33 25 19 vhcurveto
            -235 80 rmoveto
            58 callgsubr
            return
          </CharString>
          <CharString index="75">
            2 4 2 return
          </CharString>
          <CharString index="76">
            vvcurveto
            30 -5 32 -21 17 vhcurveto
            return
          </CharString>
          <CharString index="77">
            rmoveto
            -72 -70 -59 -81 -62 -64 38 73 83 71 36 65 35 vhcurveto
            87 -12 54 -55 -67 vvcurveto
            -429 404 -94 callsubr
            209 334 callgsubr
            -86 -238 -5 -177 vvcurveto
            -117 126 -97 112 110 90 70 108 81 -61 88 -111 19 vhcurveto
            30 21 21 26 37 vvcurveto
            31 -16 24 -20 19 89 callgsubr
          </CharString>
          <CharString index="78">
            4 4 vvcurveto
            35 -32 29 -44 return
          </CharString>
          <CharString index="79">
            -27 -25 -5 -24 161 callsubr
            28 -1 22 114 callgsubr
            -417 -50 callgsubr
            272 152 callsubr
            -22 -64 callgsubr
            return
          </CharString>
          <CharString index="80">
            57 208 callsubr
            -21 -16 -19 -15 vhcurveto
            18 -9 10 -14 -26 vvcurveto
            -263 vlineto
            -64 -24 -48 -35 -58 hhcurveto
            -72 -25 38 401 callsubr
            338 callsubr
            return
          </CharString>
          <CharString index="81">
            -22 callgsubr
            endchar
          </CharString>
          <CharString index="82">
            29 27 13 -3 352 callsubr
            -5 -15 -15 -2 -16 hhcurveto
            -74 -50 54 87 -34 hvcurveto
            return
          </CharString>
          <CharString index="83">
            -27 -6 7 -10 22 hhcurveto
            16 hlineto
            43 20 -16 -25 -30 -26 -18 -51 -51 -44 19 36 -29 hvcurveto
            -10 -7 -6 -11 -12 vvcurveto
            -39 62 -43 90 96 64 47 58 55 -51 27 -63 vhcurveto
            -4 -4 0 -4 hhcurveto
            return
          </CharString>
          <CharString index="84">
            -127 28 callsubr
            8 4 return
          </CharString>
          <CharString index="85">
            rmoveto
            -56 22 -28 46 29 20 257 callgsubr
            494 vlineto
            300 -473 rlineto
            -73 46 38 -31 48 hhcurveto
            32 21 12 17 13 hvcurveto
            -15 13 -6 15 26 vvcurveto
            574 160 callgsubr
            -508 vlineto
            -323 517 rlineto
            50 -32 -30 23 -48 hhcurveto
            -35 -21 -15 -20 -15 hvcurveto
            366 callgsubr
            return
          </CharString>
          <CharString index="86">
            -34 -22 -26 -23 vhcurveto
            3 25 1 25 154 callsubr
            return
          </CharString>
          <CharString index="87">
            -34 -17 callsubr
            return
          </CharString>
          <CharString index="88">
            rmoveto
            26 -25 27 6 9 21 -77 119 rcurveline
            47 -29 -23 18 -34 hhcurveto
            -45 -24 -39 -46 15 hvcurveto
            22 6 19 -2 23 -20 rrcurveto
            return
          </CharString>
          <CharString index="89">
            hhcurveto
            -102 -55 -57 -65 -49 36 -51 47 8 10 3 5 5 hvcurveto
            -13 13 -6 18 15 vvcurveto
            51 45 40 75 137 91 -88 -109 45 vhcurveto
            -119 166 callgsubr
            60 hlineto
            5 -27 3 -28 -27 -161 -4 -112 -114 122 callgsubr
            1 callgsubr
            136 5 133 128 vvcurveto
            return
          </CharString>
          <CharString index="90">
            -78 callsubr
            70 1 71 1 68 vhcurveto
            19 callsubr
            -12 0 2 return
          </CharString>
          <CharString index="91">
            128 117 callgsubr
            return
          </CharString>
          <CharString index="92">
            hlineto
            -2 -4 -1 -9 -6 vvcurveto
            -49 44 -12 41 vhcurveto
            65 -84 callgsubr
            return
          </CharString>
          <CharString index="93">
            576 265 callgsubr
            return
          </CharString>
          <CharString index="94">
            -54 167 callgsubr
            return
          </CharString>
          <CharString index="95">
            -54 -30 -61 -26 -46 -12 rrcurveto
            -38 3 30 -25 39 hhcurveto
            41 112 58 96 81 hvcurveto
            -6 -39 -1 -40 -39 -58 callgsubr
            73 1 71 1 70 vhcurveto
            51 33 50 37 54 417 callgsubr
            -48 -32 -46 -60 -8 hvcurveto
            -17 -4 -19 0 -22 3 rrcurveto
            -1 -5 -1 336 callgsubr
            38 -27 42 88 56 66 74 107 -96 98 -98 31 callgsubr
            -6 32 -20 -5 callgsubr
          </CharString>
          <CharString index="96">
            2 4 3 9 7 vvcurveto
            59 -61 0 -25 vhcurveto
            -260 hlineto
            -2 -3 -1 -44 callsubr
            -50 47 -11 37 20 25 3 5 24 vhcurveto
            -18 -20 -9 -25 -25 vvcurveto
            return
          </CharString>
          <CharString index="97">
            -44 callsubr
            -49 return
          </CharString>
          <CharString index="98">
            vhcurveto
            -10 40 callsubr
            return
          </CharString>
          <CharString index="99">
            hvcurveto
            99 1 -44 89 vvcurveto
            34 -1 -87 callgsubr
            return
          </CharString>
          <CharString index="100">
            124 callsubr
            -34 return
          </CharString>
          <CharString index="101">
            rmoveto
            31 27 7 24 23 vvcurveto
            39 -29 33 -57 vhcurveto
            -193 hlineto
            -42 -33 4 8 -25 hvcurveto
            -9 -10 -7 -14 -16 vvcurveto
            -35 35 -29 83 52 62 8 10 69 vhcurveto
            -256 -231 rlineto
            -41 -35 -13 -24 -31 vvcurveto
            -71 106 -55 126 134 45 58 40 26 -12 21 -22 12 vhcurveto
            -40 -27 -46 -25 -63 hhcurveto
            -64 -53 10 22 -46 hvcurveto
            endchar
          </CharString>
          <CharString index="102">
            -46 callsubr
            32 return
          </CharString>
          <CharString index="103">
            56 208 callsubr
            -22 -14 -20 -14 vhcurveto
            18 -9 10 -14 -26 vvcurveto
            -609 vlineto
            -56 21 -28 47 56 callsubr
            return
          </CharString>
          <CharString index="104">
            rmoveto
            58 -19 23 -104 -121 -39 -13 -36 -10 5 -17 8 -11 vhcurveto
            2 30 45 2 39 hhcurveto
            51 hlineto
            -1 -120 rlineto
            -69 -33 -51 -35 -82 hhcurveto
            -133 -79 100 173 hvcurveto
            195 1 95 115 147 hhcurveto
            88 46 -47 -65 -6 hvcurveto
            -8 15 16 -3 15 hhcurveto
            40 33 25 36 70 -89 63 -135 -232 -148 -167 -237 -218 147 -118 156 86 66 40 46 36 hvcurveto
            -95 vlineto
            -56 22 -27 46 29 21 14 21 280 callgsubr
            13 27 vvcurveto
            endchar
          </CharString>
          <CharString index="105">
            -101 callgsubr
            -85 hlineto
            -8 return
          </CharString>
          <CharString index="106">
            576 9 callsubr
            return
          </CharString>
          <CharString index="107">
            rmoveto
            275 callsubr
            -30 -37 248 callsubr
            -167 hmoveto
            275 callsubr
            -31 -36 248 callsubr
            return
          </CharString>
          <CharString index="108">
            76 82 -21 hvcurveto
            8 hlineto
            return
          </CharString>
          <CharString index="109">
            -17 1 -39 -36 return
          </CharString>
          <CharString index="110">
            18 callsubr
            -26 3 7 -28 98 callsubr
            return
          </CharString>
          <CharString index="111">
            120 callgsubr
            77 callsubr
            303 callsubr
            return
          </CharString>
          <CharString index="112">
            -72 63 -51 82 84 vvcurveto
            62 return
          </CharString>
          <CharString index="113">
            -5 callsubr
            71 return
          </CharString>
          <CharString index="114">
            52 44 41 68 hvcurveto
            38 hlineto
            -11 callsubr
            return
          </CharString>
          <CharString index="115">
            2 rrcurveto
            -76 callgsubr
          </CharString>
          <CharString index="116">
            rmoveto
            -107 callsubr
            return
          </CharString>
          <CharString index="117">
            80 84 callgsubr
            return
          </CharString>
          <CharString index="118">
            -36 184 callsubr
            -32 -5 -32 hhcurveto
            -64 95 callsubr
            202 -100 callsubr
          </CharString>
          <CharString index="119">
            -50 -4 callgsubr
            return
          </CharString>
          <CharString index="120">
            49 callgsubr
            -154 146 -113 136 36 22 14 23 4 -1 9 -2 4 415 callgsubr
            -111 -105 73 116 103 85 62 94 40 31 -12 -19 23 hvcurveto
            -55 -54 -74 -64 -65 -27 rrcurveto
            -29 8 23 -16 28 hhcurveto
            46 94 77 61 28 hvcurveto
            3 -10 2 -11 -12 -29 -1 -22 -28 vvcurveto
            -36 3 -61 59 6 9 1 3 8 vhcurveto
            -8 13 -3 37 30 21 1 18 20 vvcurveto
            111 -115 108 -125 -52 -46 -13 -24 -37 vhcurveto
            -15 17 -10 19 21 402 callgsubr
            56 vhcurveto
            58 51 -1 60 hhcurveto
            63 34 34 44 32 -17 31 -25 23 hvcurveto
            174 -100 callsubr
          </CharString>
          <CharString index="121">
            rmoveto
            -70 callgsubr
            return
          </CharString>
          <CharString index="122">
            -16 callsubr
            161 -106 callgsubr
            return
          </CharString>
          <CharString index="123">
            vvcurveto
            -61 56 -39 80 72 49 36 32 8 -3 7 -4 6 vhcurveto
            -16 -27 -26 -7 -27 hhcurveto
            -34 -27 13 32 return
          </CharString>
          <CharString index="124">
            85 callsubr
            12 return
          </CharString>
          <CharString index="125">
            rmoveto
            11 35 callgsubr
            return
          </CharString>
          <CharString index="126">
            59 30 48 37 51 hhcurveto
            48 43 -34 -53 -52 -39 -48 -67 -5 hvcurveto
            -11 return
          </CharString>
          <CharString index="127">
            221 callsubr
            18 19 vvcurveto
            80 return
          </CharString>
          <CharString index="128">
            rmoveto
            -122 387 rlineto
            54 -16 -23 25 -39 hhcurveto
            -27 -22 -12 -20 -16 hvcurveto
            19 -11 7 -19 9 -27 125 -372 rcurveline
            14 -44 32 -27 36 1 -35 -98 rcurveline
            -39 -14 -23 -17 -27 hhcurveto
            -20 -17 7 14 -13 hvcurveto
            -9 -12 -6 -15 -16 vvcurveto
            -37 30 -32 53 56 42 31 81 31 vhcurveto
            210 551 rlineto
            72 28 -38 41 -45 hhcurveto
            -19 -18 -6 -10 -14 hvcurveto
            14 -18 3 -24 -13 -36 rrcurveto
            endchar
          </CharString>
          <CharString index="129">
            4 3 -99 callgsubr
            return
          </CharString>
          <CharString index="130">
            hhcurveto
            -48 -43 34 53 return
          </CharString>
          <CharString index="131">
            576 rmoveto
            -51 callsubr
            return
          </CharString>
          <CharString index="132">
            rmoveto
            10 callgsubr
            -62 -1 -55 -51 vvcurveto
            -43 -32 -45 -23 -37 hhcurveto
            -49 -31 36 57 -38 callgsubr
            493 hmoveto
            -107 callsubr
            -41 vhcurveto
            -588 hlineto
            129 callgsubr
            70 1 69 1 67 vhcurveto
            58 31 51 38 55 hhcurveto
            35 32 -18 -37 12 hvcurveto
            18 -4 13 14 20 vvcurveto
            41 -58 56 -75 -51 -42 -22 -31 -28 vhcurveto
            3 24 2 25 36 vvcurveto
            30 -6 32 -20 17 vhcurveto
            endchar
          </CharString>
          <CharString index="133">
            hlineto
            10 callgsubr
            -70 -1 -58 -53 vvcurveto
            -56 -31 -48 182 callsubr
            12 138 callsubr
            return
          </CharString>
          <CharString index="134">
            656 14 callsubr
            return
          </CharString>
          <CharString index="135">
            110 -147 46 14 9 8 return
          </CharString>
          <CharString index="136">
            rmoveto
            12 hlineto
            126 30 29 26 8 -2 4 -4 6 hvcurveto
            -162 65 hlineto
            56 -23 28 -47 -27 325 callsubr
            10 -14 -26 vvcurveto
            -66 -11 vlineto
            -23 -16 2 2 -14 hvcurveto
            -10 -7 -5 -13 -13 vvcurveto
            -20 19 -23 60 -1 vhcurveto
            -311 vlineto
            -92 52 -45 87 93 65 51 46 19 -11 11 -11 2 vhcurveto
            -30 -30 -40 -21 -42 hhcurveto
            -41 -17 19 48 hvcurveto
            endchar
          </CharString>
          <CharString index="137">
            vvcurveto
            -41 4 -72 68 -77 callgsubr
            159 hlineto
            2 4 return
          </CharString>
          <CharString index="138">
            hvcurveto
            279 callsubr
            return
          </CharString>
          <CharString index="139">
            rrcurveto
            -96 33 62 -140 113 hhcurveto
            43 19 -25 callsubr
            2 hlineto
            116 98 76 132 98 -79 131 -107 -66 -40 -54 -59 -84 72 -63 49 12 12 6 11 6 hvcurveto
            -39 19 -31 43 40 vvcurveto
            38 21 30 36 50 28 -58 -59 -107 -71 -59 -94 337 callgsubr
            -29 54 -45 hhcurveto
            return
          </CharString>
          <CharString index="140">
            -6 53 callgsubr
            -85 hlineto
            -8 return
          </CharString>
          <CharString index="141">
            139 callgsubr
            -195 51 callsubr
            return
          </CharString>
          <CharString index="142">
            vhcurveto
            1 hlineto
            27 -28 20 -36 return
          </CharString>
          <CharString index="143">
            rmoveto
            14 21 8 22 18 vvcurveto
            31 -24 22 -39 -25 -20 -6 -9 -17 vhcurveto
            19 -20 1 -29 -24 -33 -147 -220 rcurveline
            -144 252 rlineto
            40 -23 -26 25 -38 hhcurveto
            -32 -29 -18 -40 -12 hvcurveto
            25 -1 19 -14 16 -24 183 -316 rcurveline
            -1 -238 rlineto
            -60 26 -28 39 25 17 7 10 15 vhcurveto
            -11 14 -6 24 23 vvcurveto
            1 250 rlineto
            endchar
          </CharString>
          <CharString index="144">
            rmoveto
            10 -17 2 -25 -73 vvcurveto
            -21 -6 -18 -10 -15 vhcurveto
            -119 92 -84 59 -60 18 rrcurveto
            29 -146 rmoveto
            23 -1 27 -2 13 vhcurveto
            -1 9 -1 9 -3 8 70 -41 79 -57 62 -47 rrcurveto
            -36 -50 -72 -10 -12 hhcurveto
            -49 -20 35 67 hvcurveto
            -232 226 121 callgsubr
            -16 -1 -18 -28 vvcurveto
            -53 36 -54 52 -32 vhcurveto
            -59 -18 -45 -27 -57 vvcurveto
            -97 142 -74 121 105 111 47 74 35 -29 24 -33 2 vhcurveto
            -70 -18 -88 -45 -91 hhcurveto
            -67 -75 27 45 hvcurveto
            103 363 -42 217 vvcurveto
            57 -2 51 -28 21 vhcurveto
            152 91 callgsubr
          </CharString>
          <CharString index="145">
            266 callsubr
            -428 -50 callgsubr
            283 152 callsubr
            -33 -64 callgsubr
            38 -14 32 return
          </CharString>
          <CharString index="146">
            660 -81 callsubr
            return
          </CharString>
          <CharString index="147">
            15 21 callgsubr
            -16 callsubr
            161 hlineto
            return
          </CharString>
          <CharString index="148">
            375 callsubr
            -74 125 -90 hhcurveto
            -26 -21 -10 -15 -15 hvcurveto
            18 -16 -29 6 -28 hhcurveto
            -328 224 callsubr
            239 callsubr
            30 -56 45 7 7 2 2 3 vhcurveto
            -13 18 -6 183 callgsubr
            -33 -1 -25 -1 -22 vhcurveto
            return
          </CharString>
          <CharString index="149">
            -1 -4 -2 -44 callsubr
            -48 43 -13 42 vhcurveto
            13 -16 10 -21 -21 vvcurveto
            -38 -25 -30 311 callgsubr
            -1 -18 -7 -26 vvcurveto
            333 callgsubr
            41 74 42 -20 35 -13 16 vhcurveto
            return
          </CharString>
          <CharString index="150">
            167 callsubr
            36 16 36 37 -40 22 -41 -28 return
          </CharString>
          <CharString index="151">
            265 callgsubr
            -592 hlineto
            -88 callgsubr
            47 -129 100 -63 365 callgsubr
            -73 4 rrcurveto
            -56 -10 40 -24 52 hhcurveto
            112 380 81 250 99 -61 100 -107 -96 callgsubr
            endchar
          </CharString>
          <CharString index="152">
            -52 callsubr
            endchar
          </CharString>
          <CharString index="153">
            hlineto
            10 callgsubr
            -61 -1 -54 -53 vvcurveto
            -65 -31 -56 -40 -61 hhcurveto
            -54 -49 37 60 54 42 198 callgsubr
            return
          </CharString>
          <CharString index="154">
            rmoveto
            -74 -65 -46 -70 -35 -32 10 17 -27 vhcurveto
            81 41 22 99 79 hhcurveto
            48 39 -36 -51 hvcurveto
            -399 -127 126 callgsubr
            -244 477 -94 callsubr
            401 hlineto
            14 -20 2 -33 -61 vvcurveto
            -47 -9 -30 -31 -23 -39 rrcurveto
            132 callsubr
            98 65 74 85 79 -60 83 -76 27 hvcurveto
            55 -4 46 -25 20 vhcurveto
            242 -26 callsubr
          </CharString>
          <CharString index="155">
            107 callsubr
            vvcurveto
            -65 -1 -58 -1 -54 vhcurveto
            -68 -49 -90 -25 -65 hhcurveto
            -58 -49 32 29 82 callgsubr
            return
          </CharString>
          <CharString index="156">
            -35 callgsubr
            -65 -1 -60 -1 -55 vhcurveto
            -56 -39 -75 -22 -54 hhcurveto
            -70 -50 108 callgsubr
            return
          </CharString>
          <CharString index="157">
            35 2 24 20 29 41 39 -55 61 hhcurveto
            54 46 41 49 27 -13 15 -18 4 hvcurveto
            -36 -3 -23 -19 -27 return
          </CharString>
          <CharString index="158">
            273 -94 callsubr
            return
          </CharString>
          <CharString index="159">
            rmoveto
            105 68 106 110 96 -53 89 -93 -105 -62 -109 -106 -99 51 -87 89 hvcurveto
            17 328 rmoveto
            47 26 -62 -64 -76 -33 -54 -42 -47 -28 61 66 73 32 56 45 hvcurveto
            -49 -602 rmoveto
            -10 -15 -18 -20 -8 -5 rrcurveto
            -24 14 20 -2 10 hhcurveto
            27 18 25 18 13 hvcurveto
            447 634 11 15 13 19 12 5 rlinecurve
            21 -14 -19 4 -11 hhcurveto
            -28 -21 -28 -13 -10 hvcurveto
            1 -699 rmoveto
            105 67 106 111 95 -52 90 -93 -106 -62 -111 -105 -99 51 -87 90 hvcurveto
            17 328 rmoveto
            46 26 -62 -65 -76 -32 -53 -42 -47 -29 61 66 73 32 56 46 hvcurveto
            endchar
          </CharString>
          <CharString index="160">
            -40 -61 hhcurveto
            -54 428 callsubr
            return
          </CharString>
          <CharString index="161">
            576 -59 callsubr
            return
          </CharString>
          <CharString index="162">
            93 callgsubr
            41 39 369 callgsubr
            -106 -113 -153 -83 -72 44 73 34 18 25 23 16 vhcurveto
            -8 18 21 -4 20 hhcurveto
            32 36 17 36 37 return
          </CharString>
          <CharString index="163">
            28 20 callgsubr
            return
          </CharString>
          <CharString index="164">
            106 callsubr
            -74 3 -63 1 221 callsubr
            18 19 vvcurveto
            80 -3 53 -29 22 vhcurveto
            return
          </CharString>
          <CharString index="165">
            185 callgsubr
            hvcurveto
            -21 callgsubr
            return
          </CharString>
          <CharString index="166">
            rcurveline
            -67 callsubr
            return
          </CharString>
          <CharString index="167">
            rmoveto
            326 callgsubr
            -51 88 vvcurveto
            return
          </CharString>
          <CharString index="168">
            -312 67 callgsubr
            return
          </CharString>
          <CharString index="169">
            vvcurveto
            -52 42 -37 48 -18 vhcurveto
            -101 26 54 -154 100 hhcurveto
            43 19 226 callsubr
            -11 hhcurveto
            -90 -34 1 callsubr
            50 47 20 36 return
          </CharString>
          <CharString index="170">
            56 -23 27 -46 -28 -22 -15 -20 -14 102 callsubr
            return
          </CharString>
          <CharString index="171">
            225 callgsubr
            -2 -79 -81 62 callgsubr
            return
          </CharString>
          <CharString index="172">
            7 11 1 4 10 vhcurveto
            -10 15 -2 -82 callsubr
            -42 vhcurveto
            endchar
          </CharString>
          <CharString index="173">
            -21 callgsubr
            57 65 -59 -47 43 hvcurveto
            return
          </CharString>
          <CharString index="174">
            111 callsubr
            34 -2 44 -28 20 vhcurveto
            return
          </CharString>
          <CharString index="175">
            rmoveto
            102 54 42 44 28 -26 15 -28 -12 -12 -2 -3 -8 hvcurveto
            -53 -23 -29 -47 -46 -23 29 53 vhcurveto
            3 -9 -12 2 -12 hhcurveto
            -28 -25 -15 -28 -44 54 -42 101 hvcurveto
            return
          </CharString>
          <CharString index="176">
            -2 rrcurveto
            2 5 0 -29 callsubr
            return
          </CharString>
          <CharString index="177">
            -39 -36 vvcurveto
            -46 0 -41 -1 -39 vhcurveto
            return
          </CharString>
          <CharString index="178">
            105 callsubr
            hvcurveto
            return
          </CharString>
          <CharString index="179">
            576 49 callsubr
            return
          </CharString>
          <CharString index="180">
            78 callgsubr
            -40 -54 24 -48 hhcurveto
            return
          </CharString>
          <CharString index="181">
            62 callsubr
            31 hvcurveto
            -27 54 60 -12 51 hhcurveto
            26 21 3 3 316 callsubr
            21 callgsubr
            -103 callsubr
          </CharString>
          <CharString index="182">
            -46 callgsubr
            484 hlineto
            37 -29 22 -51 -56 vvcurveto
            -60 -38 -55 -76 -1 vhcurveto
            -3 hlineto
            102 -28 -55 104 callgsubr
            80 hlineto
            3 -53 42 -38 48 -18 rrcurveto
            -101 26 53 -154 101 hhcurveto
            43 19 226 callsubr
            -11 hhcurveto
            -90 -34 76 82 -21 hvcurveto
            7 hlineto
            return
          </CharString>
          <CharString index="183">
            -94 callsubr
            489 386 callsubr
            -3 hlineto
            102 -29 -60 104 callgsubr
            85 hlineto
            3 -53 42 -37 48 -18 252 callsubr
            return
          </CharString>
          <CharString index="184">
            99 callgsubr
            vvcurveto
            return
          </CharString>
          <CharString index="185">
            100 callsubr
            vvcurveto
            return
          </CharString>
          <CharString index="186">
            200 callgsubr
            44 29 26 32 19 -10 19 -17 11 hvcurveto
            -16 -17 -21 220 callsubr
            -51 -48 vvcurveto
            -52 13 -51 284 callgsubr
            159 142 callgsubr
            return
          </CharString>
          <CharString index="187">
            vlineto
            -56 22 -28 46 56 callsubr
            return
          </CharString>
          <CharString index="188">
            -77 -95 -3 -71 hhcurveto
            -2 -3 -2 -9 -7 vvcurveto
            -36 26 -22 46 14 14 1 2 14 vhcurveto
            -16 -20 -10 -27 -31 vvcurveto
            -125 109 -144 46 159 callsubr
            return
          </CharString>
          <CharString index="189">
            -91 callsubr
            39 46 return
          </CharString>
          <CharString index="190">
            576 rmoveto
            10 callgsubr
            return
          </CharString>
          <CharString index="191">
            25 87 callsubr
            return
          </CharString>
          <CharString index="192">
            hhcurveto
            43 19 29 27 return
          </CharString>
          <CharString index="193">
            -41 -38 -73 -45 -85 hhcurveto
            -139 -89 89 190 198 108 97 105 85 38 -47 -62 -9 hvcurveto
            -8 15 16 -3 16 hhcurveto
            40 33 20 43 return
          </CharString>
          <CharString index="194">
            -49 -99 callsubr
            return
          </CharString>
          <CharString index="195">
            rmoveto
            24 18 -17 -40 3 hvcurveto
            -42 5 -16 -16 -26 hhcurveto
            -23 -19 16 42 -2 hvcurveto
            40 -5 18 17 23 hhcurveto
            5 return
          </CharString>
          <CharString index="196">
            207 callgsubr
            vvcurveto
            -60 -1 return
          </CharString>
          <CharString index="197">
            hhcurveto
            40 23 -23 -33 -55 -73 -29 -62 -28 -36 6 12 -19 hvcurveto
            46 return
          </CharString>
          <CharString index="198">
            -36 -23 -16 -27 -8 3 -7 3 -4 hvcurveto
            return
          </CharString>
          <CharString index="199">
            hlineto
            99 callsubr
            return
          </CharString>
          <CharString index="200">
            -91 48 -49 172 198 182 116 253 254 -182 117 -198 -88 -74 -13 -27 -76 vhcurveto
            14 -18 5 -25 -29 vvcurveto
            return
          </CharString>
          <CharString index="201">
            57 -74 callsubr
            return
          </CharString>
          <CharString index="202">
            -75 25 66 hvcurveto
            129 305 -47 122 vvcurveto
            24 -12 20 -14 14 vhcurveto
            return
          </CharString>
          <CharString index="203">
            rmoveto
            107 callsubr
            return
          </CharString>
          <CharString index="204">
            190 callgsubr
            20 259 callgsubr
            return
          </CharString>
          <CharString index="205">
            335 callgsubr
            22 23 vvcurveto
            251 callgsubr
            vhcurveto
            return
          </CharString>
          <CharString index="206">
            16 -12 10 -18 -16 vvcurveto
            -21 -15 -14 return
          </CharString>
          <CharString index="207">
            hlineto
            11 242 callgsubr
            return
          </CharString>
          <CharString index="208">
            66 43 26 hhcurveto
            45 109 -105 -13 12 hvcurveto
            return
          </CharString>
          <CharString index="209">
            vhcurveto
            18 169 callgsubr
            return
          </CharString>
          <CharString index="210">
            rmoveto
            35 -23 -19 21 -38 hhcurveto
            -38 -19 -21 -35 -23 hvcurveto
            -69 -104 rlineto
            396 callgsubr
            14 hhcurveto
            11 12 4 12 12 hvcurveto
            84 81 83 -81 rlineto
            -12 13 12 -4 10 hhcurveto
            16 11 7 11 4 hvcurveto
            endchar
          </CharString>
          <CharString index="211">
            576 rmoveto
            15 -38 5 -70 -45 vvcurveto
            -119 -29 -54 -57 -58 -22 52 62 -2 vhcurveto
            -2 40 1 127 callsubr
            return
          </CharString>
          <CharString index="212">
            14 8 8 9 4 return
          </CharString>
          <CharString index="213">
            355 callsubr
            -58 5 return
          </CharString>
          <CharString index="214">
            -2 -4 -1 138 callgsubr
            return
          </CharString>
          <CharString index="215">
            -51 -84 callsubr
            return
          </CharString>
          <CharString index="216">
            11 146 callgsubr
            return
          </CharString>
          <CharString index="217">
            hhcurveto
            -57 -48 33 55 31 14 22 19 14 hvcurveto
            -6 276 callgsubr
            17 35 38 -41 21 368 callsubr
            -25 hvcurveto
            -10 18 -6 19 21 vvcurveto
            49 24 33 25 19 vhcurveto
            return
          </CharString>
          <CharString index="218">
            8 10 -51 callgsubr
            return
          </CharString>
          <CharString index="219">
            22 18 43 callsubr
            return
          </CharString>
          <CharString index="220">
            5 -74 60 callgsubr
            return
          </CharString>
          <CharString index="221">
            154 callgsubr
            34 -50 46 11 callgsubr
            41 38 21 -29 -32 -107 -174 -18 -33 -59 vhcurveto
            51 -56 -80 44 -88 hhcurveto
            -88 -54 -43 -69 -89 callgsubr
            return
          </CharString>
          <CharString index="222">
            576 -7 callsubr
            return
          </CharString>
          <CharString index="223">
            22 -12 14 -21 -21 vvcurveto
            -19 -15 -16 -30 vhcurveto
            -34 -16 1 -26 hhcurveto
            return
          </CharString>
          <CharString index="224">
            305 callsubr
            13 -14 17 -13 vhcurveto
            return
          </CharString>
          <CharString index="225">
            55 143 callsubr
            -44 12 -42 vhcurveto
            endchar
          </CharString>
          <CharString index="226">
            145 callsubr
            -28 22 vhcurveto
            return
          </CharString>
          <CharString index="227">
            5 8 10 13 vvcurveto
            40 -144 126 return
          </CharString>
          <CharString index="228">
            vvcurveto
            34 -2 -87 callgsubr
            return
          </CharString>
          <CharString index="229">
            7 11 1 4 10 81 callgsubr
          </CharString>
          <CharString index="230">
            3 4 0 4 hhcurveto
            -53 -33 -60 -28 -52 -17 rrcurveto
            -38 10 30 -15 27 hhcurveto
            75 127 125 55 43 hvcurveto
            -7 -37 -3 -37 -37 vvcurveto
            -48 18 -41 50 4 17 1 4 7 vhcurveto
            -10 15 21 callgsubr
            -103 callsubr
          </CharString>
          <CharString index="231">
            -59 callsubr
            -70 hmoveto
            420 callgsubr
            return
          </CharString>
          <CharString index="232">
            212 callgsubr
            vlineto
            73 callsubr
            return
          </CharString>
          <CharString index="233">
            -51 -25 54 -72 hhcurveto
            -50 -46 -41 -48 -32 17 -12 15 -2 hvcurveto
            return
          </CharString>
          <CharString index="234">
            37 37 121 callsubr
            return
          </CharString>
          <CharString index="235">
            20 vhcurveto
            162 -100 callsubr
          </CharString>
          <CharString index="236">
            hhcurveto
            63 callgsubr
            return
          </CharString>
          <CharString index="237">
            -64 callsubr
            23 hlineto
            420 callgsubr
            return
          </CharString>
          <CharString index="238">
            47 207 callsubr
            return
          </CharString>
          <CharString index="239">
            51 -28 -58 30 -63 hhcurveto
            -98 -65 -74 -84 -97 89 -102 99 62 36 35 46 27 hvcurveto
            -51 29 58 -30 63 hhcurveto
            return
          </CharString>
          <CharString index="240">
            -50 22 callgsubr
            return
          </CharString>
          <CharString index="241">
            -243 386 -14 callsubr
            374 callgsubr
            76 hlineto
            37 -32 30 -52 -52 vvcurveto
            -23 -4 -23 -11 -17 vhcurveto
            29 -13 -26 16 -23 hhcurveto
            -28 -22 -19 -33 -59 58 -44 51 61 40 46 75 68 -32 71 -49 49 hvcurveto
            return
          </CharString>
          <CharString index="242">
            442 rmoveto
            30 -29 -36 19 -45 hhcurveto
            -96 callgsubr
            358 hlineto
            13 369 callsubr
            return
          </CharString>
          <CharString index="243">
            298 callgsubr
            -3 191 callgsubr
            return
          </CharString>
          <CharString index="244">
            13 42 27 4 43 hhcurveto
            147 122 -101 -194 -195 -122 -99 -147 -103 -11 22 40 hvcurveto
            return
          </CharString>
          <CharString index="245">
            -1 12 69 callsubr
            return
          </CharString>
          <CharString index="246">
            -46 -28 -22 -15 -20 return
          </CharString>
          <CharString index="247">
            -284 984 rmoveto
            170 callgsubr
            324 callsubr
            vhcurveto
            return
          </CharString>
          <CharString index="248">
            273 callgsubr
            -32 vvcurveto
            172 callgsubr
            hvcurveto
            endchar
          </CharString>
          <CharString index="249">
            7 212 callsubr
            return
          </CharString>
          <CharString index="250">
            197 callsubr
            344 callgsubr
            return
          </CharString>
          <CharString index="251">
            338 callgsubr
            -64 -1 return
          </CharString>
          <CharString index="252">
            168 callgsubr
            -3 53 return
          </CharString>
          <CharString index="253">
            vvcurveto
            -53 -38 -41 -65 -7 -6 1 1 -6 vhcurveto
            42 -12 -18 32 -37 hhcurveto
            -29 -18 -23 -27 -46 37 -31 45 -17 224 callgsubr
            -5 11 hvcurveto
            -6 -15 -17 -1 -15 hhcurveto
            -64 -48 234 callsubr
            return
          </CharString>
          <CharString index="254">
            111 64 64 56 38 -28 26 -34 2 return
          </CharString>
          <CharString index="255">
            -78 callsubr
            70 1 71 1 68 vhcurveto
            60 30 48 36 52 hhcurveto
            37 35 -19 -45 11 hvcurveto
            21 -6 14 15 19 vvcurveto
            45 -63 64 -78 268 callsubr
            vhcurveto
            194 callgsubr
            endchar
          </CharString>
          <CharString index="256">
            -45 callsubr
            endchar
          </CharString>
          <CharString index="257">
            129 callsubr
            65 62 -104 -66 32 hvcurveto
            return
          </CharString>
          <CharString index="258">
            rmoveto
            -2 -4 -2 -9 -6 vvcurveto
            -25 13 185 callsubr
            return
          </CharString>
          <CharString index="259">
            hlineto
            18 -13 12 -20 -16 vvcurveto
            -27 -26 -8 -28 vhcurveto
            -27 return
          </CharString>
          <CharString index="260">
            -88 -2 -75 -75 208 callgsubr
            return
          </CharString>
          <CharString index="261">
            26 -31 callsubr
            return
          </CharString>
          <CharString index="262">
            3 -61 hhcurveto
            149 -5 -71 130 -91 hhcurveto
            -57 -31 -43 -51 419 callgsubr
            8 6 2 2 4 hvcurveto
            102 callgsubr
            9 -71 -65 -28 -1 -22 399 callgsubr
            -8 -50 vvcurveto
            -43 57 -64 54 36 16 40 46 6 vhcurveto
            return
          </CharString>
          <CharString index="263">
            34 17 34 59 7 return
          </CharString>
          <CharString index="264">
            3 -62 1 rrcurveto
            13 0 13 14 262 callgsubr
            -14 0 -15 -1 -15 vhcurveto
            -40 -1 -47 -9 -50 vvcurveto
            -44 54 -63 52 37 18 32 54 8 vhcurveto
            return
          </CharString>
          <CharString index="265">
            576 18 callsubr
            return
          </CharString>
          <CharString index="266">
            178 callgsubr
            42 32 71 vhcurveto
            return
          </CharString>
          <CharString index="267">
            rmoveto
            -9 -21 -22 -4 -21 183 callsubr
            return
          </CharString>
          <CharString index="268">
            hhcurveto
            -41 -25 21 26 44 58 10 33 hvcurveto
            19 return
          </CharString>
          <CharString index="269">
            71 callgsubr
            -52 0 -48 -1 -43 vhcurveto
            -148 151 -61 64 -47 20 rrcurveto
            108 244 callgsubr
            13 -1 15 -6 16 vhcurveto
            73 -65 94 -95 51 -54 rrcurveto
            -36 -36 -48 -21 -45 hhcurveto
            return
          </CharString>
          <CharString index="270">
            230 callgsubr
            -44 12 -42 vhcurveto
            return
          </CharString>
          <CharString index="271">
            rmoveto
            25 1 24 3 22 6 rrcurveto
            -4 0 -4 -4 vvcurveto
            -86 -66 -50 -86 -46 -46 22 44 38 34 34 92 vhcurveto
            -438 506 rmoveto
            -64 callsubr
            436 210 callsubr
            return
          </CharString>
          <CharString index="272">
            -137 130 -138 55 105 callsubr
            return
          </CharString>
          <CharString index="273">
            53 -34 31 -45 -32 -27 -20 -26 -6 return
          </CharString>
          <CharString index="274">
            14 hvcurveto
            -5 168 callsubr
            return
          </CharString>
          <CharString index="275">
            17 18 -3 18 hhcurveto
            32 return
          </CharString>
          <CharString index="276">
            36 32 hvcurveto
            43 return
          </CharString>
          <CharString index="277">
            14 -17 6 -25 -26 vvcurveto
            -118 -106 -108 -153 -83 -73 44 73 34 18 25 23 16 vhcurveto
            -8 19 20 -4 21 hhcurveto
            32 36 17 36 37 -41 21 -41 -26 -25 -5 -11 -23 hvcurveto
            -10 20 -5 21 22 vvcurveto
            48 24 42 45 25 vhcurveto
            return
          </CharString>
          <CharString index="278">
            -56 22 198 callsubr
            return
          </CharString>
          <CharString index="279">
            hlineto
            314 callsubr
            return
          </CharString>
          <CharString index="280">
            201 -73 callgsubr
            269 hlineto
            17 callgsubr
            -47 0 -43 -1 -40 vhcurveto
            42 -72 -56 68 -85 hhcurveto
            -49 -35 -28 -41 -30 19 -22 24 -8 hvcurveto
            31 9 28 17 31 hhcurveto
            return
          </CharString>
          <CharString index="281">
            vhcurveto
            141 205 callgsubr
            return
          </CharString>
          <CharString index="282">
            -54 24 -48 -98 callsubr
            return
          </CharString>
          <CharString index="283">
            -94 callgsubr
            296 289 callgsubr
            return
          </CharString>
          <CharString index="284">
            36 386 656 151 callsubr
            vvcurveto
            -65 -2 -58 -1 return
          </CharString>
          <CharString index="285">
            42 73 66 -42 247 callgsubr
            return
          </CharString>
          <CharString index="286">
            24 vvcurveto
            65 -29 62 return
          </CharString>
          <CharString index="287">
            71 callgsubr
            -59 return
          </CharString>
          <CharString index="288">
            -6 -43 callgsubr
            -44 12 -42 vhcurveto
            endchar
          </CharString>
          <CharString index="289">
            -36 -51 23 callsubr
            52 39 48 67 5 hvcurveto
            11 1 return
          </CharString>
          <CharString index="290">
            hhcurveto
            -62 -54 37 258 callsubr
            return
          </CharString>
          <CharString index="291">
            -26 -28 -35 -16 4 -14 8 -14 vhcurveto
            -11 -27 return
          </CharString>
          <CharString index="292">
            -14 17 -13 vhcurveto
            26 251 callsubr
            return
          </CharString>
          <CharString index="293">
            227 callsubr
            -48 -42 -29 -50 -29 vhcurveto
            -30 22 -21 30 37 vvcurveto
            324 144 113 callgsubr
            -60 vlineto
            -35 -51 -66 -15 return
          </CharString>
          <CharString index="294">
            331 547 rmoveto
            42 -3 72 -69 -7 -11 -1 -4 -10 vhcurveto
            11 -17 1 -40 -35 -236 -5 -97 -124 vvcurveto
            -41 3 -72 69 7 11 -60 callsubr
            -10 15 -3 42 35 157 6 123 176 vvcurveto
            return
          </CharString>
          <CharString index="295">
            246 callsubr
            49 17 17 0 2 30 vhcurveto
            -21 -26 -8 -34 -29 vvcurveto
            -45 18 -43 27 -33 vhcurveto
            -25 -25 -17 -34 -42 vvcurveto
            -126 143 278 callgsubr
            108 159 return
          </CharString>
          <CharString index="296">
            84 55 65 72 105 -97 97 -95 -48 -21 callsubr
            return
          </CharString>
          <CharString index="297">
            -40 288 callsubr
            35 -2 43 -31 20 vhcurveto
            163 -100 callsubr
          </CharString>
          <CharString index="298">
            rmoveto
            32 21 23 30 39 363 callgsubr
            -39 35 -35 38 hvcurveto
            return
          </CharString>
          <CharString index="299">
            31 -22 23 -32 -37 -37 -37 -38 -30 22 -23 31 return
          </CharString>
          <CharString index="300">
            rmoveto
            119 -61 56 -89 -80 -67 -48 -70 -34 vhcurveto
            return
          </CharString>
          <CharString index="301">
            hvcurveto
            200 callgsubr
            return
          </CharString>
          <CharString index="302">
            273 -30 callgsubr
            return
          </CharString>
          <CharString index="303">
            62 -63 rmoveto
            -7 -20 -13 -27 -9 -8 rrcurveto
            -15 18 16 -2 9 hhcurveto
            42 18 47 20 6 hvcurveto
            342 982 6 18 10 27 13 9 rlinecurve
            12 -16 -15 4 -14 hhcurveto
            -41 -16 -47 -20 -7 hvcurveto
            endchar
          </CharString>
          <CharString index="304">
            7 11 1 4 10 vhcurveto
            -9 15 -3 268 callgsubr
            return
          </CharString>
          <CharString index="305">
            -28 47 28 21 162 callgsubr
            return
          </CharString>
          <CharString index="306">
            -5 -37 -3 -39 -28 vvcurveto
            -49 return
          </CharString>
          <CharString index="307">
            vhcurveto
            -14 -18 -7 -27 return
          </CharString>
          <CharString index="308">
            hlineto
            -1 -4 -2 -9 -7 vvcurveto
            -48 44 -12 42 372 callsubr
            -71 271 callgsubr
            -41 200 callsubr
            -59 96 -234 163 282 callgsubr
            return
          </CharString>
          <CharString index="309">
            31 -30 28 -28 return
          </CharString>
          <CharString index="310">
            -37 19 -45 hhcurveto
            -77 -52 -57 -67 -84 63 -55 49 10 11 6 7 6 hvcurveto
            -32 19 -23 38 42 vvcurveto
            42 22 44 53 52 27 -50 -48 -115 -104 -91 -135 -96 -87 49 83 -36 vhcurveto
            95 return
          </CharString>
          <CharString index="311">
            -1 -4 -2 144 callsubr
            -59 vhcurveto
            -57 14 -69 21 -60 30 rrcurveto
            39 37 29 44 295 callgsubr
            return
          </CharString>
          <CharString index="312">
            vlineto
            -67 -20 -29 -69 vhcurveto
            -36 14 27 -27 48 hhcurveto
            57 48 41 97 hvcurveto
            return
          </CharString>
          <CharString index="313">
            hhcurveto
            -94 -57 -40 -71 return
          </CharString>
          <CharString index="314">
            28 21 15 20 return
          </CharString>
          <CharString index="315">
            -22 28 -46 -28 return
          </CharString>
          <CharString index="316">
            hlineto
            286 callsubr
            65 27 21 -8 -6 15 31 callsubr
            42 -44 25 -58 return
          </CharString>
          <CharString index="317">
            226 callgsubr
            vvcurveto
            return
          </CharString>
          <CharString index="318">
            28 hhcurveto
            43 27 31 45 40 -19 return
          </CharString>
          <CharString index="319">
            215 callsubr
            1 return
          </CharString>
          <CharString index="320">
            57 47 19 28 35 return
          </CharString>
          <CharString index="321">
            hhcurveto
            -47 -35 -30 -36 -34 28 -18 12 -4 hvcurveto
            30 15 27 18 31 hhcurveto
            38 23 -29 -33 -42 -40 -47 -73 -108 -62 107 83 -33 hvcurveto
            -13 -18 -8 -26 -46 96 -189 163 return
          </CharString>
          <CharString index="322">
            206 callgsubr
            rrcurveto
            return
          </CharString>
          <CharString index="323">
            -34 vvcurveto
            -47 15 -48 55 5 16 1 4 7 -43 callsubr
            return
          </CharString>
          <CharString index="324">
            -31 callgsubr
            -44 12 -42 vhcurveto
            endchar
          </CharString>
          <CharString index="325">
            5 17 1 4 6 234 callgsubr
          </CharString>
          <CharString index="326">
            31 27 10 14 21 return
          </CharString>
          <CharString index="327">
            -5 -18 hhcurveto
            -51 -42 43 52 -28 hvcurveto
            -6 27 28 -3 28 hhcurveto
            96 76 53 85 30 -9 26 -14 22 hvcurveto
            -6 22 21 -2 19 hhcurveto
            35 30 10 12 20 hvcurveto
            -6 -49 -2 return
          </CharString>
          <CharString index="328">
            rrcurveto
            1 17 0 return
          </CharString>
          <CharString index="329">
            hhcurveto
            -51 -36 -28 -46 -49 42 -54 47 35 21 27 54 9 hvcurveto
            57 -13 52 -27 44 -44 rrcurveto
            -154 -65 -118 -58 -58 vvcurveto
            -46 62 -38 48 33 28 20 32 18 return
          </CharString>
          <CharString index="330">
            656 113 callgsubr
            return
          </CharString>
          <CharString index="331">
            15 callgsubr
            295 hlineto
            return
          </CharString>
          <CharString index="332">
            rmoveto
            -2 -4 -2 -10 callsubr
            45 -12 41 vhcurveto
            return
          </CharString>
          <CharString index="333">
            29 27 12 -3 13 -5 11 hvcurveto
            -4 -10 -12 -2 return
          </CharString>
          <CharString index="334">
            rmoveto
            53 38 32 41 37 27 -28 -40 return
          </CharString>
          <CharString index="335">
            45 46 17 34 29 return
          </CharString>
          <CharString index="336">
            hhcurveto
            378 callsubr
            hvcurveto
            343 callgsubr
            -44 12 -42 vhcurveto
            endchar
          </CharString>
          <CharString index="337">
            28 31 22 -12 20 -17 11 hvcurveto
            -14 -9 return
          </CharString>
          <CharString index="338">
            31 45 40 -19 40 -27 34 hvcurveto
            return
          </CharString>
          <CharString index="339">
            hlineto
            393 callsubr
            -60 -1 -54 -52 vvcurveto
            -67 -30 -57 -40 -61 hhcurveto
            -55 428 callsubr
            42 258 callgsubr
            2 12 10 vvcurveto
            return
          </CharString>
          <CharString index="340">
            102 callgsubr
            9 -71 -65 -33 -1 -25 -1 -22 vhcurveto
            -40 -2 -46 277 callsubr
            37 16 44 49 6 vhcurveto
            return
          </CharString>
          <CharString index="341">
            42 58 -27 hvcurveto
            -1 7 7 0 7 hhcurveto
            80 76 50 92 return
          </CharString>
          <CharString index="342">
            -51 -65 hhcurveto
            -52 37 -15 34 65 95 53 47 70 vhcurveto
            -8 -42 -4 -48 -48 vvcurveto
            -50 407 callsubr
            -3 42 35 vvcurveto
            return
          </CharString>
          <CharString index="343">
            136 callsubr
            51 46 20 36 32 hvcurveto
            -27 53 60 -12 return
          </CharString>
          <CharString index="344">
            -34 12 callsubr
            return
          </CharString>
          <CharString index="345">
            365 callsubr
            -43 240 callsubr
            return
          </CharString>
          <CharString index="346">
            -1 -4 281 callsubr
            -53 return
          </CharString>
          <CharString index="347">
            51 -21 22 hvcurveto
            return
          </CharString>
          <CharString index="348">
            -52 34 51 272 callgsubr
            -42 vhcurveto
            endchar
          </CharString>
          <CharString index="349">
            rmoveto
            4 13 -60 callgsubr
            -86 -71 -57 -82 -6 vhcurveto
            -45 4 -57 3 return
          </CharString>
          <CharString index="350">
            656 254 callsubr
            return
          </CharString>
          <CharString index="351">
            hmoveto
            -13 callgsubr
            -19 vhcurveto
            return
          </CharString>
          <CharString index="352">
            -64 callsubr
            25 hlineto
            return
          </CharString>
          <CharString index="353">
            -2 -4 -2 312 callgsubr
            return
          </CharString>
          <CharString index="354">
            vvcurveto
            -43 59 -39 47 32 27 19 32 return
          </CharString>
          <CharString index="355">
            -36 -35 -37 -30 21 -23 31 hvcurveto
            return
          </CharString>
          <CharString index="356">
            19 392 callgsubr
            return
          </CharString>
          <CharString index="357">
            -42 240 callsubr
            return
          </CharString>
          <CharString index="358">
            -18 8 -11 -72 return
          </CharString>
          <CharString index="359">
            rrcurveto
            -102 201 callgsubr
            101 136 callsubr
            return
          </CharString>
          <CharString index="360">
            -146 166 59 callsubr
            return
          </CharString>
          <CharString index="361">
            rmoveto
            40 -4 -103 224 -131 150 callsubr
            return
          </CharString>
          <CharString index="362">
            34 -24 27 -38 -42 -43 -41 -45 -34 24 -28 38 44 41 42 45 vhcurveto
            return
          </CharString>
          <CharString index="363">
            -54 291 callgsubr
            375 callgsubr
            return
          </CharString>
          <CharString index="364">
            274 callsubr
            vhcurveto
            return
          </CharString>
          <CharString index="365">
            66 139 callgsubr
            return
          </CharString>
          <CharString index="366">
            195 callgsubr
            -47 return
          </CharString>
          <CharString index="367" raw="1">
            670a3169 8c0abdf7 a71dc77f be1ba5a0
            0b   
          </CharString>
          <CharString index="368">
            hhcurveto
            -105 -80 -51 -108 -126 28 callsubr
            9 4 hvcurveto
            -60 63 -37 84 77 vvcurveto
            76 45 34 88 vhcurveto
            return
          </CharString>
          <CharString index="369">
            rmoveto
            -69 -60 -131 -98 -128 -30 rrcurveto
            -38 3 28 -25 35 hhcurveto
            85 203 154 59 17 -11 14 -15 7 hvcurveto
            endchar
          </CharString>
          <CharString index="370">
            rmoveto
            -70 -63 -139 -105 -136 -33 rrcurveto
            -38 3 28 -25 35 hhcurveto
            90 215 163 64 17 -11 13 -15 7 hvcurveto
            endchar
          </CharString>
          <CharString index="371">
            59 -62 44 -85 -147 -114 -123 -165 return
          </CharString>
          <CharString index="372">
            6 -54 -49 4 -46 hhcurveto
            return
          </CharString>
          <CharString index="373">
            -38 -24 -5 -25 161 callsubr
            39 -1 22 114 callgsubr
            return
          </CharString>
          <CharString index="374">
            -60 callsubr
            -9 15 -3 42 35 vvcurveto
            69 1 70 1 67 vhcurveto
            return
          </CharString>
          <CharString index="375">
            -47 -38 -20 -30 -27 return
          </CharString>
          <CharString index="376">
            -54 24 -49 hhcurveto
            -84 -67 -53 -99 -104 77 -98 37 13 7 6 8 4 hvcurveto
            -31 40 -21 54 55 vvcurveto
            63 32 53 66 return
          </CharString>
          <CharString index="377">
            29 hhcurveto
            42 28 31 45 40 -19 return
          </CharString>
          <CharString index="378">
            38 34 35 37 return
          </CharString>
          <CharString index="379">
            rmoveto
            -67 callsubr
            return
          </CharString>
          <CharString index="380">
            47 31 22 -4 22 -8 20 388 callsubr
            return
          </CharString>
          <CharString index="381">
            232 callgsubr
            71 return
          </CharString>
          <CharString index="382">
            271 callsubr
            30 -21 23 return
          </CharString>
          <CharString index="383">
            hhcurveto
            38 15 44 49 6 hvcurveto
            return
          </CharString>
          <CharString index="384">
            -9 -49 327 callgsubr
            return
          </CharString>
          <CharString index="385">
            hlineto
            326 callsubr
            return
          </CharString>
          <CharString index="386">
            5 8 3 12 10 vvcurveto
            return
          </CharString>
          <CharString index="387">
            -3 -11 -6 -17 vvcurveto
            return
          </CharString>
          <CharString index="388">
            0 -5 -4 vvcurveto
            return
          </CharString>
          <CharString index="389">
            3 5 -19 hvcurveto
            return
          </CharString>
          <CharString index="390">
            102 181 511 rmoveto
            41 26 37 44 42 23 -35 -36 -46 -30 -40 -42 -32 vhcurveto
            -38 31 -25 37 43 vvcurveto
            return
          </CharString>
          <CharString index="391">
            -29 -43 vvcurveto
            -61 -47 -34 -57 -100 -74 95 82 -38 vhcurveto
            -11 -3 -16 -8 -21 vvcurveto
            -52 110 -174 158 return
          </CharString>
          <CharString index="392">
            576 rmoveto
            304 callgsubr
            return
          </CharString>
          <CharString index="393">
            11 -53 callsubr
            41 46 return
          </CharString>
          <CharString index="394">
            413 callsubr
            47 159 callsubr
            return
          </CharString>
          <CharString index="395">
            -28 vvcurveto
            -49 13 -49 55 7 11 -60 callsubr
            -10 15 21 callgsubr
            -92 callsubr
            return
          </CharString>
          <CharString index="396">
            rmoveto
            -26 -17 -18 390 callgsubr
            23 31 return
          </CharString>
          <CharString index="397">
            -105 103 -104 110 return
          </CharString>
          <CharString index="398">
            hhcurveto
            -82 -49 -40 -68 return
          </CharString>
          <CharString index="399">
            -69 callgsubr
            69 1 70 1 67 vhcurveto
            return
          </CharString>
          <CharString index="400">
            101 callsubr
            14 6 404 callgsubr
            return
          </CharString>
          <CharString index="401">
            -13 -14 14 vhcurveto
            5 6 3 8 8 vvcurveto
            return
          </CharString>
          <CharString index="402">
            332 callgsubr
            15 -40 return
          </CharString>
          <CharString index="403">
            -48 13 -29 11 -43 vhcurveto
            endchar
          </CharString>
          <CharString index="404">
            hlineto
            11 -10 10 -13 -15 return
          </CharString>
          <CharString index="405">
            199 callsubr
            13 -49 54 1 callgsubr
            134 return
          </CharString>
          <CharString index="406">
            -22 14 -20 27 -10 hvcurveto
            380 callsubr
            13 5 8 10 return
          </CharString>
          <CharString index="407">
            121 callsubr
            160 -100 callgsubr
          </CharString>
          <CharString index="408">
            37 42 6 29 hhcurveto
            37 20 -21 -29 -52 -66 -26 -71 return
          </CharString>
          <CharString index="409">
            hhcurveto
            -55 -49 368 callgsubr
            return
          </CharString>
          <CharString index="410">
            -82 97 -110 106 return
          </CharString>
          <CharString index="411">
            135 131 -68 callgsubr
            return
          </CharString>
          <CharString index="412">
            -44 callsubr
            -25 return
          </CharString>
          <CharString index="413">
            290 218 160 callsubr
            return
          </CharString>
          <CharString index="414">
            hvcurveto
            99 2 -44 89 121 callsubr
            -70 hmoveto
            8 215 callsubr
            return
          </CharString>
          <CharString index="415">
            -38 -73 -79 -83 57 81 -59 hvcurveto
            -7 -2 -13 -8 -19 vvcurveto
            -50 132 -132 143 return
          </CharString>
          <CharString index="416">
            80 hhcurveto
            67 44 42 51 26 -12 17 -18 8 hvcurveto
            return
          </CharString>
          <CharString index="417">
            576 rmoveto
            315 callgsubr
            vvcurveto
            return
          </CharString>
          <CharString index="418">
            -41 -24 -14 -25 -18 hvcurveto
            return
          </CharString>
          <CharString index="419">
            -25 hvcurveto
            -10 17 -5 20 return
          </CharString>
          <CharString index="420">
            18 392 callgsubr
            return
          </CharString>
          <CharString index="421">
            134 callgsubr
            vvcurveto
            return
          </CharString>
          <CharString index="422">
            394 callsubr
            36 return
          </CharString>
          <CharString index="423">
            16 hvcurveto
            335 callsubr
            -50 208 callgsubr
            69 7 11 -60 callsubr
            -10 15 return
          </CharString>
          <CharString index="424">
            -2 -4 -1 -9 -7 vvcurveto
            -48 44 -12 41 35 callsubr
            -37 vvcurveto
            -39 return
          </CharString>
          <CharString index="425">
            199 callgsubr
            -66 -1 -59 -1 -55 vhcurveto
            -13 -26 -17 -21 -20 -16 return
          </CharString>
          <CharString index="426">
            -105 95 -97 98 53 34 21 30 23 vhcurveto
            -6 -33 -3 -35 -34 vvcurveto
            -46 13 -48 return
          </CharString>
          <CharString index="427">
            hhcurveto
            268 callsubr
            379 callgsubr
            return
          </CharString>
          <CharString index="428">
            -3 18 hhcurveto
            32 37 16 36 37 -41 22 -40 return
          </CharString>
          <CharString index="429">
            vvcurveto
            44 27 23 28 43 16 -40 -35 4 vhcurveto
            return
          </CharString>
          <CharString index="430">
            hlineto
            13 419 callsubr
            -19 -1 -20 -19 vvcurveto
            return
          </CharString>
          <CharString index="431">
            vvcurveto
            102 -47 201 -118 return
          </CharString>
          <CharString index="432">
            -22 -15 -20 -14 vhcurveto
            18 -8 return
          </CharString>
          <CharString index="433">
            11 -10 4 -11 -12 return
          </CharString>
          <CharString index="434">
            25 24 3 8 21 return
          </CharString>
          <CharString index="435">
            245 callsubr
            8 -13 3 -27 1 return
          </CharString>
          <CharString index="436">
            -66 -54 -145 -98 -108 -23 rlinecurve
            -38 4 30 -27 39 hhcurveto
            49 113 return
          </CharString>
          <CharString index="437">
            -17 31 18 14 8 13 10 vhcurveto
            -12 5 -6 7 16 vvcurveto
            328 vlineto
            33 return
          </CharString>
          <CharString index="438">
            20 vhcurveto
            159 -100 callsubr
          </CharString>
          <CharString index="439">
            418 callsubr
            1 -39 -36 return
          </CharString>
          <CharString index="440">
            14 419 callsubr
            vvcurveto
            return
          </CharString>
          <CharString index="441">
            hlineto
            10 -8 7 -9 -11 return
          </CharString>
          <CharString index="442">
            -1 -53 -1 -50 return
          </CharString>
          <CharString index="443">
            0 -42 -1 -40 return
          </CharString>
          <CharString index="444">
            -30 11 -35 hhcurveto
            return
          </CharString>
          <CharString index="445">
            vlineto
            -26 callgsubr
            return
          </CharString>
          <CharString index="446">
            355 callsubr
            -59 5 return
          </CharString>
          <CharString index="447">
            414 callsubr
            21 6 rrcurveto
            -90 7 -66 -58 -92 hhcurveto
            -46 return
          </CharString>
          <CharString index="448">
            44 hhcurveto
            71 callsubr
            5 callsubr
            33 53 return
          </CharString>
          <CharString index="449">
            -25 40 53 hvcurveto
            99 2 -44 89 121 callsubr
            -70 hmoveto
            return
          </CharString>
          <CharString index="450">
            -13 -21 -13 -27 -33 vvcurveto
            -40 25 -35 38 46 12 43 29 17 -3 17 return
          </CharString>
          <CharString index="451">
            302 callsubr
            68 hvcurveto
            return
          </CharString>
          <CharString index="452">
            hvcurveto
            -13 17 -8 18 return
          </CharString>
          <CharString index="453">
            41 63 29 12 27 return
          </CharString>
          <CharString index="454">
            9 8 8 4 return
          </CharString>
          <CharString index="455">
            -68 -165 60 -77 hhcurveto
            -67 -44 -42 -52 -27 12 -18 18 -5 hvcurveto
            return
          </CharString>
          <CharString index="456">
            -46 callgsubr
            489 hlineto
            return
          </CharString>
          <CharString index="457">
            136 617 rmoveto
            -29 -67 0 -65 -8 3 -11 2 -4 hvcurveto
            100 return
          </CharString>
          <CharString index="458">
            3 7 -27 hvcurveto
            8 19 259 callgsubr
            -43 47 vhcurveto
            return
          </CharString>
          <CharString index="459">
            13 -6 11 hvcurveto
            return
          </CharString>
          <CharString index="460">
            78 callsubr
            -54 vlineto
            265 callsubr
            return
          </CharString>
          <CharString index="461">
            vvcurveto
            80 -2 53 -29 22 vhcurveto
            -71 hmoveto
            333 callsubr
            return
          </CharString>
          <CharString index="462">
            576 rmoveto
            109 callsubr
            return
          </CharString>
          <CharString index="463">
            -29 callgsubr
            42 -43 25 return
          </CharString>
          <CharString index="464">
            375 callsubr
            -73 125 -90 hhcurveto
            return
          </CharString>
          <CharString index="465">
            hlineto
            142 callsubr
            return
          </CharString>
          <CharString index="466">
            427 rmoveto
            265 callsubr
            return
          </CharString>
          <CharString index="467">
            -6 rrcurveto
            -42 1 29 -24 43 hhcurveto
            34 return
          </CharString>
          <CharString index="468">
            83 hvcurveto
            228 callgsubr
            return
          </CharString>
          <CharString index="469">
            hhcurveto
            -89 -35 1 callsubr
            return
          </CharString>
          <CharString index="470">
            hlineto
            28 67 0 68 6 -1 return
          </CharString>
          <CharString index="471">
            -9 3 -10 2 -5 hvcurveto
            return
          </CharString>
          <CharString index="472">
            hhcurveto
            418 callgsubr
            return
          </CharString>
          <CharString index="473">
            -38 -54 -60 -44 24 -40 return
          </CharString>
          <CharString index="474">
            49 51 18 37 32 return
          </CharString>
          <CharString index="475">
            -40 376 callgsubr
            return
          </CharString>
          <CharString index="476">
            -15 2 -43 -37 vvcurveto
            return
          </CharString>
          <CharString index="477">
            -1 callsubr
            -41 vhcurveto
            return
          </CharString>
          <CharString index="478">
            127 callgsubr
            -2 53 -29 22 vhcurveto
            return
          </CharString>
          <CharString index="479">
            35 callsubr
            -37 vvcurveto
            -39 -26 -31 -45 -87 return
          </CharString>
          <CharString index="480">
            76 -165 176 -50 -16 -12 -14 -7 -2 vhcurveto
            88 -107 return
          </CharString>
          <CharString index="481">
            40 27 28 30 4 hvcurveto
            -44 12 -24 43 45 vvcurveto
            endchar
          </CharString>
          <CharString index="482">
            rrcurveto
            165 -4 return
          </CharString>
          <CharString index="483">
            hvcurveto
            -1 -88 -2 return
          </CharString>
          <CharString index="484">
            -71 -31 -80 -23 -68 -10 rrcurveto
            -40 2 28 -28 45 hhcurveto
            return
          </CharString>
          <CharString index="485">
            163 119 111 164 75 -37 76 -62 28 return
          </CharString>
          <CharString index="486">
            81 -81 62 -72 -49 -31 -30 -34 -25 18 -26 33 -3 return
          </CharString>
          <CharString index="487">
            75 71 66 43 26 hhcurveto
            44 109 -105 -13 13 hvcurveto
            return
          </CharString>
          <CharString index="488">
            85 92 97 hvcurveto
            -6 -38 -2 -40 -38 vvcurveto
            -50 14 -52 return
          </CharString>
          <CharString index="489">
            60 callsubr
            14 -2 return
          </CharString>
          <CharString index="490">
            25 25 25 13 rrcurveto
            21 -4 -15 8 -15 hhcurveto
            -20 -20 return
          </CharString>
          <CharString index="491">
            -39 -36 -62 -1 -56 -52 vvcurveto
            -78 -31 -64 -32 -55 hhcurveto
            return
          </CharString>
          <CharString index="492">
            hvcurveto
            4 323 callgsubr
            return
          </CharString>
          <CharString index="493">
            hlineto
            38 145 callgsubr
            return
          </CharString>
          <CharString index="494">
            vvcurveto
            -76 116 348 callgsubr
            return
          </CharString>
          <CharString index="495">
            vhcurveto
            36 19 35 20 36 hhcurveto
            24 return
          </CharString>
          <CharString index="496">
            vvcurveto
            -108 127 -105 131 return
          </CharString>
          <CharString index="497">
            hlineto
            8 -12 3 -26 -32 vvcurveto
            1 return
          </CharString>
          <CharString index="498">
            1 5 10 vhcurveto
            -9 14 -3 42 return
          </CharString>
          <CharString index="499">
            -4 -33 -32 vvcurveto
            -47 return
          </CharString>
          <CharString index="500">
            10 207 callgsubr
            return
          </CharString>
          <CharString index="501">
            56 47 19 28 return
          </CharString>
          <CharString index="502">
            vvcurveto
            -47 57 -69 return
          </CharString>
          <CharString index="503">
            -314 162 388 callgsubr
            return
          </CharString>
          <CharString index="504">
            61 -55 45 -70 10 vhcurveto
            57 14 46 37 43 vvcurveto
            return
          </CharString>
          <CharString index="505">
            -25 15 -34 -34 vvcurveto
            -30 -15 -30 -30 -23 vhcurveto
            11 return
          </CharString>
          <CharString index="506">
            393 callsubr
            vvcurveto
            return
          </CharString>
          <CharString index="507">
            -8 -28 vhcurveto
            -27 -22 1 return
          </CharString>
          <CharString index="508">
            59 hvcurveto
            264 return
          </CharString>
          <CharString index="509">
            hvcurveto
            4 28 1 return
          </CharString>
          <CharString index="510">
            -9 39 hhcurveto
            28 27 6 9 23 hvcurveto
            -65 38 return
          </CharString>
          <CharString index="511">
            82 84 vvcurveto
            62 32 53 66 32 26 -15 -18 return
          </CharString>
          <CharString index="512">
            10 -2 vhcurveto
            17 26 26 10 33 hhcurveto
            35 34 return
          </CharString>
          <CharString index="513">
            40 48 vvcurveto
            91 -84 80 -85 -75 -55 -50 -71 return
          </CharString>
          <CharString index="514">
            13 -51 58 7 11 -60 callsubr
            -10 15 return
          </CharString>
          <CharString index="515">
            206 callsubr
            105 callgsubr
            return
          </CharString>
          <CharString index="516">
            rlineto
            -2 4 9 -2 7 hhcurveto
            58 8 56 35 return
          </CharString>
          <CharString index="517">
            20 14 vhcurveto
            -18 9 -9 13 27 vvcurveto
            endchar
          </CharString>
          <CharString index="518">
            39 hvcurveto
            28 27 -1 25 hhcurveto
            return
          </CharString>
          <CharString index="519">
            15 20 15 vhcurveto
            -19 8 -8 return
          </CharString>
          <CharString index="520">
            vvcurveto
            -127 110 -147 return
          </CharString>
          <CharString index="521">
            150 rmoveto
            25 1 24 3 return
          </CharString>
          <CharString index="522">
            -9 -3 -11 -12 vvcurveto
            return
          </CharString>
          <CharString index="523">
            rmoveto
            -28 -68 0 -65 return
          </CharString>
          <CharString index="524">
            -48 -20 20 49 hvcurveto
            return
          </CharString>
          <CharString index="525">
            576 rmoveto
            12 -17 return
          </CharString>
          <CharString index="526">
            -18 1 -48 -84 return
          </CharString>
          <CharString index="527">
            53 -53 34 -70 -70 -58 -35 -25 -10 7 return
          </CharString>
          <CharString index="528">
            17 36 45 vvcurveto
            47 -20 44 -29 34 vhcurveto
            return
          </CharString>
          <CharString index="529">
            hlineto
            239 callsubr
            31 -56 return
          </CharString>
          <CharString index="530">
            -34 131 vvcurveto
            26 -13 24 -15 16 vhcurveto
            return
          </CharString>
          <CharString index="531">
            -30 -20 -7 4 -5 7 -3 vhcurveto
            10 16 return
          </CharString>
          <CharString index="532">
            17 callgsubr
            -74 -1 -64 -1 return
          </CharString>
          <CharString index="533">
            -49 -104 -48 13 -29 306 callgsubr
          </CharString>
          <CharString index="534">
            -8 -6 14 hvcurveto
            return
          </CharString>
          <CharString index="535">
            -48 37 60 54 return
          </CharString>
        <CharString name=".notdef">
          164 171 hmoveto
          410 701 -410 hlineto
          66 -61 rmoveto
          279 -579 -279 hlineto
          endchar
        </CharString>
        <CharString name="A">
          91 223 232 -80 callgsubr
        </CharString>
        <CharString name="AE">
          403 257 254 rmoveto
          184 376 rlineto
          -376 vlineto
          167 -169 rmoveto
          -45 -17 17 41 hvcurveto
          192 182 vlineto
          41 30 -3 -11 25 hvcurveto
          15 10 12 16 23 vvcurveto
          37 -33 13 -82 vhcurveto
          -190 217 259 hlineto
          43 29 -6 -18 24 hvcurveto
          19 9 12 17 23 vvcurveto
          38 -33 23 -81 vhcurveto
          -358 hlineto
          -52 -31 -23 -45 -23 hvcurveto
          -287 -567 -16 -31 -14 -16 -20 -7 rlinecurve
          -23 14 26 -16 30 hhcurveto
          30 20 15 44 22 hvcurveto
          56 114 rlineto
          226 -35 hlineto
          -91 51 -42 109 vhcurveto
          215 hlineto
          83 33 32 42 21 -12 22 -19 9 hvcurveto
          -28 -23 -30 -13 -43 hhcurveto
          endchar
        </CharString>
        <CharString name="Aacute">
          91 450 871 -81 callsubr
          -129 -562 -80 callgsubr
        </CharString>
        <CharString name="Abreve">
          91 342 792 68 callsubr
          -119 -560 -80 callgsubr
        </CharString>
        <CharString name="Acircumflex">
          91 342 877 -35 callsubr
          -35 -564 -80 callgsubr
        </CharString>
        <CharString name="Adieresis">
          91 415 795 0 callsubr
          -25 -563 -80 callgsubr
        </CharString>
        <CharString name="Agrave">
          91 330 796 -19 callsubr
          -16 -649 -80 callgsubr
        </CharString>
        <CharString name="Amacron">
          91 460 819 rmoveto
          92 callgsubr
          -288 hlineto
          91 callsubr
          51 -587 -80 callgsubr
        </CharString>
        <CharString name="Aogonek">
          91 223 232 rmoveto
          112 333 117 -333 rlineto
          210 -201 rmoveto
          -22 9 -14 19 -13 33 -209 558 rcurveline
          53 -20 -17 28 -45 hhcurveto
          -28 -22 -13 -19 -14 hvcurveto
          14 -11 10 -14 7 -21 -223 -573 rcurveline
          -12 -30 -9 -15 -19 -7 rrcurveto
          -22 7 29 -15 29 hhcurveto
          33 24 19 54 18 hvcurveto
          33 97 rlineto
          278 hlineto
          35 -98 9 -28 11 -19 14 -11 rlinecurve
          -54 -26 -38 -40 -48 16 callsubr
          hvcurveto
          74 101 17 25 vvcurveto
          3 -2 2 -3 3 vhcurveto
          endchar
        </CharString>
        <CharString name="Aring">
          91 337 928 88 callsubr
          -148 rmoveto
          56 50 30 61 59 -50 31 -56 -57 -50 -30 -60 -61 50 -30 57 hvcurveto
          -119 -548 -80 callgsubr
        </CharString>
        <CharString name="Atilde">
          91 218 803 rmoveto
          50 callsubr
          126 callsubr
          5 -571 -80 callgsubr
        </CharString>
        <CharString name="B">
          134 402 329 rmoveto
          103 55 -47 -80 -77 -55 -49 -103 hvcurveto
          -129 hlineto
          -51 -17 16 52 hvcurveto
          185 vlineto
          153 318 rmoveto
          106 49 -52 -68 -74 -49 -49 -106 hvcurveto
          -153 hlineto
          2 243 rlineto
          -51 76 rmoveto
          -42 -24 -14 -25 -18 hvcurveto
          249 callsubr
          -1 -492 rlineto
          -106 42 -38 122 vhcurveto
          139 hlineto
          175 94 90 109 88 -75 75 -107 16 hvcurveto
          80 21 55 53 85 vvcurveto
          100 -82 86 -178 vhcurveto
          endchar
        </CharString>
        <CharString name="C">
          106 624 603 rmoveto
          245 callgsubr
          -220 128 -136 185 146 102 88 52 28 -17 11 -7 2 vhcurveto
          86 callsubr
          hvcurveto
          endchar
        </CharString>
        <CharString name="CR">
          -315 endchar
        </CharString>
        <CharString name="Cacute">
          106 624 603 rmoveto
          245 callgsubr
          -220 128 -136 185 146 102 88 52 28 -17 11 -7 2 vhcurveto
          86 callsubr
          hvcurveto
          -168 268 -81 callsubr
          endchar
        </CharString>
        <CharString name="Ccaron">
          106 498 941 -69 callsubr
          172 -664 rmoveto
          86 callsubr
          245 callgsubr
          -220 128 -136 185 146 102 88 52 28 -17 11 -7 2 hvcurveto
          endchar
        </CharString>
        <CharString name="Ccedilla">
          106 297 -70 rmoveto
          -24 callsubr
          13 57 rlineto
          144 2 100 86 52 vvcurveto
          28 -17 11 -7 2 vhcurveto
          86 callsubr
          245 callgsubr
          -193 99 -129 149 -28 hvcurveto
          endchar
        </CharString>
        <CharString name="D">
          156 99 131 rmoveto
          93 callsubr
          107 19 rmoveto
          137 callsubr
          endchar
        </CharString>
        <CharString name="Dcaron">
          156 522 931 -69 callsubr
          -246 -188 rmoveto
          137 callsubr
          -106 3 rmoveto
          93 callsubr
          endchar
        </CharString>
        <CharString name="Dcroat">
          156 206 329 rmoveto
          101 161 callgsubr
          -154 hlineto
          1 247 rlineto
          137 callsubr
          -105 263 rmoveto
          -28 hlineto
          91 callsubr
          80 -198 hlineto
          93 callsubr
          endchar
        </CharString>
        <CharString name="E">
          73 285 85 -79 callgsubr
        </CharString>
        <CharString name="Eacute">
          73 448 871 -81 callsubr
          -65 -709 -79 callgsubr
        </CharString>
        <CharString name="Ecaron">
          73 489 941 -69 callsubr
          -135 -751 -79 callgsubr
        </CharString>
        <CharString name="Ecircumflex">
          73 340 877 -35 callsubr
          29 -711 -79 callgsubr
        </CharString>
        <CharString name="Edieresis">
          73 414 795 0 callsubr
          38 -710 -79 callgsubr
        </CharString>
        <CharString name="Edotaccent">
          73 330 811 rmoveto
          39 36 35 39 192 callsubr
          hvcurveto
          -45 -726 -79 callgsubr
        </CharString>
        <CharString name="Egrave">
          73 328 796 -19 callsubr
          48 -796 -79 callgsubr
        </CharString>
        <CharString name="Emacron">
          73 458 819 rmoveto
          92 callgsubr
          -288 hlineto
          91 callsubr
          115 -734 -79 callgsubr
        </CharString>
        <CharString name="Eogonek">
          73 285 85 rmoveto
          417 callsubr
          181 181 vlineto
          42 30 -3 -11 24 hvcurveto
          16 10 11 16 23 vvcurveto
          37 -32 13 -82 vhcurveto
          -190 217 259 hlineto
          42 30 -6 -18 24 hvcurveto
          18 9 12 17 23 vvcurveto
          38 -33 23 -81 vhcurveto
          -321 hlineto
          311 callsubr
          249 callsubr
          -490 vlineto
          -104 53 -42 110 vhcurveto
          157 hlineto
          -41 -25 -27 -35 -41 16 callsubr
          66 81 21 17 21 hvcurveto
          21 14 10 19 23 vvcurveto
          21 -12 22 -18 9 vhcurveto
          -28 -24 -30 -13 -42 hhcurveto
          endchar
        </CharString>
        <CharString name="Eth">
          188 206 329 rmoveto
          124 hlineto
          33 45 7 44 6 -1 8 -2 3 hvcurveto
          -199 hlineto
          1 241 rlineto
          137 callsubr
          -105 269 rmoveto
          -8 hlineto
          -33 -46 -7 -44 -6 2 -8 2 -3 hvcurveto
          82 -198 hlineto
          93 callsubr
          endchar
        </CharString>
        <CharString name="Euro">
          128 418 253 rmoveto
          33 45 6 46 5 -2 8 -2 3 hvcurveto
          -254 hlineto
          -1 13 -1 14 15 vvcurveto
          12 0 12 1 11 vhcurveto
          181 hlineto
          33 45 7 45 6 -2 7 -2 3 hvcurveto
          -245 hlineto
          129 30 85 65 85 hhcurveto
          85 36 -47 -53 -8 hvcurveto
          -8 15 17 -3 15 hhcurveto
          39 34 20 41 68 -95 53 -123 -160 -123 -99 -166 -40 hvcurveto
          -19 hlineto
          -33 -46 -6 -44 -7 2 -7 2 -4 hvcurveto
          83 hlineto
          -1 -17 -1 -17 -17 vvcurveto
          -9 0 -8 1 -9 vhcurveto
          -7 hlineto
          -33 -46 -7 -43 -7 2 -7 2 -4 hvcurveto
          89 hlineto
          -164 31 113 -98 152 hhcurveto
          147 102 88 52 28 -17 11 -7 2 hvcurveto
          -41 -38 -75 -48 -86 hhcurveto
          -104 -76 55 115 -28 hvcurveto
          endchar
        </CharString>
        <CharString name="F">
          37 167 723 rmoveto
          311 callsubr
          249 callsubr
          -560 vlineto
          -56 22 -29 46 28 21 412 callsubr
          15 25 vvcurveto
          262 181 vlineto
          42 30 -2 -11 24 hvcurveto
          16 10 11 15 20 vvcurveto
          35 -32 12 -82 vhcurveto
          -190 226 259 hlineto
          42 30 -6 -17 24 hvcurveto
          18 9 12 17 23 vvcurveto
          33 -28 23 -82 vhcurveto
          endchar
        </CharString>
        <CharString name="G">
          148 662 303 -3 callsubr
        </CharString>
        <CharString name="Gbreve">
          148 422 792 68 callsubr
          240 -489 -3 callsubr
        </CharString>
        <CharString name="H">
          189 676 648 rmoveto
          56 -22 27 -47 -28 -22 -15 -20 -13 102 callsubr
          -249 -366 248 vlineto
          -41 callgsubr
          252 366 -251 vlineto
          -56 21 -28 47 28 21 257 callgsubr
          endchar
        </CharString>
        <CharString name="I">
          -281 205 648 rmoveto
          -41 callgsubr
          endchar
        </CharString>
        <CharString name="Iacute">
          -281 261 871 -81 callsubr
          42 -146 rmoveto
          -41 callgsubr
          endchar
        </CharString>
        <CharString name="Icircumflex">
          -281 205 648 rmoveto
          -41 callgsubr
          28 828 103 callsubr
        </CharString>
        <CharString name="Idieresis">
          -281 298 867 18 callgsubr
          74 -219 rmoveto
          -41 callgsubr
          endchar
        </CharString>
        <CharString name="Idotaccent">
          -281 218 885 rmoveto
          192 callsubr
          39 36 35 39 vhcurveto
          -13 -237 rmoveto
          -41 callgsubr
          endchar
        </CharString>
        <CharString name="Igrave">
          -281 141 796 -19 callsubr
          155 -233 rmoveto
          -41 callgsubr
          endchar
        </CharString>
        <CharString name="Imacron">
          -281 36 881 56 callgsubr
          -119 -233 rmoveto
          -41 callgsubr
          endchar
        </CharString>
        <CharString name="Iogonek">
          -281 232 26 rmoveto
          -18 29 callgsubr
          574 vlineto
          56 -23 148 callgsubr
          -13 vhcurveto
          18 164 callgsubr
          -39 11 -26 22 -11 vhcurveto
          -55 -26 -38 -40 -49 16 callsubr
          hvcurveto
          74 101 17 25 vvcurveto
          5 -6 5 -12 4 vhcurveto
          endchar
        </CharString>
        <CharString name="J">
          -172 340 648 rmoveto
          56 -22 27 153 callgsubr
          8 -14 -25 vvcurveto
          -491 vlineto
          -56 -32 -25 -52 -45 -34 13 24 -32 vhcurveto
          -9 -9 -6 -15 -16 vvcurveto
          -44 53 -39 90 101 71 58 113 vhcurveto
          endchar
        </CharString>
        <CharString name="K">
          91 289 365 86 callgsubr
        </CharString>
        <CharString name="L">
          30 callgsubr
          endchar
        </CharString>
        <CharString name="Lacute">
          30 callgsubr
          157 222 -81 callsubr
          endchar
        </CharString>
        <CharString name="Lcaron">
          30 callgsubr
          307 26 141 callsubr
        </CharString>
        <CharString name="Lslash">
          -3 285 80 rmoveto
          417 callsubr
          250 vlineto
          80 39 29 14 36 24 -19 41 rlinecurve
          -3 5 -4 6 -5 2 -114 -56 rcurveline
          174 160 callgsubr
          -227 vlineto
          -43 -21 -29 -15 -39 -23 19 -40 rlinecurve
          3 -6 8 -5 3 -3 78 38 rcurveline
          -206 vlineto
          -104 49 -37 110 vhcurveto
          164 hlineto
          81 33 35 42 18 -10 19 -17 7 hvcurveto
          -27 -20 -27 -14 -42 hhcurveto
          endchar
        </CharString>
        <CharString name="M">
          371 831 647 rmoveto
          -2 26 5 23 13 17 rrcurveto
          10 -20 -23 8 -29 hhcurveto
          -61 -40 -23 -87 -28 hvcurveto
          -166 -433 -161 435 rlineto
          72 -23 -30 36 -61 hhcurveto
          -39 -31 -12 -14 -23 hvcurveto
          12 -14 6 -23 -2 -26 -42 -564 rcurveline
          -2 -27 -6 -21 -15 -13 rrcurveto
          -15 15 21 -11 24 hhcurveto
          40 17 26 56 4 hvcurveto
          35 532 209 -566 rlineto
          -20 7 9 -12 27 hhcurveto
          27 11 12 20 7 hvcurveto
          212 566 35 -535 rlineto
          -58 5 23 -20 40 hhcurveto
          24 16 7 10 16 hvcurveto
          -11 14 -5 31 -1 26 rrcurveto
          endchar
        </CharString>
        <CharString name="N">
          205 109 75 -22 callsubr
          endchar
        </CharString>
        <CharString name="NULL">
          endchar
        </CharString>
        <CharString name="Nacute">
          205 109 75 -22 callsubr
          396 222 -81 callsubr
          endchar
        </CharString>
        <CharString name="Ncaron">
          205 546 941 -69 callsubr
          214 -188 rmoveto
          63 callsubr
          -508 vlineto
          -323 517 rlineto
          50 -32 -30 23 -48 hhcurveto
          -35 -21 -15 -20 -15 hvcurveto
          19 164 callgsubr
          -56 22 -28 46 29 20 257 callgsubr
          494 vlineto
          300 -473 rlineto
          -73 46 38 -31 48 hhcurveto
          32 21 12 17 13 hvcurveto
          -15 13 -6 15 26 vvcurveto
          endchar
        </CharString>
        <CharString name="Ntilde">
          205 486 884 rmoveto
          126 callsubr
          50 callsubr
          hhcurveto
          -377 -809 -22 callsubr
          endchar
        </CharString>
        <CharString name="O">
          187 408 65 124 callgsubr
        </CharString>
        <CharString name="OE">
          502 539 92 rmoveto
          -14 -36 -43 -9 -52 hhcurveto
          -127 -85 99 174 -13 hvcurveto
          191 -15 92 117 148 hhcurveto
          55 37 -7 -13 39 hvcurveto
          175 -545 rmoveto
          -49 -20 20 49 hvcurveto
          181 181 vlineto
          42 30 -3 -11 25 hvcurveto
          16 10 11 16 23 vvcurveto
          37 -33 13 -82 vhcurveto
          -190 217 259 hlineto
          43 29 -6 -18 24 hvcurveto
          18 9 13 17 23 vvcurveto
          38 -33 23 -82 vhcurveto
          -485 hlineto
          -234 -127 -143 -218 -221 104 -141 253 hvcurveto
          488 hlineto
          83 33 32 42 21 -13 22 -18 9 hvcurveto
          -28 -24 -29 -13 -43 hhcurveto
          endchar
        </CharString>
        <CharString name="Oacute">
          187 408 65 -54 callgsubr
          -209 509 -81 callsubr
          endchar
        </CharString>
        <CharString name="Ocircumflex">
          187 388 877 -35 callsubr
          104 -731 rmoveto
          -126 -89 104 181 -14 hvcurveto
          182 -14 76 126 126 hhcurveto
          128 90 -105 -181 12 hvcurveto
          -181 14 -75 -126 -128 hhcurveto
          -19 666 rmoveto
          -203 -116 -151 -218 -221 116 -150 203 203 113 152 219 221 -112 148 -204 hvcurveto
          endchar
        </CharString>
        <CharString name="Odieresis">
          187 408 65 -54 callgsubr
          -171 505 18 callgsubr
          endchar
        </CharString>
        <CharString name="Ograve">
          187 377 796 -19 callsubr
          122 -816 124 callgsubr
        </CharString>
        <CharString name="Ohungarumlaut">
          187 408 65 -54 callgsubr
          -276 437 45 callgsubr
          endchar
        </CharString>
        <CharString name="Omacron">
          187 408 65 -54 callgsubr
          -433 519 56 callgsubr
          endchar
        </CharString>
        <CharString name="Oslash">
          201 566 515 rmoveto
          17 -41 10 -47 4 -55 rrcurveto
          -181 14 -75 -126 -128 hhcurveto
          -64 -55 27 51 -40 hvcurveto
          -31 50 rmoveto
          -21 43 -13 52 -5 62 rrcurveto
          182 -14 76 126 126 hhcurveto
          70 59 -32 -59 41 hvcurveto
          141 79 rmoveto
          15 18 383 callsubr
          -10 -26 -23 hvcurveto
          -40 -47 rlineto
          53 -52 -73 30 -92 hhcurveto
          -203 -116 -151 -218 -104 26 -88 48 -64 hvcurveto
          -26 -30 -14 -17 -26 -25 -25 -13 rlinecurve
          -21 5 15 -9 15 hhcurveto
          20 19 9 27 23 hvcurveto
          32 37 rlineto
          -47 52 70 -26 85 hhcurveto
          203 113 152 219 97 -21 83 -42 62 hvcurveto
          endchar
        </CharString>
        <CharString name="Otilde">
          187 477 884 rmoveto
          126 callsubr
          50 callsubr
          hhcurveto
          -69 -819 124 callgsubr
        </CharString>
        <CharString name="P">
          35 309 650 rmoveto
          109 54 -65 -90 -89 -54 -65 -109 hvcurveto
          -108 309 hlineto
          -49 73 rmoveto
          311 callsubr
          313 callsubr
          -561 vlineto
          -56 23 -28 45 29 20 callgsubr
          195 120 vlineto
          152 116 82 145 145 -116 82 -152 hvcurveto
          endchar
        </CharString>
        <CharString name="Q">
          206 722 407 rmoveto
          198 -133 126 -179 -189 -140 -155 -211 -157 97 -98 100 54 26 33 36 vhcurveto
          5 -1 5 5 vvcurveto
          -1 -6 -5 0 -6 hhcurveto
          -87 -62 79 134 150 79 102 116 129 94 -105 -160 -187 -101 -111 -144 -50 hvcurveto
          -60 -20 -12 -11 -18 vvcurveto
          -72 155 -140 150 133 29 101 44 -39 vhcurveto
          -26 -31 -39 -12 -43 hhcurveto
          -76 -93 32 62 -62 hvcurveto
          201 50 145 143 229 vvcurveto
          endchar
        </CharString>
        <CharString name="R">
          55 201 643 -48 callgsubr
          endchar
        </CharString>
        <CharString name="Racute">
          55 425 864 -81 callsubr
          -126 -144 -48 callgsubr
          endchar
        </CharString>
        <CharString name="Rcaron">
          55 466 934 -69 callsubr
          -196 -186 -48 callgsubr
          endchar
        </CharString>
        <CharString name="S">
          12 callgsubr
          endchar
        </CharString>
        <CharString name="Sacute">
          12 callgsubr
          -143 280 -81 callsubr
          endchar
        </CharString>
        <CharString name="Scaron">
          72 480 941 -69 callsubr
          -217 -274 rmoveto
          73 callgsubr
          78 -95 65 -148 -129 -122 -74 -118 hvcurveto
          -211 411 0 -148 vvcurveto
          -69 -75 -50 -92 -98 -53 44 49 23 9 19 14 12 vhcurveto
          16 -14 -20 10 -26 hhcurveto
          -38 -35 -30 -48 -98 113 -70 148 147 125 87 124 hvcurveto
          202 -410 8 150 vvcurveto
          endchar
        </CharString>
        <CharString name="T">
          -11 117 723 61 callgsubr
        </CharString>
        <CharString name="Tcaron">
          -11 439 918 -69 callsubr
          -253 -90 61 callgsubr
        </CharString>
        <CharString name="Thorn">
          54 205 510 rmoveto
          16 46 40 8 44 hhcurveto
          100 64 -58 -89 -89 -64 -58 -100 -44 -40 7 16 -46 hvcurveto
          385 vmoveto
          -41 callgsubr
          121 vlineto
          -19 46 48 -11 58 hhcurveto
          135 117 85 137 137 -117 85 -135 -58 -48 -12 -18 -46 hvcurveto
          endchar
        </CharString>
        <CharString name="U">
          130 99 259 45 callsubr
        </CharString>
        <CharString name="Uacute">
          130 99 259 -52 callsubr
          386 222 -81 callsubr
          endchar
        </CharString>
        <CharString name="Ucircumflex">
          130 377 877 -35 callsubr
          251 -551 rmoveto
          -114 -59 -56 -111 -114 -57 59 111 vhcurveto
          403 279 callgsubr
          -21 -15 -20 -15 vhcurveto
          366 callgsubr
          -390 vlineto
          -160 83 -108 192 193 81 108 160 vhcurveto
          389 vlineto
          56 -22 27 153 callgsubr
          9 -14 -25 vvcurveto
          endchar
        </CharString>
        <CharString name="Udieresis">
          130 99 259 -52 callsubr
          423 218 18 callgsubr
          endchar
        </CharString>
        <CharString name="Ugrave">
          130 365 796 -19 callsubr
          -175 -622 45 callsubr
        </CharString>
        <CharString name="Uhungarumlaut">
          130 418 799 45 callgsubr
          -222 -644 45 callsubr
        </CharString>
        <CharString name="Umacron">
          130 260 881 56 callgsubr
          -449 -622 45 callsubr
        </CharString>
        <CharString name="Uogonek">
          130 544 245 rmoveto
          -114 -59 -56 -111 -114 -57 59 111 vhcurveto
          403 279 callgsubr
          -21 -15 -20 -15 vhcurveto
          366 callgsubr
          -390 vlineto
          -149 72 -104 166 -14 vhcurveto
          -51 -25 -34 -39 -46 16 callsubr
          64 75 21 21 21 hvcurveto
          133 27 58 98 135 vvcurveto
          389 vlineto
          56 -22 27 153 callgsubr
          9 -14 -25 vvcurveto
          endchar
        </CharString>
        <CharString name="Uring">
          130 99 259 -52 callsubr
          273 279 88 callsubr
          33 rmoveto
          -57 -50 -30 -60 -61 50 -30 57 56 50 30 61 59 -50 31 -56 hvcurveto
          endchar
        </CharString>
        <CharString name="V">
          120 161 644 rmoveto
          69 -20 -26 18 -37 hhcurveto
          -29 -25 -13 -26 -17 hvcurveto
          21 -10 9 -19 12 -34 184 -558 rcurveline
          -59 20 22 -21 45 hhcurveto
          109 242 343 248 96 -32 54 -57 -24 -28 -12 -14 -17 hvcurveto
          30 -44 7 -41 -66 vvcurveto
          -154 -88 -207 -126 -126 vhcurveto
          endchar
        </CharString>
        <CharString name="W">
          399 536 656 rmoveto
          57 -14 -24 18 -36 hhcurveto
          -29 -24 -13 -26 -17 hvcurveto
          21 -10 11 -19 10 -34 29 -104 rcurveline
          -34 -172 -46 -153 -67 -113 -142 557 rcurveline
          68 -16 -30 19 -37 hhcurveto
          -29 -25 -13 -26 -17 hvcurveto
          22 -10 11 -19 9 -34 156 -557 rcurveline
          -62 17 22 -19 45 hhcurveto
          65 90 187 184 51 hvcurveto
          81 -290 rlineto
          -59 16 24 -22 35 hhcurveto
          107 175 362 212 105 -41 61 -57 -22 -32 -12 -13 -14 hvcurveto
          29 -21 22 -69 -84 vvcurveto
          -119 -49 -198 -95 -135 vhcurveto
          endchar
        </CharString>
        <CharString name="X">
          54 336 436 rmoveto
          -155 237 rlineto
          43 -28 -24 15 -35 hhcurveto
          -37 -29 -25 -37 -10 hvcurveto
          26 -1 23 -11 24 -37 173 -265 rcurveline
          -187 -262 rlineto
          -25 -18 -16 -9 -24 hhcurveto
          -45 -3 32 -23 32 hhcurveto
          41 28 27 87 50 hvcurveto
          109 182 156 -238 rlineto
          -43 29 22 -15 35 hhcurveto
          37 27 26 35 10 hvcurveto
          -24 2 -22 11 -24 37 -174 266 rcurveline
          186 260 rlineto
          25 18 16 9 24 hhcurveto
          45 3 -32 24 -32 hhcurveto
          -41 -28 -28 -87 -50 hvcurveto
          endchar
        </CharString>
        <CharString name="Y">
          24 571 617 36 callsubr
        </CharString>
        <CharString name="Yacute">
          24 426 871 -81 callsubr
          243 -177 36 callsubr
        </CharString>
        <CharString name="Ydieresis">
          24 391 795 0 callsubr
          347 -178 36 callsubr
        </CharString>
        <CharString name="Z">
          40 147 80 -11 callgsubr
        </CharString>
        <CharString name="Zacute">
          40 422 871 -81 callsubr
          -177 -714 -11 callgsubr
        </CharString>
        <CharString name="Zcaron">
          40 463 941 -69 callsubr
          -247 -756 -11 callgsubr
        </CharString>
        <CharString name="Zdotaccent">
          40 304 811 rmoveto
          39 36 35 39 192 callsubr
          hvcurveto
          -157 -731 -11 callgsubr
        </CharString>
        <CharString name="a">
          -50 348 125 -86 callsubr
        </CharString>
        <CharString name="aacute">
          -50 378 39 callsubr
          68 -458 -86 callsubr
        </CharString>
        <CharString name="abreve">
          -50 270 581 68 callsubr
          78 -456 -86 callsubr
        </CharString>
        <CharString name="acircumflex">
          -50 270 666 -35 callsubr
          162 -460 -86 callsubr
        </CharString>
        <CharString name="acute">
          -334 174 39 callsubr
          endchar
        </CharString>
        <CharString name="adieresis">
          -50 343 584 0 callsubr
          172 -459 -86 callsubr
        </CharString>
        <CharString name="ae">
          212 348 234 rmoveto
          -35 5 -32 9 -27 vhcurveto
          -50 -35 -45 -24 -46 hhcurveto
          -43 -30 18 46 54 51 47 134 7 hvcurveto
          111 63 rmoveto
          102 12 50 54 59 hhcurveto
          48 30 -45 -51 -34 -15 -10 -25 -2 hvcurveto
          38 -61 rmoveto
          80 2 31 29 65 vvcurveto
          85 -68 87 -108 -63 -60 -30 -50 -44 vhcurveto
          51 -27 -53 29 -80 hhcurveto
          -100 -92 -50 -68 -38 26 -24 43 21 22 8 14 16 hvcurveto
          -10 11 -4 15 13 vvcurveto
          31 26 29 54 57 25 -33 -72 vhcurveto
          -70 vlineto
          -200 -5 -98 -68 -96 vvcurveto
          -83 65 -45 93 76 58 36 60 46 vhcurveto
          -62 42 71 -34 88 hhcurveto
          95 74 56 47 14 -5 12 -11 5 hvcurveto
          -32 -32 -46 -24 -59 hhcurveto
          -87 -61 51 128 -1 hvcurveto
          endchar
        </CharString>
        <CharString name="agrave">
          -50 258 585 -19 callsubr
          181 -545 -86 callsubr
        </CharString>
        <CharString name="amacron">
          -50 388 608 rmoveto
          92 callgsubr
          -288 hlineto
          91 callsubr
          248 -483 -86 callsubr
        </CharString>
        <CharString name="ampersand">
          154 745 462 rmoveto
          53 -49 45 -71 -35 vhcurveto
          -65 12 -18 -44 -113 hhcurveto
          -61 -15 -31 -36 18 hvcurveto
          70 30 -45 -66 -94 -93 -59 -99 -115 -74 56 93 53 25 48 42 31 hvcurveto
          -1 6 7 0 6 hhcurveto
          71 20 51 32 -24 hvcurveto
          -88 -52 45 75 60 37 43 49 49 26 -26 -64 4 hvcurveto
          53 -16 43 27 42 vvcurveto
          56 -60 42 -86 -101 -102 -82 -123 -68 31 -55 57 -25 vhcurveto
          -61 -36 -51 -56 -83 vvcurveto
          -124 106 -89 166 156 117 110 138 45 -9 36 -19 34 vhcurveto
          110 50 44 64 hvcurveto
          endchar
        </CharString>
        <CharString name="ampersand.alt">
          149 163 200 rmoveto
          56 26 42 76 46 vhcurveto
          19 -23 21 -25 25 -28 57 -65 45 -50 38 -38 rrcurveto
          -25 -41 -51 -15 -56 hhcurveto
          -94 -65 53 72 hvcurveto
          169 462 rmoveto
          44 35 -34 -55 -47 -26 -48 -71 -43 hvcurveto
          -47 63 -14 35 37 vvcurveto
          56 36 36 43 vhcurveto
          397 -559 rmoveto
          -11 -14 -17 -9 -21 hhcurveto
          -21 -25 10 39 -44 hvcurveto
          48 58 28 69 63 vvcurveto
          59 -32 33 -39 -18 -17 -8 -12 -14 vhcurveto
          23 -25 13 -33 -42 vvcurveto
          -41 -15 -41 -25 -35 vhcurveto
          -34 34 -41 45 -52 60 -24 27 -20 24 -17 21 rrcurveto
          102 53 67 53 79 vvcurveto
          78 -79 68 -109 -99 -88 -61 -94 -51 18 -42 64 -81 vhcurveto
          -121 -66 -50 -64 -81 vvcurveto
          -101 90 -86 150 86 76 30 45 61 vhcurveto
          -64 69 37 -11 46 hhcurveto
          47 25 34 36 14 -5 14 -9 13 hvcurveto
          endchar
        </CharString>
        <CharString name="aogonek">
          -50 348 125 rmoveto
          -39 -30 -39 -20 -43 hhcurveto
          -43 -30 18 46 54 51 47 134 7 hvcurveto
          155 -203 rmoveto
          -30 6 -20 18 42 vvcurveto
          254 vlineto
          111 -75 56 -111 -105 -90 -45 -71 -35 26 -24 43 21 22 8 14 16 vhcurveto
          -10 10 -4 13 15 vvcurveto
          37 32 25 49 48 33 -30 -62 vhcurveto
          -89 vlineto
          -200 -5 -98 -68 -96 vvcurveto
          -83 62 -45 82 67 53 30 45 35 vhcurveto
          5 -34 13 -22 21 -11 rrcurveto
          -45 -26 -31 -37 -43 16 callsubr
          hvcurveto
          74 101 17 25 vvcurveto
          5 -6 5 -13 5 vhcurveto
          endchar
        </CharString>
        <CharString name="apostrophemod">
          -380 88 740 rmoveto
          59 callgsubr
        </CharString>
        <CharString name="approxequal">
          120 518 278 rmoveto
          348 callsubr
          34 3 23 20 39 66 163 -59 309 callsubr
          -33 -3 -23 -22 -38 hhcurveto
          216 vmoveto
          -68 -165 59 -77 hhcurveto
          -67 -44 -42 -52 -27 12 -17 18 -6 hvcurveto
          34 3 23 21 39 66 163 -60 309 callsubr
          -33 -3 -23 -21 -38 hhcurveto
          endchar
        </CharString>
        <CharString name="aring">
          -50 266 717 88 callsubr
          -148 rmoveto
          56 50 30 61 59 -50 31 -56 -57 -50 -30 -60 -61 50 -30 57 hvcurveto
          77 -444 -86 callsubr
        </CharString>
        <CharString name="asciicircum">
          29 352 649 rmoveto
          31 -14 -14 13 -23 hhcurveto
          -22 -20 -14 -31 -17 hvcurveto
          -155 -278 rlineto
          -16 -29 -7 -23 -20 vvcurveto
          -42 33 -19 31 vhcurveto
          174 334 138 -274 rlineto
          -44 21 22 -22 28 hhcurveto
          13 15 6 12 15 hvcurveto
          endchar
        </CharString>
        <CharString name="asciitilde">
          120 582 448 rmoveto
          -34 -3 -23 -21 -38 348 callsubr
          33 3 23 21 39 66 163 -59 309 callsubr
          endchar
        </CharString>
        <CharString name="asterisk">
          -9 344 876 rmoveto
          39 -17 30 -39 -34 -17 -30 -38 -36 12 -48 12 -33 vhcurveto
          29 -36 -60 35 -36 hhcurveto
          -25 -30 -15 -36 -46 75 -22 60 -2 hvcurveto
          12 12 1 2 11 hvcurveto
          -46 -29 -61 -55 -42 vvcurveto
          -23 20 -29 30 52 36 87 59 14 vhcurveto
          -60 15 36 -85 51 hhcurveto
          27 26 24 25 45 -63 54 -46 29 hvcurveto
          -2 10 14 -2 12 hhcurveto
          60 2 75 22 46 vvcurveto
          36 -26 18 -28 -41 -58 -40 -28 -36 vhcurveto
          13 33 14 48 37 vvcurveto
          endchar
        </CharString>
        <CharString name="at">
          307 518 193 rmoveto
          -32 -30 -36 -17 -38 hhcurveto
          -41 -26 15 38 3 hvcurveto
          2 44 49 39 122 7 rrcurveto
          102 97 rmoveto
          92 5 -65 46 -101 hhcurveto
          -95 -86 -42 -56 -3 hvcurveto
          -31 -2 22 -20 40 hhcurveto
          19 20 7 10 15 hvcurveto
          -8 10 -4 12 1 11 rrcurveto
          26 2 25 25 49 hhcurveto
          53 20 -28 -59 -3 hvcurveto
          -3 -59 -183 -5 -93 -56 -4 -80 rlinecurve
          -68 -4 54 -38 75 hhcurveto
          62 51 25 38 34 hvcurveto
          -41 8 35 -23 47 hhcurveto
          103 113 99 174 181 -137 135 -198 -241 -183 -172 -253 -229 157 -96 155 146 93 60 31 -33 hvcurveto
          -26 -55 -65 -16 -74 hhcurveto
          -140 -129 77 199 225 142 148 216 3 hvcurveto
          172 3 121 -109 -2 -170 rrcurveto
          -144 -2 -73 -63 -51 hhcurveto
          -22 -10 12 27 2 hvcurveto
          endchar
        </CharString>
        <CharString name="atilde">
          -50 147 592 rmoveto
          50 callsubr
          126 callsubr
          201 -467 -86 callsubr
        </CharString>
        <CharString name="b">
          -3 189 358 rmoveto
          58 31 47 26 49 hhcurveto
          76 54 -61 -120 -128 -60 -76 -93 -65 -39 30 68 hvcurveto
          1 528 rmoveto
          56 208 callsubr
          -22 -14 -20 -15 vhcurveto
          20 -9 8 -14 -26 vvcurveto
          -1 -528 rlineto
          -120 81 -45 124 145 117 111 167 166 -94 87 -116 -63 -53 -30 -48 -35 vhcurveto
          endchar
        </CharString>
        <CharString name="backslash">
          -7 108 992 rmoveto
          -13 -16 -3 -12 -15 hvcurveto
          12 -9 10 -27 6 -18 209 -592 44 -137 89 -252 rrcurveto
          -21 7 17 -47 42 hhcurveto
          10 15 1 16 18 hvcurveto
          -9 7 -13 28 -7 20 -108 305 -115 345 -119 329 rrcurveto
          20 -7 -16 47 -41 hhcurveto
          endchar
        </CharString>
        <CharString name="bar">
          -281 205 836 rmoveto
          56 -23 27 -46 -28 -22 -14 -20 -13 vhcurveto
          18 -9 9 -13 -26 vvcurveto
          -941 vlineto
          -57 22 -27 46 28 22 162 callgsubr
          endchar
        </CharString>
        <CharString name="braceleft">
          -145 348 905 rmoveto
          19 -14 -31 10 -25 hhcurveto
          -64 -79 -53 -137 hvcurveto
          -72 21 -102 -76 -109 -73 -1 -29 -29 73 -3 -108 -78 -21 -104 -77 vvcurveto
          -136 79 -53 64 25 31 10 19 14 vhcurveto
          -64 10 -47 45 80 64 21 150 67 vvcurveto
          104 -86 36 -10 2 vhcurveto
          9 1 87 37 105 65 -21 145 63 vvcurveto
          80 47 46 64 9 vhcurveto
          endchar
        </CharString>
        <CharString name="braceright">
          -145 295 744 rmoveto
          137 -78 53 -64 -25 -31 -10 -19 -14 vhcurveto
          63 -9 47 -46 -80 -63 -20 -145 -65 vvcurveto
          -105 87 -37 9 -1 vhcurveto
          -10 -2 -86 -36 -104 -67 20 -150 -64 vvcurveto
          -80 -47 -45 -63 -10 vhcurveto
          -19 14 31 -10 25 hhcurveto
          64 78 53 136 hvcurveto
          77 -21 104 78 108 74 3 29 29 -74 1 109 76 21 102 72 vvcurveto
          endchar
        </CharString>
        <CharString name="bracketleft">
          -180 171 -121 rmoveto
          953 179 vlineto
          -32 callsubr
          8 7 vvcurveto
          54 -54 0 -22 vhcurveto
          -212 -994 hlineto
          -103 72 0 29 vhcurveto
          183 hlineto
          2 3 2 9 6 vvcurveto
          53 -54 0 -22 vhcurveto
          endchar
        </CharString>
        <CharString name="bracketright">
          -180 250 833 rmoveto
          -954 -179 vlineto
          -1 -4 -3 -7 -7 vvcurveto
          -53 55 0 22 vhcurveto
          211 993 hlineto
          104 -72 0 -29 vhcurveto
          -183 hlineto
          -1 -4 -3 -44 callsubr
          -53 55 0 22 vhcurveto
          endchar
        </CharString>
        <CharString name="breve">
          -254 237 705 rmoveto
          -53 -23 -29 -47 -46 -23 29 53 vhcurveto
          3 -9 -12 2 -12 hhcurveto
          -28 -25 -15 -28 -44 54 -42 101 102 54 42 44 28 -26 15 -28 -12 -12 -2 -3 -8 hvcurveto
          endchar
        </CharString>
        <CharString name="brokenbar">
          -281 206 240 rmoveto
          56 -22 27 153 callgsubr
          9 -14 -25 vvcurveto
          -249 vlineto
          -57 21 -27 47 28 21 162 callgsubr
          783 vmoveto
          56 -22 28 153 callgsubr
          9 -15 -25 vvcurveto
          -249 vlineto
          -56 21 -27 47 28 21 14 410 callsubr
        </CharString>
        <CharString name="bullet">
          -160 335 426 rmoveto
          58 -41 44 -62 -71 -72 -67 -75 -58 42 -45 61 75 68 68 75 vhcurveto
          endchar
        </CharString>
        <CharString name="c">
          -89 457 419 rmoveto
          264 callsubr
          -156 103 -87 129 94 77 55 49 116 callgsubr
          hvcurveto
          endchar
        </CharString>
        <CharString name="cacute">
          -89 457 419 rmoveto
          264 callsubr
          -156 103 -87 129 94 77 55 49 116 callgsubr
          hvcurveto
          -99 241 -81 callsubr
          endchar
        </CharString>
        <CharString name="caron">
          -267 161 650 rmoveto
          -84 81 rlineto
          12 -12 -12 4 -11 hhcurveto
          -14 -12 -6 -11 -4 hvcurveto
          69 -105 rlineto
          -36 23 19 -20 38 hhcurveto
          38 19 20 36 23 hvcurveto
          69 105 rlineto
          11 -4 -11 6 -16 hhcurveto
          -10 -12 -4 -12 -13 hvcurveto
          endchar
        </CharString>
        <CharString name="ccaron">
          -89 400 730 -69 callsubr
          106 -498 rmoveto
          50 callgsubr
          264 callsubr
          -156 103 -87 129 94 77 55 49 13 -6 14 -9 5 hvcurveto
          endchar
        </CharString>
        <CharString name="ccedilla">
          -89 199 -70 rmoveto
          -24 callsubr
          13 57 rlineto
          93 1 76 54 49 vvcurveto
          116 callgsubr
          264 callsubr
          -128 69 -82 97 -25 hvcurveto
          endchar
        </CharString>
        <CharString name="cedilla">
          -245 221 23 rmoveto
          -70 hlineto
          -21 -93 189 callgsubr
        </CharString>
        <CharString name="cent">
          -89 336 574 rmoveto
          56 -22 28 -47 -27 -22 -15 -20 -15 vhcurveto
          249 callsubr
          -66 vlineto
          -107 -35 -75 -106 -134 vvcurveto
          -125 66 -80 92 -28 vhcurveto
          -63 408 callgsubr
          -18 9 -9 13 26 vvcurveto
          56 vlineto
          79 11 60 48 43 vvcurveto
          116 callgsubr
          53 -50 41 -71 8 hvcurveto
          endchar
        </CharString>
        <CharString name="circumflex">
          -267 241 691 103 callsubr
        </CharString>
        <CharString name="colon">
          -248 247 458 294 callgsubr
          26 -27 37 44 41 40 45 vhcurveto
          -374 vmoveto
          35 -25 27 -37 -43 -43 -42 -44 -35 26 -26 37 44 41 40 45 vhcurveto
          endchar
        </CharString>
        <CharString name="comma">
          -297 141 -38 rmoveto
          -47 -20 -46 -41 -29 vhcurveto
          -17 4 13 -8 13 hhcurveto
          55 71 87 107 67 -34 57 -56 -39 -29 -31 -33 -5 hvcurveto
          44 -16 24 -42 -49 vvcurveto
          endchar
        </CharString>
        <CharString name="commaaccent">
          -425 154 -131 rmoveto
          53 -34 31 -45 -32 -27 -20 -26 -6 vhcurveto
          -23 callgsubr
          hvcurveto
          endchar
        </CharString>
        <CharString name="commaaccent.alt">
          -399 176 675 141 callsubr
        </CharString>
        <CharString name="copyright">
          280 598 506 rmoveto
          58 -63 42 -78 -132 -96 -122 -137 -131 83 -90 122 93 69 60 45 15 -7 10 -8 3 vhcurveto
          -38 -31 -42 -24 -54 hhcurveto
          -74 -59 54 109 102 45 83 76 44 22 -30 -33 -5 -1 -7 -1 -5 hvcurveto
          -7 11 13 -3 14 hhcurveto
          30 24 19 32 hvcurveto
          -472 -147 rmoveto
          179 117 149 191 193 115 -149 -179 -179 -118 -145 -190 -192 -116 145 179 vhcurveto
          671 hmoveto
          217 -155 156 -208 -207 -155 -156 -217 -217 155 -151 207 208 155 151 217 vhcurveto
          endchar
        </CharString>
        <CharString name="currency">
          68 340 223 rmoveto
          -71 -54 42 111 -8 hvcurveto
          111 -8 48 42 71 hhcurveto
          69 55 -42 -111 9 hvcurveto
          -111 9 -51 -42 -69 hhcurveto
          252 345 rmoveto
          -6 17 -13 12 -16 3 -23 12 -29 -9 -28 -28 -22 -23 rcurveline
          23 -36 -43 12 -47 hhcurveto
          -47 -44 -12 -23 -36 hvcurveto
          -23 23 -28 28 -28 9 -23 -12 rlinecurve
          -16 -3 -14 -12 -5 -17 79 -78 rcurveline
          -18 -31 -10 -38 -45 vvcurveto
          -49 12 -40 20 -32 vhcurveto
          -83 -81 5 -16 13 -12 17 -3 rlinecurve
          23 -12 27 9 28 27 30 30 rcurveline
          -21 35 42 -11 44 hhcurveto
          44 41 10 21 34 hvcurveto
          30 -29 27 -27 29 -9 23 12 rlinecurve
          17 3 13 12 5 16 -84 81 rcurveline
          20 32 12 40 49 vvcurveto
          45 -10 38 -17 30 vhcurveto
          endchar
        </CharString>
        <CharString name="d">
          -8 90 callgsubr
          endchar
        </CharString>
        <CharString name="dagger">
          68 350 callsubr
          74 2 2 63 hvcurveto
          -2 -18 -3 -46 -77 vvcurveto
          -164 3 -282 -2 -112 vhcurveto
          -22 -3 -36 -7 -13 vhcurveto
          -3 11 9 0 9 hhcurveto
          70 2 73 29 hvcurveto
          140 -2 176 184 vvcurveto
          -1 83 -1 58 163 callgsubr
        </CharString>
        <CharString name="daggerdbl">
          54 350 callsubr
          75 2 2 62 hvcurveto
          -2 -24 -2 -105 -114 vvcurveto
          -127 -1 -21 5 -67 vhcurveto
          2 -44 -48 1 -53 hhcurveto
          -28 -67 0 -64 -8 2 -11 2 -5 hvcurveto
          52 122 1 4 64 hvcurveto
          -3 -36 0 -60 -58 vvcurveto
          -28 -2 -34 -7 -14 vhcurveto
          -4 9 10 -1 9 hhcurveto
          67 2 72 28 hvcurveto
          -1 46 -2 43 -2 45 44 -2 49 -1 55 -1 rrcurveto
          28 68 0 67 7 -3 10 -2 4 hvcurveto
          -102 -76 -2 -2 -61 hvcurveto
          1 19 2 84 100 vvcurveto
          -1 177 -1 49 163 callgsubr
        </CharString>
        <CharString name="danda">
          -106 187 callsubr
          endchar
        </CharString>
        <CharString name="dcaron">
          113 90 callgsubr
          125 703 rmoveto
          -32 -27 -20 -26 -6 hvcurveto
          31 -8 19 -23 -32 vvcurveto
          172 callgsubr
          53 -34 31 -45 hvcurveto
          endchar
        </CharString>
        <CharString name="dcroat">
          -8 393 120 rmoveto
          -38 -23 -39 -20 -46 hhcurveto
          -74 -62 60 129 137 64 68 80 40 35 -13 -25 25 hvcurveto
          105 232 rmoveto
          33 vlineto
          56 -23 28 -46 -28 -22 -14 -20 -14 vhcurveto
          18 -9 10 -14 -26 vvcurveto
          -34 -100 vlineto
          91 callsubr
          153 -91 hlineto
          16 -32 -37 9 -39 hhcurveto
          -140 -103 -115 -163 -165 108 -88 111 54 48 21 37 32 hvcurveto
          -39 6 21 -19 39 hhcurveto
          207 callsubr
          15 hvcurveto
          -18 29 callgsubr
          514 30 vlineto
          92 callgsubr
          endchar
        </CharString>
        <CharString name="degree">
          -133 229 853 rmoveto
          -92 -69 -63 -91 -92 67 -63 92 93 68 64 92 91 -67 62 -92 hvcurveto
          -242 vmoveto
          -51 -35 38 51 51 33 36 51 51 34 -37 -51 -51 -33 -37 -50 hvcurveto
          endchar
        </CharString>
        <CharString name="dieresis">
          -274 303 656 18 callgsubr
          endchar
        </CharString>
        <CharString name="divide">
          51 139 451 416 callsubr
          -8 3 -10 3 -5 hvcurveto
          453 hlineto
          28 68 0 68 6 -2 10 -2 4 hvcurveto
          -197 -219 rmoveto
          35 -25 27 -37 -43 -43 -41 -45 -35 25 -27 37 45 41 41 45 vhcurveto
          377 vmoveto
          35 -25 26 -37 -43 -43 -40 -45 -35 25 -27 37 45 41 41 45 vhcurveto
          endchar
        </CharString>
        <CharString name="dollar">
          45 398 788 rmoveto
          401 callgsubr
          -29 -21 -15 -20 -14 vhcurveto
          313 callsubr
          -57 vlineto
          -111 -15 -94 -70 -104 -211 411 0 -148 vvcurveto
          -69 -75 -50 -92 -98 -53 44 49 23 9 19 14 12 vhcurveto
          16 -14 -20 10 -26 hhcurveto
          -38 -35 -30 -48 -82 79 -63 113 -18 hvcurveto
          -58 vlineto
          -56 22 -28 46 29 21 15 20 14 vhcurveto
          -19 9 -8 13 26 vvcurveto
          56 vlineto
          131 13 105 82 114 202 -410 8 150 vvcurveto
          73 callgsubr
          67 -70 58 -114 14 hvcurveto
          endchar
        </CharString>
        <CharString name="dotaccent">
          -437 140 674 rmoveto
          192 callsubr
          39 36 35 39 vhcurveto
          endchar
        </CharString>
        <CharString name="dotlessi">
          61 callsubr
          endchar
        </CharString>
        <CharString name="dottedcircle">
          71 139 517 rmoveto
          -26 18 -19 26 26 18 19 26 25 -18 19 -26 -26 -18 -19 -25 vhcurveto
          -82 -110 rmoveto
          -25 20 -19 26 24 20 19 25 25 -20 19 -24 -26 -20 -19 -25 vhcurveto
          -13 -126 rmoveto
          -25 19 -18 25 26 18 18 425 callgsubr
          52 -116 rmoveto
          -26 18 -18 26 25 19 18 26 25 -19 19 -25 -26 -18 -19 -25 vhcurveto
          101 -75 rmoveto
          -26 19 -20 26 25 19 20 26 24 -19 20 -25 -26 -19 -20 -24 vhcurveto
          127 -16 rmoveto
          -26 18 -18 26 26 19 18 26 26 -19 18 -26 -26 -18 -18 -26 vhcurveto
          121 53 rmoveto
          -26 19 -18 25 25 20 18 26 25 -20 19 -25 -25 -19 -19 -25 vhcurveto
          73 98 rmoveto
          -25 19 -19 26 24 19 19 25 26 -19 19 -24 -26 -19 -19 -26 vhcurveto
          10 134 rmoveto
          -26 18 -18 26 25 19 18 26 26 -19 18 -25 -26 -18 -18 -26 vhcurveto
          -50 118 rmoveto
          -25 19 -19 25 26 18 19 425 callgsubr
          -95 68 rmoveto
          -24 19 -20 26 25 18 20 24 26 -18 19 -25 -26 -19 -19 -26 vhcurveto
          -126 15 rmoveto
          -26 18 -18 26 26 18 18 26 26 -18 18 -26 -26 -18 -18 -26 vhcurveto
          endchar
        </CharString>
        <CharString name="doubledanda">
          92 187 callsubr
          237 hmoveto
          42 -3 72 -69 -7 -11 -1 -4 -10 vhcurveto
          393 callgsubr
          -236 -6 -97 -124 vvcurveto
          -41 3 -72 69 -39 callgsubr
          157 5 123 176 vvcurveto
          endchar
        </CharString>
        <CharString name="dvA">
          147 448 656 13 callgsubr
        </CharString>
        <CharString name="dvAA">
          422 448 656 rmoveto
          -66 callsubr
          209 -1 callgsubr
        </CharString>
        <CharString name="dvAI">
          -20 447 243 callsubr
          -456 166 callgsubr
          46 100 callsubr
          -59 -2 -51 -48 -176 353 -34 -106 vvcurveto
          -27 -23 -14 -28 vhcurveto
          -5 13 -50 57 45 23 36 37 vhcurveto
          158 -352 20 157 54 2 53 52 121 callsubr
          244 hlineto
          17 -28 21 -50 -59 vvcurveto
          -65 -39 -29 -45 -14 -13 3 5 -14 vhcurveto
          -50 2 43 -32 50 hhcurveto
          66 40 53 70 57 -19 66 -37 59 hvcurveto
          -3 callgsubr
        </CharString>
        <CharString name="dvAU">
          422 898 388 callgsubr
          324 callsubr
          185 callgsubr
          vhcurveto
          66 callsubr
          -391 hlineto
          -66 callsubr
          209 -1 callgsubr
        </CharString>
        <CharString name="dvAbbreviationsign">
          -192 204 165 rmoveto
          101 52 79 76 73 -50 72 -102 -101 -52 -79 -76 -74 50 -71 102 hvcurveto
          3 245 rmoveto
          53 26 -48 -49 -45 -27 -47 -55 -54 -26 49 48 46 27 46 56 hvcurveto
          endchar
        </CharString>
        <CharString name="dvAcandra">
          147 597 133 callgsubr
          -149 -103 13 callgsubr
        </CharString>
        <CharString name="dvAnusvara">
          -136 754 96 callgsubr
          endchar
        </CharString>
        <CharString name="dvAnusvara.amI">
          74 784 96 callgsubr
          endchar
        </CharString>
        <CharString name="dvAvagraha">
          -51 123 558 rmoveto
          -137 257 -66 -133 vvcurveto
          -50 -39 -29 -62 -60 -66 35 70 -59 vhcurveto
          -13 -5 -7 -10 -12 vvcurveto
          -54 123 -103 115 92 64 53 83 vhcurveto
          162 -252 69 96 vvcurveto
          33 27 18 63 vhcurveto
          60 53 -1 27 hhcurveto
          3 5 1 9 7 vvcurveto
          52 -54 7 -92 -74 -107 -5 -94 vhcurveto
          endchar
        </CharString>
        <CharString name="dvB">
          -234 108 callsubr
          370 -101 callgsubr
          -29 -438 160 callsubr
          40 24 rmoveto
          -56 callgsubr
          102 87 77 67 26 -16 24 -28 10 vhcurveto
          -17 -42 -27 -32 -32 -22 rrcurveto
          endchar
        </CharString>
        <CharString name="dvBA">
          -28 289 219 rmoveto
          -10 -21 -23 -5 -24 hhcurveto
          -59 -52 41 63 34 callsubr
          338 112 callgsubr
          -143 164 59 callsubr
          -109 107 -108 115 367 callsubr
          vhcurveto
          -7 -32 392 callsubr
          15 -48 55 4 17 1 4 7 vhcurveto
          -10 15 21 callgsubr
          -103 callsubr
        </CharString>
        <CharString name="dvBH">
          -219 399 285 rmoveto
          56 11 26 21 9 -2 8 -2 5 hvcurveto
          -48 5 -74 5 -81 3 -7 callgsubr
          endchar
        </CharString>
        <CharString name="dvBHA">
          42 302 656 rmoveto
          -2 -4 -1 -9 -6 vvcurveto
          -49 44 -12 42 vhcurveto
          54 hlineto
          11 -17 1 -39 -36 vvcurveto
          -46 0 -41 -1 -39 vhcurveto
          -58 5 -72 3 -61 1 -7 callgsubr
          193 hlineto
          -2 -63 -1 -57 -58 vvcurveto
          -41 4 -38 callsubr
          -45 12 -41 vhcurveto
          endchar
        </CharString>
        <CharString name="dvBH_LA">
          492 302 -84 callsubr
          506 125 callsubr
          -63 -53 -31 -58 -23 hvcurveto
          -43 4 -54 3 -56 2 -7 callgsubr
          143 hlineto
          165 callsubr
          vhcurveto
          40 callgsubr
          21 352 callgsubr
          18 36 21 36 hhcurveto
          24 21 -5 -10 18 hvcurveto
          -1 153 callsubr
          68 -52 callgsubr
        </CharString>
        <CharString name="dvBH_NA">
          292 callgsubr
          vvcurveto
          -40 0 -38 -1 -36 vhcurveto
          5 -58 -72 155 callsubr
          194 hlineto
          -1 -66 rlineto
          -127 -62 -164 -53 -60 247 callsubr
          15 -6 18 -11 21 vhcurveto
          153 84 rlineto
          -5 -25 -2 -38 -19 vvcurveto
          -48 20 -40 48 7 11 1 4 10 -67 callgsubr
        </CharString>
        <CharString name="dvBH_R">
          -219 398 297 rmoveto
          57 11 25 21 10 -2 8 -3 5 hvcurveto
          -48 4 -74 6 -80 158 callgsubr
          201 -42 rmoveto
          -68 -61 -128 -90 -126 -29 411 callgsubr
          83 200 410 callgsubr
        </CharString>
        <CharString name="dvBH_RA">
          292 callgsubr
          -40 0 -38 -36 vvcurveto
          5 -58 -73 155 callsubr
          195 hlineto
          -1 -43 329 callsubr
          67 87 92 hvcurveto
          -5 -24 -2 -37 -21 vvcurveto
          -45 14 -48 55 7 11 1 4 10 -67 callgsubr
        </CharString>
        <CharString name="dvBH_R_YA">
          361 753 -28 callgsubr
          vvcurveto
          -75 -103 -34 -37 -41 vhcurveto
          -43 3 -52 3 -54 158 callgsubr
          143 hlineto
          7 hlineto
          8 -18 12 -19 16 -18 -70 -60 -119 -80 -118 -27 411 callgsubr
          78 182 130 63 21 hvcurveto
          -33 43 55 -23 58 hhcurveto
          140 callgsubr
          hvcurveto
          -6 -36 -3 -40 -27 vvcurveto
          -49 13 -102 callgsubr
        </CharString>
        <CharString name="dvBH_VA">
          318 309 -84 callsubr
          324 hlineto
          -51 callsubr
          -65 -77 -43 -89 -7 vhcurveto
          -41 3 -50 3 -52 2 -7 callgsubr
          143 hlineto
          5 5 0 1 4 hvcurveto
          -81 30 84 -67 88 hhcurveto
          228 callsubr
          hvcurveto
          -7 -32 -3 -34 -34 -79 callsubr
        </CharString>
        <CharString name="dvBH_YA">
          354 746 -28 callgsubr
          vvcurveto
          -81 -120 -33 -28 -46 vhcurveto
          -40 3 -46 2 -48 2 -7 callgsubr
          143 hlineto
          5 hlineto
          -67 36 92 -69 99 hhcurveto
          140 callgsubr
          hvcurveto
          -6 -36 -3 -40 -27 vvcurveto
          -49 13 -102 callgsubr
        </CharString>
        <CharString name="dvB_BA">
          318 635 219 130 callgsubr
          -200 -165 rmoveto
          -9 -21 -22 -4 -21 hhcurveto
          -62 -54 37 66 34 callsubr
          684 112 callgsubr
          -143 164 59 callsubr
          -16 2 -16 5 -15 vhcurveto
          -16 -26 -21 -20 -22 -16 -147 168 rcurveline
          -56 callgsubr
          74 66 40 48 30 vhcurveto
          -52 43 63 -36 67 hhcurveto
          367 callsubr
          hvcurveto
          -7 -32 392 callsubr
          15 -48 55 4 17 1 4 7 vhcurveto
          -10 15 21 callgsubr
          -103 callsubr
        </CharString>
        <CharString name="dvB_BHA">
          382 290 218 rmoveto
          -8 -20 -21 -5 -23 183 callsubr
          498 273 217 callgsubr
          -28 -21 -10 -16 -15 hvcurveto
          19 -15 -30 6 -29 hhcurveto
          -345 15 callgsubr
          314 422 callsubr
          45 7 394 callgsubr
          -14 18 -5 183 callgsubr
          -32 -1 -26 -1 -22 vhcurveto
          -65 -2 -20 -14 -37 -48 -19 -25 -20 -21 -22 -17 -146 166 rcurveline
          -56 callgsubr
          88 65 56 55 38 vhcurveto
          -27 21 32 -23 31 276 callsubr
          193 hlineto
          -1 -63 -1 -57 -58 vvcurveto
          -41 3 -72 69 217 callsubr
        </CharString>
        <CharString name="dvB_BH_RA">
          366 306 callsubr
          483 290 callgsubr
          54 hlineto
          10 callgsubr
          -40 0 -38 -36 vvcurveto
          5 -58 -73 3 -60 hhcurveto
          149 -5 -71 130 -91 hhcurveto
          -29 274 callgsubr
          -326 15 callgsubr
          299 422 callsubr
          44 7 7 2 2 3 vhcurveto
          -13 18 -6 24 23 vvcurveto
          29 13 32 31 43 10 -71 -65 -28 -1 -22 -1 -19 vhcurveto
          -81 -3 9 -30 -43 -57 -15 -20 -17 -17 -19 -13 -147 168 rcurveline
          -56 callgsubr
          84 74 52 60 32 vhcurveto
          -18 19 26 -13 25 hhcurveto
          36 16 40 46 6 hvcurveto
          194 -43 hlineto
          -67 -54 -144 -98 -108 -23 rrcurveto
          -38 4 29 -27 40 hhcurveto
          49 112 67 87 92 hvcurveto
          -4 -24 -3 -37 -21 vvcurveto
          -45 14 -48 55 8 10 1 4 10 vhcurveto
          -9 -59 callgsubr
        </CharString>
        <CharString name="dvB_DA">
          232 290 218 rmoveto
          -9 -21 -22 -4 -21 hhcurveto
          -62 -54 37 66 34 callsubr
          612 381 callgsubr
          -6 vlineto
          -13 -18 -16 -14 -17 -12 -147 168 rcurveline
          -56 callgsubr
          59 54 26 35 35 vhcurveto
          -66 47 88 -50 90 hhcurveto
          327 callsubr
          hvcurveto
          -65 callgsubr
        </CharString>
        <CharString name="dvB_DHA">
          351 291 217 rmoveto
          -8 -19 -21 -4 -25 183 callsubr
          556 273 151 callsubr
          vvcurveto
          -74 -1 -64 -1 -59 vhcurveto
          -62 -36 -71 -42 -71 hhcurveto
          -56 -47 32 52 386 callgsubr
          37 16 36 37 -39 22 -40 -34 -27 -10 -16 -21 hvcurveto
          -11 18 -6 21 21 429 callgsubr
          65 vhcurveto
          17 hlineto
          239 callgsubr
          -540 15 callgsubr
          305 hlineto
          16 26 1 3 29 hvcurveto
          -21 -25 -8 -31 -25 vvcurveto
          -47 23 -43 34 -31 vhcurveto
          -36 -44 -25 -57 -44 -36 253 callsubr
          -117 110 -99 113 72 58 41 48 35 vhcurveto
          -58 34 73 -49 86 hhcurveto
          63 50 23 38 36 hvcurveto
          -6 -34 -2 -38 -17 vvcurveto
          -45 14 -47 55 182 callgsubr
          35 -2 43 -30 128 callsubr
        </CharString>
        <CharString name="dvB_DH_VA">
          674 289 220 rmoveto
          -10 -19 -22 -5 -26 hhcurveto
          -60 -52 38 65 139 callgsubr
          544 51 callsubr
          301 hlineto
          10 -53 callsubr
          41 46 66 -29 callgsubr
          40 -41 27 -55 -72 -52 -42 -80 -33 vhcurveto
          -94 -40 -43 -92 -104 hhcurveto
          -51 -43 34 50 386 callgsubr
          37 16 36 37 -41 22 -40 -33 -26 -9 -15 -22 hvcurveto
          -10 18 -6 20 22 vvcurveto
          51 37 52 64 vhcurveto
          16 142 callgsubr
          -44 12 -42 vhcurveto
          -537 15 callgsubr
          298 hlineto
          20 25 1 3 31 hvcurveto
          -22 -25 -8 -31 -25 vvcurveto
          -46 22 -42 33 -32 vhcurveto
          -37 -41 -26 -56 -41 -37 -142 162 59 callsubr
          -116 109 -99 111 74 59 46 49 30 vhcurveto
          -59 31 75 -54 86 hhcurveto
          83 67 61 71 28 hvcurveto
          -64 37 70 -45 74 hhcurveto
          228 callsubr
          hvcurveto
          -7 -32 -3 -34 -34 vvcurveto
          -47 15 -48 55 5 16 1 4 7 vhcurveto
          -10 15 21 callgsubr
          -103 callsubr
        </CharString>
        <CharString name="dvB_JA">
          472 306 callsubr
          178 273 rmoveto
          0 -3 vlineto
          -370 15 callgsubr
          370 0 4 hlineto
          464 78 callsubr
          -37 -326 vlineto
          -2 -4 -2 -9 -7 vvcurveto
          -48 45 152 callgsubr
          -87 -70 271 callgsubr
          -42 vhcurveto
          -13 -19 -7 -27 -16 7 -28 13 -33 hvcurveto
          -17 -38 -26 -29 -29 -20 -147 168 rcurveline
          -56 callgsubr
          84 75 51 57 27 vhcurveto
          -68 45 66 -61 84 65 callgsubr
          -44 12 -42 vhcurveto
          endchar
        </CharString>
        <CharString name="dvB_JHA">
          497 895 83 callsubr
          -53 -1 -48 -46 vvcurveto
          -25 -26 -46 -20 -57 -66 -41 24 -52 -27 -26 -5 -23 hhcurveto
          -41 -25 21 26 44 58 10 32 hvcurveto
          20 28 -1 22 hhcurveto
          73 33 37 43 28 -14 32 -27 25 hvcurveto
          -475 -375 rmoveto
          -62 -54 41 258 callsubr
          160 -182 rlineto
          -355 455 -94 callsubr
          606 hlineto
          18 -13 12 -20 -16 vvcurveto
          -27 -25 -8 -28 vhcurveto
          -28 -21 1 -21 hhcurveto
          -84 -52 -38 -68 -82 90 -75 83 hvcurveto
          27 29 4 21 90 callsubr
          -11 -26 43 -40 hhcurveto
          -1 0 -62 hlineto
          -180 206 rlineto
          4 14 -60 callgsubr
          -89 -74 -61 -88 -117 113 -103 112 vhcurveto
          124 hlineto
          11 -38 36 -29 45 -19 rrcurveto
          79 callsubr
          -45 12 -41 vhcurveto
          endchar
        </CharString>
        <CharString name="dvB_J_YA">
          824 1217 -97 callgsubr
          -762 -358 rmoveto
          -9 -21 -22 -4 -21 hhcurveto
          -62 -54 37 66 34 callsubr
          959 172 callsubr
          -77 -107 -33 -29 -43 vhcurveto
          73 -64 -51 4 -105 hhcurveto
          -101 hlineto
          -2 -4 -2 -9 -7 vvcurveto
          -48 45 152 callgsubr
          -87 -70 271 callgsubr
          -42 vhcurveto
          -13 -19 -7 -27 -16 7 -28 13 -33 hvcurveto
          -17 -38 -26 -29 -29 -20 -147 168 rcurveline
          -56 callgsubr
          84 75 51 57 27 vhcurveto
          -68 45 66 -61 84 238 callsubr
          95 22 -9 -100 82 hvcurveto
          -56 46 77 -50 84 hhcurveto
          140 callgsubr
          hvcurveto
          -6 -36 -3 -40 -27 vvcurveto
          -49 13 -102 callgsubr
        </CharString>
        <CharString name="dvB_JxA">
          476 706 35 rmoveto
          -26 -17 -18 -24 -31 28 -28 31 26 17 19 24 30 -30 28 -29 hvcurveto
          -416 183 160 callsubr
          179 273 rmoveto
          0 -4 vlineto
          -370 15 callgsubr
          370 0 4 hlineto
          465 202 callgsubr
          -16 7 -27 13 -33 hvcurveto
          -18 -38 -25 -29 -30 -21 -147 168 rcurveline
          -56 callgsubr
          85 74 51 58 28 vhcurveto
          -68 44 66 -62 84 hhcurveto
          64 callsubr
          -42 vhcurveto
          endchar
        </CharString>
        <CharString name="dvB_LA">
          475 290 218 rmoveto
          -9 -21 -22 -4 -21 hhcurveto
          -62 -54 37 66 34 callsubr
          842 125 callsubr
          -85 -65 -55 -102 -2 hvcurveto
          -15 -21 -17 -17 -19 -13 -147 168 rcurveline
          -56 callgsubr
          55 51 23 31 35 vhcurveto
          -97 39 84 -78 41 hhcurveto
          -91 callgsubr
          22 -4 21 352 callgsubr
          18 36 21 36 hhcurveto
          24 21 -5 -10 18 hvcurveto
          -1 153 callsubr
          68 -52 callgsubr
        </CharString>
        <CharString name="dvB_L_YA">
          821 1214 -97 callgsubr
          -759 -358 rmoveto
          -9 -21 -22 -4 -21 hhcurveto
          -62 -54 37 66 34 callsubr
          956 172 callsubr
          -57 -58 -33 -45 -30 vhcurveto
          22 -23 -37 18 -45 380 callgsubr
          -82 -64 -52 -96 -6 hvcurveto
          -15 -25 -20 -20 -22 -15 -147 168 rcurveline
          -56 callgsubr
          58 52 24 34 35 vhcurveto
          -99 39 85 -80 42 hhcurveto
          -91 callgsubr
          22 -4 20 352 callgsubr
          19 33 22 40 hhcurveto
          10 10 -1 -3 10 hvcurveto
          -3 -5 -1 -5 -5 387 callsubr
          140 callgsubr
          vhcurveto
          -6 -36 -3 -40 -27 vvcurveto
          -49 13 -102 callgsubr
        </CharString>
        <CharString name="dvB_NA">
          -30 287 218 rmoveto
          -9 -21 -23 -5 -24 hhcurveto
          -59 -52 346 callsubr
          21 20 hvcurveto
          -195 272 14 callsubr
          338 hlineto
          10 callgsubr
          -64 -1 -58 -55 vvcurveto
          -14 -26 -17 -22 -21 -17 -145 165 rcurveline
          4 14 15 3 17 hhcurveto
          30 27 -10 -7 12 hvcurveto
          6 8 3 13 10 vvcurveto
          41 -45 28 -63 -88 -74 -61 -88 -94 76 -91 96 -17 vhcurveto
          -71 -30 -34 -28 -30 vvcurveto
          -44 59 -38 47 32 27 18 32 18 -8 20 -13 25 vhcurveto
          70 44 51 30 24 33 rrcurveto
          -8 -35 -5 -35 -37 vvcurveto
          -47 14 -48 55 5 17 1 4 6 vhcurveto
          -9 -59 callgsubr
        </CharString>
        <CharString name="dvB_R">
          -234 293 214 rmoveto
          -8 -21 -22 -4 -21 hhcurveto
          -64 -55 38 68 139 callgsubr
          40 24 272 callsubr
          -102 93 -102 108 9 8 1 1 8 vhcurveto
          -57 -33 -64 -29 -57 -17 rrcurveto
          -38 10 30 -15 27 hhcurveto
          83 214 180 89 25 -13 19 -24 8 hvcurveto
          -17 -44 -29 -33 -32 -22 rrcurveto
          -385 420 -94 callsubr
          460 16 callgsubr
        </CharString>
        <CharString name="dvB_RA">
          -28 290 218 rmoveto
          -9 -20 -23 -5 -24 hhcurveto
          -60 -53 40 64 34 callsubr
          338 318 callsubr
          253 callsubr
          -102 91 -101 106 vhcurveto
          123 callsubr
        </CharString>
        <CharString name="dvB_SA">
          484 881 576 3 callsubr
          -339 -360 rmoveto
          -7 -21 -21 -4 -21 hhcurveto
          -67 -52 41 62 34 callsubr
          533 -55 callsubr
          -2 hlineto
          50 -12 -18 47 -46 hhcurveto
          -34 -20 -29 -30 -23 8 -21 12 -17 hvcurveto
          -17 -27 -22 -22 -25 -16 -149 171 rcurveline
          -56 callgsubr
          93 79 56 64 30 vhcurveto
          6 -2 rlineto
          -93 callsubr
          50 275 callgsubr
          60 -12 51 hhcurveto
          26 21 2 4 16 hvcurveto
          -1 -53 -1 -50 -50 vvcurveto
          -41 4 -72 69 7 11 1 4 10 vhcurveto
          -10 15 -2 -89 callsubr
        </CharString>
        <CharString name="dvB_SHA">
          475 108 callsubr
          370 -101 callgsubr
          -26 -441 rmoveto
          -7 -21 -22 -3 -21 hhcurveto
          -67 -52 41 62 139 callgsubr
          40 24 rmoveto
          -56 callgsubr
          91 77 49 59 34 vhcurveto
          8 -4 8 -3 9 -3 rrcurveto
          -96 33 63 -140 112 85 callsubr
          13 -2 352 callsubr
          -5 -16 -15 -2 -16 hhcurveto
          -73 -50 54 87 -35 hvcurveto
          3 hlineto
          115 98 76 132 98 -78 131 -108 -66 -40 -54 -59 -84 72 -63 50 12 11 6 11 6 hvcurveto
          -39 19 -30 43 40 vvcurveto
          38 20 30 37 50 28 -58 -59 -107 -71 -59 -95 337 callgsubr
          -28 54 -45 hhcurveto
          -32 -19 -24 -28 -17 5 -16 9 -15 hvcurveto
          -18 -24 -22 -20 -24 -15 rrcurveto
          489 422 rmoveto
          -2 -4 -1 305 callsubr
          12 185 callsubr
          254 callgsubr
          35 -2 43 -30 20 vhcurveto
          163 91 callgsubr
        </CharString>
        <CharString name="dvB_TA">
          291 290 218 rmoveto
          -9 -21 -22 -4 -21 hhcurveto
          -62 -54 37 66 34 callsubr
          658 353 callsubr
          -91 -69 -46 -94 -5 hvcurveto
          -15 -24 -20 -19 -21 -15 -147 168 rcurveline
          -56 callgsubr
          57 52 24 33 35 vhcurveto
          -94 33 70 -81 34 hhcurveto
          345 callgsubr
          hvcurveto
          -75 callgsubr
        </CharString>
        <CharString name="dvB_VA">
          302 290 218 rmoveto
          -9 -21 -22 -4 -21 hhcurveto
          -62 -54 37 66 34 callsubr
          668 hlineto
          -51 callsubr
          -68 -81 -47 -97 -14 2 -15 4 -14 vhcurveto
          -17 -27 -21 -22 -23 -16 -147 168 rcurveline
          -56 callgsubr
          75 67 42 49 30 vhcurveto
          -50 41 61 -34 63 hhcurveto
          228 callsubr
          hvcurveto
          -7 -32 -3 -34 -34 -79 callsubr
        </CharString>
        <CharString name="dvB_YA">
          351 744 -97 callgsubr
          -289 -358 rmoveto
          -9 -21 -22 -4 -21 hhcurveto
          -62 -54 37 66 34 callsubr
          486 hlineto
          134 callgsubr
          -92 -154 -30 -57 vvcurveto
          -11 3 -12 4 -13 vhcurveto
          -16 -27 -21 -22 -24 -17 -147 168 rcurveline
          -56 callgsubr
          81 72 49 54 26 vhcurveto
          -47 46 69 -38 73 hhcurveto
          140 callgsubr
          hvcurveto
          -6 -36 -3 -40 -27 vvcurveto
          -49 13 -102 callgsubr
        </CharString>
        <CharString name="dvC">
          -181 466 -14 callsubr
          -455 hlineto
          -70 callgsubr
          329 -192 rmoveto
          -11 callsubr
          -98 101 -94 111 99 80 71 60 23 -11 26 -32 13 vhcurveto
          -82 -36 -77 -37 -63 344 callsubr
          endchar
        </CharString>
        <CharString name="dvCA">
          38 -71 27 callsubr
          423 hlineto
          399 callsubr
          -63 -1 -56 -1 -52 vhcurveto
          -77 -31 -64 -32 -55 hhcurveto
          -55 -49 33 54 7 callsubr
          -98 101 -94 111 44 47 18 35 29 vhcurveto
          361 callgsubr
          55 5 16 1 4 7 vhcurveto
          -10 15 21 callgsubr
          -103 callsubr
        </CharString>
        <CharString name="dvCH">
          79 706 576 46 callgsubr
        </CharString>
        <CharString name="dvCHA">
          80 431 576 93 callgsubr
          41 39 369 callgsubr
          -106 -113 -25 callgsubr
          111 164 75 -37 76 -62 28 vhcurveto
          343 callgsubr
          -45 12 -41 vhcurveto
          endchar
        </CharString>
        <CharString name="dvCH_R">
          79 331 13 43 callgsubr
          375 563 46 callgsubr
        </CharString>
        <CharString name="dvCH_RA">
          79 332 14 rmoveto
          -55 -129 -93 -49 -23 320 callgsubr
          6 8 10 12 vvcurveto
          41 -144 126 -63 vhcurveto
          99 562 93 callgsubr
          41 39 369 callgsubr
          -106 -113 -25 callgsubr
          111 164 75 -37 76 -62 28 vhcurveto
          343 callgsubr
          -45 12 -41 vhcurveto
          endchar
        </CharString>
        <CharString name="dvCH_R_YA">
          656 341 14 rmoveto
          -55 -128 -93 -49 -23 375 callgsubr
          hvcurveto
          75 71 293 callsubr
          710 562 -35 callgsubr
          -86 -1 -76 -2 -72 vhcurveto
          -64 -41 -75 -25 -56 hhcurveto
          -41 -46 18 31 hvcurveto
          50 133 23 78 vvcurveto
          60 -55 78 -103 -74 -80 -17 -25 -55 vhcurveto
          31 -27 -37 20 -43 hhcurveto
          -37 -37 -24 -43 -39 34 -36 48 32 27 20 31 4 hvcurveto
          14 -17 6 -25 -26 vvcurveto
          -118 -106 -108 -25 callgsubr
          108 159 24 -4 25 -9 24 vhcurveto
          21 62 72 17 77 hhcurveto
          33 17 -15 -20 hvcurveto
          -47 -147 -36 -67 vvcurveto
          -65 97 -91 107 267 callgsubr
          8 11 1 4 9 vhcurveto
          -9 -59 callgsubr
        </CharString>
        <CharString name="dvCH_YA">
          656 1051 144 callgsubr
          -103 -71 -76 -16 -23 -55 vhcurveto
          -15 19 -18 15 -21 10 277 callgsubr
          -65 hmoveto
          9 -12 4 -25 1 -27 rrcurveto
          -51 -13 -27 -54 -48 vvcurveto
          -74 47 -62 33 9 7 5 5 2 vhcurveto
          -11 12 -18 25 44 vvcurveto
          43 21 46 41 39 369 callgsubr
          -106 -113 -25 callgsubr
          111 164 22 -3 23 -6 21 vhcurveto
          21 60 72 16 75 hhcurveto
          33 17 -15 -20 hvcurveto
          -47 -147 -36 -67 vvcurveto
          -65 97 -91 107 267 callgsubr
          8 11 1 4 9 vhcurveto
          -9 -59 callgsubr
        </CharString>
        <CharString name="dvC_CA">
          379 405 384 rmoveto
          21 25 3 5 24 hvcurveto
          -18 -20 -8 -25 -25 vvcurveto
          -11 1 -11 3 -11 vhcurveto
          -58 -41 -63 -27 -53 302 callsubr
          67 hvcurveto
          -373 272 -94 callgsubr
          748 227 callgsubr
          -55 -1 -52 vhcurveto
          -79 -30 -64 -32 -56 302 callsubr
          67 hvcurveto
          39 309 callgsubr
          -585 hlineto
          -2 -3 -1 -44 callsubr
          -50 47 -11 37 19 25 3 5 24 vhcurveto
          -18 -20 -8 -25 -25 vvcurveto
          -98 100 -94 112 70 60 35 42 30 vhcurveto
          -45 39 61 -32 65 hhcurveto
          45 47 18 36 28 hvcurveto
          -5 -32 414 callgsubr
          55 4 17 1 4 7 vhcurveto
          -10 15 21 callgsubr
          -103 callsubr
        </CharString>
        <CharString name="dvC_CHA">
          465 816 576 55 callsubr
          -40 21 -40 -30 -24 -7 -11 -21 hvcurveto
          -10 20 -5 23 22 324 callgsubr
          -662 77 callgsubr
          397 hlineto
          20 20 1 3 28 hvcurveto
          -21 -27 -9 -34 -29 vvcurveto
          -48 19 -44 31 -34 vhcurveto
          -62 -62 -32 -98 -109 hhcurveto
          -55 -48 34 53 7 callsubr
          -98 99 -93 110 60 47 29 34 29 vhcurveto
          -86 42 110 -58 105 229 callsubr
        </CharString>
        <CharString name="dvC_CH_VA">
          449 801 576 rmoveto
          9 -12 4 -25 1 -27 rrcurveto
          -55 -13 -30 -55 -53 vvcurveto
          -91 55 -47 15 -96 vhcurveto
          -22 -38 -46 -12 -51 hhcurveto
          -83 -72 44 73 35 19 25 23 16 hvcurveto
          -7 18 19 -4 19 hhcurveto
          31 35 16 35 36 -40 21 -41 -27 -23 -7 -10 -19 hvcurveto
          -11 20 -5 22 23 324 callgsubr
          350 -218 rmoveto
          -61 -27 -59 -46 -43 vhcurveto
          -24 52 -28 43 65 vvcurveto
          48 26 40 39 40 20 -41 -44 vhcurveto
          -123 -387 rmoveto
          -60 -31 -54 -39 -58 hhcurveto
          -50 -43 35 48 64 58 27 85 4 hvcurveto
          34 1 31 6 29 8 rrcurveto
          -32 -1 -34 -28 vvcurveto
          -874 685 14 callsubr
          369 hlineto
          27 23 1 2 31 hvcurveto
          -21 -26 -8 -34 -29 vvcurveto
          -48 20 -45 30 -34 vhcurveto
          -62 -58 -32 -97 -103 hhcurveto
          -54 -45 35 52 7 callsubr
          -97 96 -93 109 52 46 26 36 28 vhcurveto
          20 -41 36 -35 46 -23 rrcurveto
          -36 -19 -25 -36 -51 vvcurveto
          -90 99 -99 102 40 42 15 31 29 vhcurveto
          -3 -17 -3 -20 -20 vvcurveto
          -50 15 -46 52 7 9 1 4 8 vhcurveto
          -8 14 -3 40 33 101 4 70 95 vvcurveto
          18 -1 17 -3 16 vhcurveto
          70 47 41 78 98 vvcurveto
          70 -36 79 -63 29 vhcurveto
          -2 29 -5 29 -19 15 rrcurveto
          210 -100 callsubr
        </CharString>
        <CharString name="dvC_MA">
          408 805 57 callsubr
          -661 77 callgsubr
          508 hlineto
          -13 callgsubr
          -19 vhcurveto
          -39 -2 -22 -9 -19 -26 rrcurveto
          -43 -31 -31 -84 -96 hhcurveto
          -55 -49 33 54 7 callsubr
          -98 101 -94 111 69 61 46 49 24 vhcurveto
          -19 20 25 -14 24 303 callgsubr
          199 hlineto
          -1 -63 -1 -57 -58 -81 callgsubr
          endchar
        </CharString>
        <CharString name="dvC_NA">
          38 -71 27 callsubr
          423 hlineto
          399 callsubr
          -63 -1 -56 -1 -52 vhcurveto
          -77 -31 -64 -32 -55 hhcurveto
          -55 -49 33 54 7 callsubr
          -83 71 -77 83 -13 vhcurveto
          -89 -43 -52 -34 -35 vvcurveto
          -44 59 -38 47 32 27 18 32 17 -8 21 -13 25 vhcurveto
          89 56 55 29 32 39 rrcurveto
          -6 -34 -3 -36 -36 vvcurveto
          -45 13 -47 55 5 16 1 4 7 -9 callsubr
          239 callgsubr
          endchar
        </CharString>
        <CharString name="dvC_R">
          -181 466 -14 callsubr
          -455 hlineto
          -70 callgsubr
          329 -192 rmoveto
          -11 callsubr
          -85 76 -79 86 -11 vhcurveto
          -63 -33 -70 -29 -58 -12 rrcurveto
          -38 4 27 -25 38 hhcurveto
          84 265 161 99 19 -11 22 -30 12 hvcurveto
          -82 -36 -77 -37 -63 344 callsubr
          endchar
        </CharString>
        <CharString name="dvC_RA">
          38 -71 27 callsubr
          423 hlineto
          399 callsubr
          -63 -1 -56 -1 -52 vhcurveto
          -77 -31 -64 -32 -55 hhcurveto
          -55 -49 33 54 7 callsubr
          -85 76 -79 86 -11 vhcurveto
          -63 -33 -70 -29 -58 -12 rrcurveto
          -39 4 28 -26 40 hhcurveto
          64 159 106 77 67 hvcurveto
          -6 -35 -3 -35 -35 vvcurveto
          -45 13 -47 55 5 16 1 4 7 -9 callsubr
          239 callgsubr
          endchar
        </CharString>
        <CharString name="dvC_YA">
          413 806 72 callsubr
          -712 77 callgsubr
          567 172 callsubr
          -79 -99 -23 -43 -51 vhcurveto
          -43 -37 -9 -120 -121 hhcurveto
          -56 -45 38 49 7 callsubr
          -97 97 -93 108 84 59 55 57 23 vhcurveto
          -51 44 74 -44 79 hhcurveto
          213 callsubr
          hvcurveto
          199 callsubr
          12 -102 callgsubr
        </CharString>
        <CharString name="dvCandrabindu">
          -152 905 191 callsubr
          -170 6 141 callgsubr
        </CharString>
        <CharString name="dvD">
          -104 260 -7 -61 callgsubr
          263 583 9 callsubr
          -41 vhcurveto
          -492 hlineto
          -70 callgsubr
          269 381 callgsubr
          -108 127 -105 131 21 21 2 6 19 vhcurveto
          -49 25 43 -47 52 hhcurveto
          43 22 28 29 23 -12 21 -17 14 hvcurveto
          -19 -13 -16 -12 -22 hhcurveto
          -24 -20 14 18 -16 hvcurveto
          25 18 16 27 37 vvcurveto
          41 -31 45 -41 -37 -25 -30 -35 -17 4 -15 7 -13 vhcurveto
          -9 -21 -23 -4 -24 hhcurveto
          -67 -68 36 72 hvcurveto
          156 279 423 callsubr
          endchar
        </CharString>
        <CharString name="dvDA">
          -109 -50 27 callsubr
          269 381 callgsubr
          -108 127 -105 131 327 callsubr
          vhcurveto
          -65 callgsubr
        </CharString>
        <CharString name="dvDA_mvR">
          -118 354 callgsubr
          251 hlineto
          18 -12 13 -21 -17 vvcurveto
          -18 -13 -17 -33 vhcurveto
          -25 -23 1 -19 hhcurveto
          -88 -48 -44 -66 -36 16 -36 25 -30 hvcurveto
          -26 -22 -18 -32 -40 vvcurveto
          -95 108 -83 113 96 72 45 58 31 -25 28 -27 4 vhcurveto
          -62 -26 -66 -32 -67 hhcurveto
          -53 -49 29 50 29 17 17 19 12 hvcurveto
          -8 16 18 -4 17 hhcurveto
          33 36 17 36 37 -40 21 -41 -21 -22 -4 -7 -20 hvcurveto
          -8 14 -5 14 15 vvcurveto
          36 25 30 62 vhcurveto
          19 22 -1 16 hhcurveto
          82 25 43 34 31 -15 30 -26 25 hvcurveto
          168 16 callgsubr
        </CharString>
        <CharString name="dvDD">
          -94 247 -21 -61 callgsubr
          -296 677 -47 callsubr
        </CharString>
        <CharString name="dvDDA">
          -94 -49 656 -47 callsubr
        </CharString>
        <CharString name="dvDDH">
          -99 229 -11 -61 callgsubr
          -286 667 225 callsubr
          257 297 callsubr
          -83 -279 13 -202 -63 callgsubr
        </CharString>
        <CharString name="dvDDHA">
          -99 -57 656 225 callsubr
          257 297 callsubr
          -83 -279 13 -202 -63 callgsubr
        </CharString>
        <CharString name="dvDDH_DDHA">
          -87 -73 callgsubr
          257 hlineto
          11 -9 11 -12 -13 -69 -280 13 -163 vvcurveto
          -84 72 -75 83 -35 vhcurveto
          -80 -25 -76 -47 -86 vvcurveto
          -117 143 -98 120 106 69 54 69 83 -74 60 -74 -50 -51 -29 -56 -40 28 -27 29 6 8 1 4 7 vhcurveto
          -5 15 -1 13 2 14 rrcurveto
          25 4 19 20 30 hhcurveto
          25 24 -18 -32 -50 -58 -40 -73 -82 -75 49 73 hvcurveto
          166 363 -52 180 vvcurveto
          78 -75 60 -72 -50 -51 -30 -55 -40 28 -27 29 6 8 1 3 7 vhcurveto
          -5 12 -2 12 1 12 rrcurveto
          30 3 21 22 30 hhcurveto
          26 24 -18 -33 -51 -62 -42 -75 -79 -73 49 72 hvcurveto
          134 275 -31 121 vvcurveto
          25 -15 20 -16 14 vhcurveto
          194 91 callgsubr
        </CharString>
        <CharString name="dvDDH_R">
          -99 427 -191 39 callgsubr
          -307 805 225 callsubr
          257 297 callsubr
          -83 -279 13 -202 -63 callgsubr
        </CharString>
        <CharString name="dvDDH_RA">
          -99 244 -1 rmoveto
          -54 -129 -93 -49 -23 13 -20 28 -10 hvcurveto
          75 70 293 callsubr
          -301 657 225 callsubr
          257 297 callsubr
          -83 -279 13 -202 -63 callgsubr
        </CharString>
        <CharString name="dvDDH_VA">
          -99 282 112 rmoveto
          12 12 1 1 11 hvcurveto
          1 -9 0 -10 -9 -24 -1 -40 -31 vvcurveto
          -40 -30 -45 -21 -53 hhcurveto
          -48 -43 29 49 59 52 45 132 hvcurveto
          -339 544 225 callsubr
          257 hlineto
          12 -8 9 -13 -14 -67 -279 18 -164 vvcurveto
          -69 43 -62 63 -39 vhcurveto
          -60 -17 -42 -42 -58 vvcurveto
          -89 93 -93 100 39 35 11 23 27 vhcurveto
          -3 -17 -3 -23 -19 vvcurveto
          -43 17 -37 44 5 10 1 4 7 vhcurveto
          -8 13 -2 37 31 74 3 79 72 vvcurveto
          21 -1 26 -9 19 vhcurveto
          50 23 28 40 45 vvcurveto
          75 -75 59 -72 -49 -50 -28 -54 -39 27 -24 28 6 8 1 3 6 vhcurveto
          -3 9 -1 11 11 vvcurveto
          32 4 24 18 26 hhcurveto
          26 23 -18 -32 -48 -60 -39 -74 -91 -62 50 71 hvcurveto
          137 275 -36 118 vvcurveto
          26 -14 20 -17 14 vhcurveto
          189 -100 callgsubr
        </CharString>
        <CharString name="dvDDH_YA">
          500 894 256 callgsubr
          -73 -23 -55 hhcurveto
          -41 406 callgsubr
          -62 80 -94 -119 -101 -112 -67 -40 vhcurveto
          5 -16 -17 3 -16 hhcurveto
          -54 -47 -35 -56 -44 31 -25 31 7 7 1 3 6 hvcurveto
          -2 11 -1 13 1 12 rrcurveto
          36 3 24 20 27 hhcurveto
          24 23 -18 -34 -58 -58 -47 -73 -81 -76 54 80 hvcurveto
          170 278 -30 127 vvcurveto
          32 -16 24 -18 17 vhcurveto
          -403 77 callgsubr
          257 297 callsubr
          -83 -279 13 -202 vvcurveto
          -131 147 -100 116 102 74 57 82 38 -15 33 -23 25 vhcurveto
          77 52 88 74 92 hhcurveto
          32 16 372 callgsubr
          56 46 377 callgsubr
          53 7 11 1 4 10 vhcurveto
          -10 15 -2 -89 callsubr
        </CharString>
        <CharString name="dvDDHxA">
          -99 253 -23 -68 callgsubr
          -310 679 225 callsubr
          257 297 callsubr
          -83 -279 13 -202 -63 callgsubr
        </CharString>
        <CharString name="dvDD_DDA">
          -84 -71 callgsubr
          289 hlineto
          15 -11 10 -14 -14 vvcurveto
          -19 -15 -11 -33 364 callgsubr
          -83 -50 -36 -57 -81 91 -63 81 hvcurveto
          42 389 callgsubr
          -41 -70 -23 -70 -96 -82 34 59 -50 hvcurveto
          -6 -3 -12 -6 -19 vvcurveto
          -26 36 -40 60 -29 vhcurveto
          -31 -14 -17 -24 -32 vvcurveto
          -78 90 -60 81 vhcurveto
          42 389 callgsubr
          -42 -70 -23 -70 -96 -82 35 58 -50 hvcurveto
          -6 -3 -12 -6 -18 vvcurveto
          -50 130 -93 156 91 74 44 71 56 -58 80 -98 vhcurveto
          -39 -43 -6 -35 hhcurveto
          -39 -26 13 29 35 59 10 39 hvcurveto
          14 33 -2 29 hhcurveto
          91 73 45 71 56 -58 80 -98 hvcurveto
          -39 -43 -7 -35 hhcurveto
          -39 -26 14 28 36 59 9 39 hvcurveto
          28 26 -1 26 hhcurveto
          85 21 42 31 26 -14 25 -23 20 hvcurveto
          176 16 callgsubr
        </CharString>
        <CharString name="dvDD_DDHA">
          -74 -51 656 243 callgsubr
          -35 -58 -81 91 -63 82 hvcurveto
          41 389 callgsubr
          -43 -69 -21 -71 -96 -81 34 59 -51 hvcurveto
          -6 -3 -12 -6 -19 vvcurveto
          -33 60 -56 86 -29 vhcurveto
          -74 -25 -56 -43 -75 vvcurveto
          -119 147 -92 114 107 69 54 69 82 -75 61 -73 -50 -51 -30 -56 -40 28 -27 28 7 8 1 4 6 vhcurveto
          -4 13 -2 13 1 12 rrcurveto
          28 4 20 22 30 hhcurveto
          26 24 -18 -33 -49 -59 -40 -73 -82 -75 48 74 96 132 28 114 25 hvcurveto
          62 12 52 37 58 vvcurveto
          56 -58 80 -98 vhcurveto
          -39 -42 -6 -36 hhcurveto
          -39 -26 13 29 37 59 8 411 callsubr
          86 21 42 31 26 -15 25 -23 20 264 callgsubr
        </CharString>
        <CharString name="dvDD_R">
          -94 433 -206 39 callgsubr
          -305 820 -47 callsubr
        </CharString>
        <CharString name="dvDD_RA">
          -94 252 -12 rmoveto
          -55 291 callgsubr
          320 callgsubr
          120 callsubr
          -63 vhcurveto
          -301 668 -47 callsubr
        </CharString>
        <CharString name="dvDD_VA">
          -76 327 36 rmoveto
          -27 0 -22 -19 vvcurveto
          -37 -31 -43 -18 -41 hhcurveto
          -47 -42 27 49 46 40 41 99 1 hvcurveto
          23 21 2 2 19 hvcurveto
          2 -12 0 -17 -16 vvcurveto
          -378 620 243 callgsubr
          -37 -63 -85 91 -66 82 hvcurveto
          39 44 6 30 hhcurveto
          35 16 -16 -21 -46 -68 -24 -70 -95 -81 37 64 -50 hvcurveto
          -8 -3 -12 -6 -18 vvcurveto
          -30 45 -50 70 -30 vhcurveto
          -45 -18 -35 -36 -52 vvcurveto
          -83 87 -87 98 37 29 11 20 23 vhcurveto
          -3 -13 -1 -14 -14 vvcurveto
          -41 18 -37 44 8 8 1 4 7 vhcurveto
          -9 14 -2 39 32 69 3 38 60 vvcurveto
          27 -1 35 -18 20 vhcurveto
          57 19 31 35 49 vvcurveto
          74 -69 73 -90 vhcurveto
          -38 -41 -6 -35 hhcurveto
          -39 -26 14 28 39 59 9 411 callsubr
          86 21 42 33 26 -15 27 -23 20 264 callgsubr
        </CharString>
        <CharString name="dvDD_YA">
          490 894 576 -35 callgsubr
          -88 -1 -78 -1 -72 vhcurveto
          -61 -40 -74 -24 -54 hhcurveto
          -42 406 callgsubr
          -60 80 -90 -123 -104 -122 -69 -36 vhcurveto
          8 -19 -21 4 -22 -36 -39 -6 -33 hhcurveto
          -38 -29 17 33 347 callgsubr
          hvcurveto
          28 17 -1 26 hhcurveto
          80 25 42 37 30 -13 29 -24 23 hvcurveto
          -420 -46 callgsubr
          277 68 callgsubr
          -22 1 -29 291 callsubr
          -92 92 -69 82 hvcurveto
          37 42 37 callgsubr
          -51 186 callgsubr
          -53 130 -102 157 99 65 55 74 36 -14 36 -25 29 vhcurveto
          83 51 90 83 95 hhcurveto
          28 15 372 callgsubr
          57 46 20 29 35 vhcurveto
          -3 -19 -2 -19 -14 vvcurveto
          -44 13 -45 52 122 callsubr
        </CharString>
        <CharString name="dvDDxA">
          -94 256 -54 -68 callgsubr
          -305 710 -47 callsubr
        </CharString>
        <CharString name="dvDH">
          -193 240 576 rmoveto
          -47 callgsubr
          -82 96 -97 122 114 99 80 67 23 -13 24 -36 7 vhcurveto
          -79 -35 -80 -53 -87 88 callgsubr
          -28 -8 -14 312 callsubr
          21 vvcurveto
          51 37 52 64 vhcurveto
          endchar
        </CharString>
        <CharString name="dvDHA">
          20 369 210 callgsubr
          -64 -1 -60 vhcurveto
          -61 -37 -70 -41 -70 88 callgsubr
          -29 -8 -15 -24 hvcurveto
          -10 18 -5 19 20 429 callgsubr
          65 vhcurveto
          16 hlineto
          -47 callgsubr
          -82 96 -97 122 362 callgsubr
          -38 -17 vvcurveto
          -45 13 -47 55 -80 callsubr
          35 -2 43 -31 3 callgsubr
        </CharString>
        <CharString name="dvDH_MA">
          377 774 106 callsubr
          -75 3 -63 371 callsubr
          -247 77 callgsubr
          93 hlineto
          -13 callgsubr
          -19 vhcurveto
          -75 -3 2 -23 -35 -61 rrcurveto
          -66 -39 -57 -29 -53 hhcurveto
          -52 -46 30 51 95 callgsubr
          -28 -8 -14 312 callsubr
          21 vvcurveto
          51 37 52 64 vhcurveto
          16 hlineto
          -47 callgsubr
          -80 93 -95 119 78 68 50 56 30 vhcurveto
          -19 20 24 -13 24 hhcurveto
          35 16 34 59 7 hvcurveto
          200 hlineto
          -1 -63 -1 -57 -58 vvcurveto
          -41 3 -72 69 217 callsubr
        </CharString>
        <CharString name="dvDH_NA">
          20 369 210 callgsubr
          -65 -2 -60 vhcurveto
          -60 -31 -71 -41 -74 88 callgsubr
          -29 -8 -15 -24 hvcurveto
          -10 18 -5 19 20 429 callgsubr
          65 vhcurveto
          16 hlineto
          -47 callgsubr
          -68 60 -68 82 -21 vhcurveto
          -81 -27 -53 -32 -37 vvcurveto
          -43 58 -42 48 31 26 18 32 16 -6 19 -10 24 vhcurveto
          103 51 69 18 41 48 rrcurveto
          -7 -35 -2 -41 -19 vvcurveto
          -45 13 -47 55 -80 callsubr
          35 -2 43 -31 3 callgsubr
        </CharString>
        <CharString name="dvDH_N_YA">
          389 782 -56 callsubr
          -266 77 callgsubr
          121 172 callsubr
          -55 -57 -36 -46 -31 vhcurveto
          -62 -94 10 -150 -153 hhcurveto
          -50 -41 33 49 31 14 21 19 43 callsubr
          -28 -8 -14 312 callsubr
          21 vvcurveto
          51 37 52 64 vhcurveto
          16 hlineto
          -47 callgsubr
          -63 55 -70 79 -27 vhcurveto
          -103 -25 -52 -32 -36 vvcurveto
          -44 59 -42 47 31 27 18 32 17 -7 21 -11 26 vhcurveto
          165 44 73 67 30 73 rrcurveto
          -54 42 78 -49 84 hhcurveto
          315 callsubr
          hvcurveto
          -6 -43 callgsubr
          -45 12 -41 vhcurveto
          endchar
        </CharString>
        <CharString name="dvDH_R">
          -193 240 576 rmoveto
          -47 callgsubr
          -80 88 -86 106 vhcurveto
          9 hlineto
          -68 -29 -79 -26 -59 -11 rrcurveto
          -38 1 27 -26 36 hhcurveto
          94 273 165 103 21 -12 23 -34 6 hvcurveto
          -79 -35 -80 -53 -87 88 callgsubr
          -29 -8 -15 -24 hvcurveto
          -10 18 -5 19 20 429 callgsubr
          65 vhcurveto
          endchar
        </CharString>
        <CharString name="dvDH_RA">
          20 369 210 callgsubr
          -64 -1 -60 vhcurveto
          -61 -37 -70 -41 -70 88 callgsubr
          -29 -8 -15 -24 hvcurveto
          -10 18 -5 19 20 429 callgsubr
          65 vhcurveto
          16 hlineto
          -47 callgsubr
          -78 85 -85 103 -3 vhcurveto
          -64 -30 -73 -26 -54 -10 rrcurveto
          -39 1 30 -27 39 hhcurveto
          58 165 89 107 80 hvcurveto
          -9 -37 -2 -48 -20 vvcurveto
          -45 13 -47 55 -80 callsubr
          35 -2 43 -31 3 callgsubr
        </CharString>
        <CharString name="dvDH_VA">
          343 334 143 callgsubr
          -42 36 49 95 callgsubr
          -28 -8 -14 312 callsubr
          21 vvcurveto
          51 37 52 64 vhcurveto
          16 hlineto
          -47 callgsubr
          -81 91 -96 117 84 64 60 72 32 vhcurveto
          -64 38 71 -46 74 hhcurveto
          45 46 18 34 29 hvcurveto
          -7 -32 -4 -35 -34 vvcurveto
          -47 15 -48 55 218 callsubr
        </CharString>
        <CharString name="dvDH_YA">
          389 782 -56 callsubr
          -266 77 callgsubr
          121 172 callsubr
          -55 -57 -36 -46 -31 vhcurveto
          -62 -94 10 -150 -153 hhcurveto
          -50 -41 33 49 31 14 21 19 43 callsubr
          -28 -8 -14 312 callsubr
          21 vvcurveto
          51 37 52 64 vhcurveto
          16 hlineto
          -47 callgsubr
          -80 90 -93 115 87 73 64 67 28 vhcurveto
          -54 43 77 -48 84 hhcurveto
          315 callsubr
          hvcurveto
          -6 -43 callgsubr
          -45 12 -41 vhcurveto
          endchar
        </CharString>
        <CharString name="dvD_BA">
          -38 297 414 callsubr
          21 6 4 -54 -20 -42 -35 -27 -99 111 rcurveline
          1 10 11 1 12 hhcurveto
          29 -133 rmoveto
          -7 -19 -21 -4 -23 hhcurveto
          -48 -48 23 45 26 15 24 37 14 hvcurveto
          -219 518 176 callsubr
          39 -53 58 -36 vhcurveto
          -48 -16 -34 -36 -48 vvcurveto
          -96 115 -66 80 113 63 77 77 1 vhcurveto
          -24 23 28 -17 35 165 callgsubr
          -27 39 -39 11 callsubr
        </CharString>
        <CharString name="dvD_BHA">
          138 357 callgsubr
          477 hlineto
          9 -8 7 -9 -11 -72 -296 35 -165 vvcurveto
          -78 86 -82 103 -22 vhcurveto
          -39 -16 -40 -16 -39 -17 rrcurveto
          94 -55 -77 62 -72 hhcurveto
          -50 -38 -34 -46 -51 44 -48 45 14 16 5 14 6 hvcurveto
          -28 13 -17 29 25 vvcurveto
          20 14 17 22 35 39 -67 -54 26 vhcurveto
          6 -12 rlineto
          -27 -15 -27 -20 -28 vvcurveto
          -46 61 -29 44 36 27 17 34 16 -5 17 -6 17 vhcurveto
          224 116 rlineto
          -55 27 41 -56 64 hhcurveto
          42 24 230 callsubr
          -16 -11 -21 hhcurveto
          -32 -29 23 25 -19 hvcurveto
          25 19 16 29 36 vvcurveto
          38 -27 39 -39 -36 -26 -28 -35 -16 4 -14 8 -14 vhcurveto
          -9 -24 -28 -5 -28 hhcurveto
          -64 -73 27 66 hvcurveto
          126 293 -45 119 vvcurveto
          24 -12 20 -15 14 vhcurveto
          202 16 callgsubr
        </CharString>
        <CharString name="dvD_B_RA">
          -38 297 150 rmoveto
          25 1 25 3 22 6 5 -54 -21 -44 -35 -27 -101 113 rcurveline
          1 10 11 1 12 hhcurveto
          31 -135 rmoveto
          -7 -19 -22 -4 -22 hhcurveto
          -49 -49 24 46 26 15 24 37 14 hvcurveto
          -219 518 176 callsubr
          39 -53 58 -36 vhcurveto
          -48 -16 -34 -36 -48 vvcurveto
          -82 79 -56 82 vhcurveto
          4 6 0 5 hhcurveto
          -47 -22 -50 -16 -45 -12 rrcurveto
          -39 4 29 -14 30 hhcurveto
          61 202 99 135 11 hvcurveto
          -25 23 28 -17 36 165 callgsubr
          -26 39 -40 11 callsubr
        </CharString>
        <CharString name="dvD_DA">
          -115 354 callgsubr
          259 hlineto
          17 -12 13 -21 -17 vvcurveto
          -18 -13 -17 -32 vhcurveto
          -28 -26 1 -21 hhcurveto
          -88 -48 -44 -66 -34 16 -33 25 -28 hvcurveto
          -27 -23 -18 -32 -40 vvcurveto
          -83 104 -100 127 32 33 6 12 27 vhcurveto
          9 -17 3 -17 -16 vvcurveto
          -33 -23 -23 -36 -4 vhcurveto
          -34 6 29 -20 28 hhcurveto
          43 28 31 45 42 -21 40 -27 33 hvcurveto
          17 18 11 23 30 vvcurveto
          39 -30 41 -40 -32 -22 -25 -29 -19 7 -17 12 -16 vhcurveto
          -15 -25 -29 -8 -36 hhcurveto
          -62 -56 31 56 28 16 21 19 12 hvcurveto
          -7 17 17 -4 18 hhcurveto
          32 36 17 36 37 -40 21 -40 -22 -22 -4 -8 -21 hvcurveto
          -7 11 -4 13 12 vvcurveto
          35 25 30 63 vhcurveto
          22 25 -1 18 hhcurveto
          80 25 43 35 31 -15 30 -26 25 hvcurveto
          168 -26 callsubr
        </CharString>
        <CharString name="dvD_DHA">
          98 433 150 164 callsubr
          -53 41 -54 59 -36 vhcurveto
          -17 -59 -26 -40 -56 hhcurveto
          -32 -20 18 29 hvcurveto
          38 40 35 47 vvcurveto
          40 -28 23 -33 -5 -6 -1 -1 -4 vhcurveto
          3 -8 1 -8 -8 -41 -41 -32 -51 vvcurveto
          -75 77 -67 75 15 14 3 5 13 vhcurveto
          -86 1 106 -58 74 hhcurveto
          114 63 74 74 1 hvcurveto
          -24 23 28 -17 34 hhcurveto
          42 25 230 callsubr
          -17 -11 -21 hhcurveto
          -31 -30 23 25 -19 hvcurveto
          26 20 16 27 37 vvcurveto
          38 -28 39 -38 11 callsubr
        </CharString>
        <CharString name="dvD_GA">
          241 callgsubr
          11 -9 6 -11 -12 -76 -309 32 -192 -100 120 -53 -90 vvcurveto
          -24 -5 -13 -9 -17 vhcurveto
          26 -12 -26 14 -21 hhcurveto
          -26 -21 -18 -30 -55 54 -41 48 57 37 46 65 40 -13 36 -20 32 hvcurveto
          -14 35 38 -7 33 hhcurveto
          22 22 3 5 20 hvcurveto
          -57 27 43 -60 65 hhcurveto
          42 24 28 32 21 322 callgsubr
          -33 -30 24 27 -19 hvcurveto
          28 18 17 28 38 vvcurveto
          39 -27 38 -40 -35 -27 -27 -37 -14 4 -14 6 -12 vhcurveto
          -10 -23 -27 -4 -28 hhcurveto
          -67 -79 30 74 hvcurveto
          149 305 -46 129 vvcurveto
          26 -12 22 -15 15 vhcurveto
          endchar
        </CharString>
        <CharString name="dvD_GHA">
          98 276 198 rmoveto
          -17 -58 -25 -39 -54 hhcurveto
          -35 -23 19 32 33 27 24 44 55 24 -29 -23 45 hvcurveto
          157 -48 164 callsubr
          -13 3 -14 5 -13 vhcurveto
          9 -22 -24 5 -18 hhcurveto
          -81 -29 -48 -41 -78 77 -67 76 15 13 2 5 13 hvcurveto
          0 vlineto
          -87 107 -58 74 114 63 74 74 1 vhcurveto
          -24 23 28 -17 34 hhcurveto
          42 25 230 callsubr
          -17 -11 -21 hhcurveto
          -31 -30 23 25 -19 hvcurveto
          26 20 16 27 37 vvcurveto
          38 -28 39 -38 11 callsubr
        </CharString>
        <CharString name="dvD_G_RA">
          241 callgsubr
          10 -8 7 -9 -11 -73 -309 36 -170 -85 100 -48 -86 vvcurveto
          -26 -5 -14 -10 -15 vhcurveto
          25 -12 -26 15 -21 hhcurveto
          -26 -21 -18 -31 -55 54 -40 48 57 37 45 66 39 -10 33 -16 29 hvcurveto
          35 -15 38 -8 34 -1 rrcurveto
          4 -18 0 -29 -28 -31 -1 -29 -27 vvcurveto
          -57 -47 -121 -85 -92 -21 rrcurveto
          -28 4 22 -24 31 hhcurveto
          43 101 60 70 76 hvcurveto
          -4 -21 -2 -34 -19 vvcurveto
          -37 9 -40 47 5 9 1 4 7 vhcurveto
          -7 12 -2 35 30 78 3 76 73 vvcurveto
          27 -1 36 -17 21 vhcurveto
          10 2 9 2 9 4 rrcurveto
          -56 28 42 -58 64 hhcurveto
          42 24 28 31 22 322 callgsubr
          -33 -30 24 26 -19 hvcurveto
          25 19 16 28 35 vvcurveto
          38 -27 39 -39 -36 184 callsubr
          -31 -5 -32 hhcurveto
          -65 95 callsubr
          endchar
        </CharString>
        <CharString name="dvD_MA">
          113 514 576 rmoveto
          10 -17 1 -38 -33 vvcurveto
          -116 -2 -90 -1 -83 vhcurveto
          -49 3 -51 2 -47 1 rrcurveto
          76 -22 -62 61 -75 -30 -24 -10 -26 hhcurveto
          -28 -21 15 28 44 60 5 38 hvcurveto
          28 26 -1 25 hhcurveto
          81 25 41 34 28 -14 28 -24 22 hvcurveto
          -387 -50 callgsubr
          242 hlineto
          17 -12 10 -16 -15 vvcurveto
          -21 -16 -14 -32 364 callgsubr
          -82 -49 -35 -60 -82 80 -65 76 hvcurveto
          29 26 12 29 hhcurveto
          31 9 -25 -39 2 hvcurveto
          -41 -2 -40 -10 -44 vvcurveto
          -46 58 -58 45 32 22 28 53 3 vhcurveto
          138 -56 hlineto
          -40 3 -69 67 6 11 1 4 9 vhcurveto
          -9 14 -3 40 35 146 5 143 138 301 callgsubr
        </CharString>
        <CharString name="dvD_NA">
          -107 -50 27 callsubr
          269 278 callsubr
          -77 -281 17 -183 vvcurveto
          -101 107 -90 118 -3 vhcurveto
          -93 -44 -58 -37 -37 247 callsubr
          17 -8 21 -13 25 vhcurveto
          52 34 42 28 30 27 rrcurveto
          19 -21 14 -27 -25 vvcurveto
          -25 -15 -23 -31 -7 vhcurveto
          -26 11 25 -13 26 hhcurveto
          40 26 32 38 54 -44 48 -38 29 hvcurveto
          16 22 9 22 25 vvcurveto
          38 -23 39 -41 -34 -24 -27 -33 -20 7 -17 9 -16 vhcurveto
          -10 -24 -28 -5 -26 hhcurveto
          -68 -69 36 71 hvcurveto
          150 279 -34 126 119 callgsubr
        </CharString>
        <CharString name="dvD_R">
          -104 264 -66 -61 callgsubr
          -314 722 14 callsubr
          269 278 callsubr
          -77 -281 17 -183 -12 callgsubr
        </CharString>
        <CharString name="dvD_RA">
          -104 -50 27 callsubr
          269 278 callsubr
          -77 -281 17 -183 -12 callgsubr
        </CharString>
        <CharString name="dvD_VA">
          -38 297 340 callsubr
          -46 22 44 38 34 34 92 hvcurveto
          -297 506 176 callsubr
          40 -53 58 -36 vhcurveto
          -47 -16 -32 -34 -46 vvcurveto
          -95 112 -65 79 113 63 74 74 1 vhcurveto
          -24 23 28 -17 35 165 callgsubr
          -27 39 -39 11 callsubr
        </CharString>
        <CharString name="dvD_YA">
          25 422 71 callgsubr
          -67 -1 -61 -1 -56 vhcurveto
          -81 -37 -70 -66 -91 hhcurveto
          -53 -43 27 43 23 14 17 18 12 hvcurveto
          -10 18 22 -7 24 hhcurveto
          34 35 18 36 40 -44 21 -41 -25 -24 -4 -8 -21 hvcurveto
          -5 9 -3 9 10 70 148 -27 87 vvcurveto
          23 -13 21 -11 13 vhcurveto
          -318 77 callgsubr
          179 hlineto
          6 -5 5 -7 -8 -46 -151 22 -109 vvcurveto
          -33 18 -30 19 -22 vhcurveto
          -26 -21 -17 -29 -36 vvcurveto
          -74 96 -92 123 67 53 28 43 38 vhcurveto
          -4 -26 -1 -26 -25 vvcurveto
          -48 15 -47 53 384 callgsubr
          5 137 125 300 callsubr
        </CharString>
        <CharString name="dvE">
          -20 -73 callgsubr
          46 100 callsubr
          -59 -2 -51 -48 -176 353 -34 -106 vvcurveto
          -27 -23 -14 -28 vhcurveto
          -5 13 -50 57 45 23 36 37 vhcurveto
          158 -352 20 157 54 2 53 52 121 callsubr
          244 hlineto
          17 -28 21 -50 -59 vvcurveto
          -65 -39 -29 -45 -14 -13 3 5 -14 vhcurveto
          -50 2 43 -32 50 hhcurveto
          66 40 53 70 57 -19 66 -37 59 hvcurveto
          -3 callgsubr
        </CharString>
        <CharString name="dvEcandra">
          -20 304 133 callgsubr
          -359 -103 -94 callgsubr
          46 100 callsubr
          -59 -2 -51 -48 -176 353 -34 -106 vvcurveto
          -27 -23 -14 -28 vhcurveto
          -5 13 -50 57 45 23 36 37 vhcurveto
          158 -352 20 157 54 2 53 52 121 callsubr
          244 hlineto
          17 -28 21 -50 -59 vvcurveto
          -65 -39 -29 -45 -14 -13 3 5 -14 vhcurveto
          -50 2 43 -32 50 hhcurveto
          66 40 53 70 57 -19 66 -37 59 hvcurveto
          -3 callgsubr
        </CharString>
        <CharString name="dvEight">
          -134 382 239 rmoveto
          -88 -39 -71 -32 -58 hhcurveto
          -60 -44 37 62 60 54 69 37 45 hvcurveto
          93 112 74 63 53 vvcurveto
          28 -16 20 -28 7 vhcurveto
          0 -153 -179 -70 -78 vhcurveto
          -47 -55 -23 -56 -54 vvcurveto
          -118 113 -89 112 121 54 75 52 28 -17 26 -32 12 vhcurveto
          endchar
        </CharString>
        <CharString name="dvEyelash">
          -296 357 callgsubr
          304 -98 callgsubr
          106 -248 rmoveto
          -32 -37 -60 -22 -63 hhcurveto
          -57 -55 18 31 -35 hvcurveto
          -9 -5 -7 -10 -12 vvcurveto
          -46 99 -56 102 84 62 36 50 15 -6 19 -18 14 vhcurveto
          endchar
        </CharString>
        <CharString name="dvEyelash_HA">
          1 -63 27 callsubr
          435 hlineto
          21 -12 15 -21 -21 vvcurveto
          -19 -15 -16 -30 vhcurveto
          -34 -16 1 -27 hhcurveto
          -101 -38 -54 -60 -6 0 -6 1 -7 hvcurveto
          -6 -24 -25 -3 -26 hhcurveto
          -61 -59 15 29 -40 hvcurveto
          -9 -5 -6 -10 -12 vvcurveto
          -44 101 -51 104 28 27 3 7 26 vhcurveto
          6 -8 6 -7 6 -6 rrcurveto
          -30 -31 -18 -41 -47 vvcurveto
          -134 131 -100 137 35 22 14 23 3 -1 9 -2 5 415 callgsubr
          -102 -99 54 100 86 75 46 62 49 31 -27 -36 -36 -29 -29 -50 -4 hvcurveto
          -38 3 349 callgsubr
          -15 -28 hvcurveto
          -12 16 -9 19 20 vvcurveto
          33 24 34 56 vhcurveto
          29 25 -1 30 hhcurveto
          63 33 34 44 34 -17 32 -25 25 hvcurveto
          172 -100 callsubr
        </CharString>
        <CharString name="dvEyelash_YA">
          194 587 576 -35 callgsubr
          -66 -1 -59 -1 -56 vhcurveto
          -55 -40 -74 -22 -13 callsubr
          34 103 -40 callgsubr
          -474 80 rmoveto
          -64 callsubr
          329 172 callsubr
          -77 -113 -62 -114 -61 -59 14 30 -40 vhcurveto
          -9 -6 -6 -10 -12 vvcurveto
          -42 101 -52 103 21 20 2 3 19 vhcurveto
          -66 7 106 -93 115 hhcurveto
          140 callgsubr
          hvcurveto
          -6 -36 -3 -40 -27 vvcurveto
          -49 13 -102 callgsubr
        </CharString>
        <CharString name="dvFive">
          -59 525 55 rmoveto
          -3 -10 -12 -2 -10 hhcurveto
          -76 -31 63 72 -19 hvcurveto
          38 19 28 33 46 vvcurveto
          58 -36 32 -38 -35 -33 -26 -50 -18 4 -19 5 -17 vhcurveto
          -8 -18 -28 -5 -29 hhcurveto
          -71 -38 50 61 118 119 113 102 31 hvcurveto
          13 -12 39 -51 -85 -155 -139 -140 -116 107 -97 131 16 15 2 3 16 vhcurveto
          -93 24 45 -115 86 hhcurveto
          43 18 29 27 14 -3 14 -7 11 hvcurveto
          endchar
        </CharString>
        <CharString name="dvFour">
          -95 238 113 rmoveto
          -53 -37 38 51 49 45 43 55 44 hvcurveto
          45 -40 33 -43 -52 vvcurveto
          -51 -40 -39 -48 vhcurveto
          55 259 rmoveto
          79 59 83 63 77 vvcurveto
          37 -25 32 -41 vhcurveto
          0 -4 0 -10 -2 vhcurveto
          3 -9 1 -8 -8 vvcurveto
          -71 -81 -54 -80 -59 vhcurveto
          -56 43 -46 39 40 vvcurveto
          27 23 13 13 3 vhcurveto
          34 -28 24 -34 -33 -36 -24 -50 -71 77 -54 77 -57 vhcurveto
          -58 -48 -49 -53 -68 vvcurveto
          -79 85 -98 115 77 70 60 82 69 -58 59 -64 52 vhcurveto
          endchar
        </CharString>
        <CharString name="dvG">
          -243 8 callgsubr
          221 -100 callgsubr
        </CharString>
        <CharString name="dvGA">
          -9 8 callgsubr
          223 7 callgsubr
          161 -101 callgsubr
          endchar
        </CharString>
        <CharString name="dvGH">
          -190 434 -14 callsubr
          -407 hlineto
          58 callgsubr
          -83 97 -100 120 122 90 90 63 22 -15 26 -36 7 vhcurveto
          -83 -35 -80 -56 -82 110 callsubr
          endchar
        </CharString>
        <CharString name="dvGHA">
          29 426 576 rmoveto
          425 callsubr
          -58 vhcurveto
          -63 -34 -69 -42 -73 hhcurveto
          -57 -48 33 -33 callsubr
          -83 97 -100 120 61 51 22 38 37 vhcurveto
          -6 -35 -2 -39 -15 vvcurveto
          -51 21 -40 48 7 11 1 4 10 vhcurveto
          -10 15 -2 -89 callsubr
        </CharString>
        <CharString name="dvGH_MA">
          389 786 576 rmoveto
          11 -17 1 27 callgsubr
          -2 53 -29 22 vhcurveto
          -71 244 callsubr
          -81 -3 5 -29 -36 -60 rrcurveto
          -61 -36 -42 -32 -63 hhcurveto
          -57 -48 33 -33 callsubr
          -83 96 -100 121 83 64 61 51 26 vhcurveto
          -20 20 24 -14 25 hhcurveto
          35 16 34 59 7 hvcurveto
          200 hlineto
          -2 -63 -1 -57 -58 vvcurveto
          -41 4 -38 callsubr
          -45 12 -41 vhcurveto
          endchar
        </CharString>
        <CharString name="dvGH_NA">
          29 426 71 callgsubr
          -75 -1 -64 -1 -59 vhcurveto
          -61 -31 -73 -42 -72 hhcurveto
          -57 -48 33 -33 callsubr
          -67 61 -72 82 -22 vhcurveto
          -81 -26 -55 -32 -38 vvcurveto
          -43 59 -42 47 31 27 18 32 16 -6 19 -10 24 vhcurveto
          102 50 69 19 40 46 rrcurveto
          -7 -36 -1 -43 -15 vvcurveto
          -51 21 -40 48 7 11 1 4 10 vhcurveto
          -10 15 -2 -89 callsubr
        </CharString>
        <CharString name="dvGH_R">
          -190 434 -14 callsubr
          -407 hlineto
          58 callgsubr
          -81 88 -87 108 vhcurveto
          1 hlineto
          -67 -30 -76 -27 -59 -11 rrcurveto
          -38 3 30 -27 39 hhcurveto
          62 171 91 93 83 hvcurveto
          28 32 17 32 25 vvcurveto
          21 -14 25 -36 7 vhcurveto
          -82 -35 -80 -57 -82 110 callsubr
          endchar
        </CharString>
        <CharString name="dvGH_RA">
          29 426 576 rmoveto
          425 callsubr
          -58 vhcurveto
          -63 -34 -69 -42 -73 hhcurveto
          -57 -48 33 -33 callsubr
          -81 88 -87 108 vhcurveto
          1 hlineto
          -67 -30 -76 -27 -59 -11 rrcurveto
          -39 3 31 -26 40 hhcurveto
          56 162 88 97 79 hvcurveto
          -7 -37 -1 -44 -15 vvcurveto
          -51 21 -40 48 7 11 1 4 10 vhcurveto
          -10 15 -2 -89 callsubr
        </CharString>
        <CharString name="dvGH_YA">
          395 788 -56 callsubr
          -62 hmoveto
          314 callsubr
          -51 -47 -33 -43 -29 vhcurveto
          -60 -39 -20 -60 -28 -48 rrcurveto
          -43 -26 -33 -33 -69 hhcurveto
          -55 -47 32 -33 callsubr
          -83 95 -99 119 95 60 73 61 24 vhcurveto
          -53 44 76 -47 81 hhcurveto
          140 callgsubr
          hvcurveto
          -6 -36 -3 -40 -27 106 callgsubr
        </CharString>
        <CharString name="dvG_BA">
          296 613 219 130 callgsubr
          -523 273 84 callgsubr
          528 112 callgsubr
          -143 164 59 callsubr
          -109 107 -108 115 367 callsubr
          vhcurveto
          -7 -32 392 callsubr
          15 -48 55 4 17 1 4 7 vhcurveto
          -10 15 21 callgsubr
          -103 callsubr
        </CharString>
        <CharString name="dvG_BHA">
          381 642 656 217 callgsubr
          -24 -20 -8 -13 -14 hvcurveto
          15 -17 -27 5 -26 hhcurveto
          -359 -15 callsubr
          180 175 callgsubr
          193 hlineto
          -2 -63 -1 -57 -58 vvcurveto
          -41 4 -38 callsubr
          -45 12 -41 vhcurveto
          endchar
        </CharString>
        <CharString name="dvG_BH_YA">
          701 1094 -28 callgsubr
          vvcurveto
          -82 -121 -32 -28 -47 vhcurveto
          -41 3 -48 3 -51 2 357 callsubr
          -25 -19 -8 -13 -15 hvcurveto
          15 -16 -28 5 -26 hhcurveto
          -359 -15 callsubr
          181 175 callgsubr
          143 hlineto
          4 4 0 3 hhcurveto
          -66 37 92 -70 99 hhcurveto
          140 callgsubr
          hvcurveto
          -6 -36 -3 -40 -27 vvcurveto
          -49 13 -102 callgsubr
        </CharString>
        <CharString name="dvG_DA">
          238 -33 656 84 callgsubr
          462 381 callgsubr
          -108 127 -105 131 327 callsubr
          vhcurveto
          -65 callgsubr
        </CharString>
        <CharString name="dvG_DHA">
          349 698 210 callgsubr
          -64 -1 -60 vhcurveto
          -61 -37 -70 -41 -70 88 callgsubr
          -29 -8 -15 -24 hvcurveto
          -10 18 -5 19 20 429 callgsubr
          65 vhcurveto
          16 -98 callgsubr
          -543 -15 callsubr
          221 hlineto
          1 2 18 1 rlineto
          -21 -25 -7 -30 -25 vvcurveto
          -45 21 -41 31 -31 vhcurveto
          -18 -23 -12 -30 -36 vvcurveto
          -82 96 -97 122 362 callgsubr
          -38 -17 vvcurveto
          -45 13 -47 55 -80 callsubr
          35 -2 43 -31 3 callgsubr
        </CharString>
        <CharString name="dvG_DH_VA">
          673 663 27 callsubr
          324 hlineto
          10 -53 callsubr
          41 46 66 -29 callgsubr
          39 -37 27 -53 vhcurveto
          -213 57 -308 -192 hhcurveto
          -51 -42 36 49 31 14 22 19 14 hvcurveto
          -5 17 17 321 callsubr
          -28 -29 -8 -15 -24 hvcurveto
          -11 18 -5 20 21 vvcurveto
          51 37 52 64 vhcurveto
          17 -101 callgsubr
          -543 -15 callsubr
          160 hlineto
          25 26 1 2 30 hvcurveto
          -21 -25 -8 -30 -25 428 callgsubr
          32 -31 vhcurveto
          -19 -23 -11 -29 -36 vvcurveto
          -81 91 -96 117 83 66 61 71 30 vhcurveto
          -64 38 71 -46 74 hhcurveto
          228 callsubr
          hvcurveto
          -7 -32 -3 -34 -34 vvcurveto
          -47 15 -48 55 5 16 1 4 7 vhcurveto
          -10 15 -2 -89 callsubr
        </CharString>
        <CharString name="dvG_DH_YA">
          722 1115 9 callgsubr
          145 220 callgsubr
          -16 35 -19 27 vhcurveto
          -265 -50 callgsubr
          122 172 callsubr
          -55 -57 -36 -46 -31 vhcurveto
          -62 -94 10 -150 -153 hhcurveto
          -50 -41 33 49 31 14 21 19 43 callsubr
          -28 -8 -14 312 callsubr
          21 vvcurveto
          51 36 52 65 vhcurveto
          16 -98 callgsubr
          -547 -15 callsubr
          171 hlineto
          20 24 1 2 29 hvcurveto
          -21 -25 -7 -30 -25 vvcurveto
          -45 21 -41 31 -31 vhcurveto
          -18 -23 -12 -30 -36 vvcurveto
          -80 90 -93 115 87 73 64 67 28 vhcurveto
          -54 43 77 -48 83 hhcurveto
          213 callsubr
          hvcurveto
          42 callgsubr
        </CharString>
        <CharString name="dvG_GA">
          307 8 callgsubr
          243 -84 callgsubr
          223 7 callgsubr
          161 -101 callgsubr
          endchar
        </CharString>
        <CharString name="dvG_GHA">
          351 748 576 rmoveto
          425 callsubr
          -58 vhcurveto
          -63 -34 -69 -42 -73 110 callsubr
          -557 10 callsubr
          221 hlineto
          1 3 11 1 rlineto
          -14 -25 -6 -27 -24 428 callgsubr
          33 -32 vhcurveto
          -19 -23 -12 -29 -36 vvcurveto
          -83 97 -100 120 61 51 22 38 37 vhcurveto
          -6 -35 -2 -39 -15 vvcurveto
          -51 21 -40 48 7 11 1 4 10 vhcurveto
          -10 15 -2 -89 callsubr
        </CharString>
        <CharString name="dvG_JA">
          462 313 656 rmoveto
          0 -9 vlineto
          -359 -15 callsubr
          221 0 9 hlineto
          465 78 callsubr
          -37 -327 vlineto
          -1 -4 -2 -9 -7 vvcurveto
          -48 44 -12 42 vhcurveto
          1 hlineto
          27 -28 20 -36 -37 vvcurveto
          -39 -26 -31 -45 -87 -71 118 126 -41 vhcurveto
          -14 -18 -7 -27 -59 96 -234 163 64 callsubr
          -41 vhcurveto
          endchar
        </CharString>
</ttFont>
